SplineFontDB: 3.2
FontName: Dotrice-Expanded
FullName: Dotrice Expanded
FamilyName: Dotrice
Weight: Regular
Copyright: Paul Flo Williams, 2010
Version: 1.001
ItalicAngle: 0
UnderlinePosition: -150
UnderlineWidth: 50
Ascent: 750
Descent: 250
InvalidEm: 0
sfntRevision: 0x00010041
LayerCount: 2
Layer: 0 0 "Back" 1
Layer: 1 0 "Fore" 0
XUID: [1021 777 940441475 14125850]
StyleMap: 0x0040
FSType: 0
OS2Version: 4
OS2_WeightWidthSlopeOnly: 0
OS2_UseTypoMetrics: 1
CreationTime: 1283345713
ModificationTime: 1306952506
PfmFamily: 81
TTFWeight: 400
TTFWidth: 9
LineGap: 90
VLineGap: 0
Panose: 4 8 9 9 5 15 4 2 4 2
OS2TypoAscent: 750
OS2TypoAOffset: 0
OS2TypoDescent: -250
OS2TypoDOffset: 0
OS2TypoLinegap: 90
OS2WinAscent: 680
OS2WinAOffset: 0
OS2WinDescent: 200
OS2WinDOffset: 0
HheadAscent: 680
HheadAOffset: 0
HheadDescent: -200
HheadDOffset: 0
OS2SubXSize: 650
OS2SubYSize: 699
OS2SubXOff: 0
OS2SubYOff: 140
OS2SupXSize: 650
OS2SupYSize: 699
OS2SupXOff: 0
OS2SupYOff: 479
OS2StrikeYSize: 49
OS2StrikeYPos: 258
OS2CapHeight: 26
OS2XHeight: 28
OS2FamilyClass: 2058
OS2Vendor: 'HDAD'
OS2CodePages: 00000001.00000000
OS2UnicodeRanges: 00000003.00000002.00000000.00000000
MarkAttachClasses: 1
DEI: 91125

StartChar: .notdef
Encoding: 65536 -1 0
Width: 1440
GlyphClass: 1
Flags: MW
HStem: -200 80<29 51 149 171 269 291 389 411 509 531 629 651 749 771 869 891 989 1011 1109 1131> -100 80<29 51 149 171 989 1011 1109 1131> 0 80<29 51 149 171 269 291 389 411 749 771 869 891 989 1011 1109 1131> 100 80<29 51 149 171 389 411 509 531 629 651 749 771 989 1011 1109 1131> 200 80<29 51 149 171 509 531 629 651 989 1011 1109 1131> 300 80<29 51 149 171 389 411 509 531 629 651 749 771 989 1011 1109 1131> 400 80<29 51 149 171 269 291 389 411 749 771 869 891 989 1011 1109 1131> 500 80<29 51 149 171 989 1011 1109 1131> 600 80<29 51 149 171 269 291 389 411 509 531 629 651 749 771 869 891 989 1011 1109 1131>
LayerCount: 2
Fore
SplineSet
1080 -160 m 0
 1080 -138 1098 -120 1120 -120 c 0
 1142 -120 1160 -138 1160 -160 c 0
 1160 -182 1142 -200 1120 -200 c 0
 1098 -200 1080 -182 1080 -160 c 0
960 -160 m 0
 960 -138 978 -120 1000 -120 c 0
 1022 -120 1040 -138 1040 -160 c 0
 1040 -182 1022 -200 1000 -200 c 0
 978 -200 960 -182 960 -160 c 0
840 -160 m 0
 840 -138 858 -120 880 -120 c 0
 902 -120 920 -138 920 -160 c 0
 920 -182 902 -200 880 -200 c 0
 858 -200 840 -182 840 -160 c 0
720 -160 m 0
 720 -138 738 -120 760 -120 c 0
 782 -120 800 -138 800 -160 c 0
 800 -182 782 -200 760 -200 c 0
 738 -200 720 -182 720 -160 c 0
600 -160 m 0
 600 -138 618 -120 640 -120 c 0
 662 -120 680 -138 680 -160 c 0
 680 -182 662 -200 640 -200 c 0
 618 -200 600 -182 600 -160 c 0
480 -160 m 0
 480 -138 498 -120 520 -120 c 0
 542 -120 560 -138 560 -160 c 0
 560 -182 542 -200 520 -200 c 0
 498 -200 480 -182 480 -160 c 0
360 -160 m 0
 360 -138 378 -120 400 -120 c 0
 422 -120 440 -138 440 -160 c 0
 440 -182 422 -200 400 -200 c 0
 378 -200 360 -182 360 -160 c 0
240 -160 m 0
 240 -138 258 -120 280 -120 c 0
 302 -120 320 -138 320 -160 c 0
 320 -182 302 -200 280 -200 c 0
 258 -200 240 -182 240 -160 c 0
120 -160 m 0
 120 -138 138 -120 160 -120 c 0
 182 -120 200 -138 200 -160 c 0
 200 -182 182 -200 160 -200 c 0
 138 -200 120 -182 120 -160 c 0
0 -160 m 0
 0 -138 18 -120 40 -120 c 0
 62 -120 80 -138 80 -160 c 0
 80 -182 62 -200 40 -200 c 0
 18 -200 0 -182 0 -160 c 0
1080 -60 m 0
 1080 -38 1098 -20 1120 -20 c 0
 1142 -20 1160 -38 1160 -60 c 0
 1160 -82 1142 -100 1120 -100 c 0
 1098 -100 1080 -82 1080 -60 c 0
960 -60 m 0
 960 -38 978 -20 1000 -20 c 0
 1022 -20 1040 -38 1040 -60 c 0
 1040 -82 1022 -100 1000 -100 c 0
 978 -100 960 -82 960 -60 c 0
120 -60 m 0
 120 -38 138 -20 160 -20 c 0
 182 -20 200 -38 200 -60 c 0
 200 -82 182 -100 160 -100 c 0
 138 -100 120 -82 120 -60 c 0
0 -60 m 0
 0 -38 18 -20 40 -20 c 0
 62 -20 80 -38 80 -60 c 0
 80 -82 62 -100 40 -100 c 0
 18 -100 0 -82 0 -60 c 0
1080 40 m 0
 1080 62 1098 80 1120 80 c 0
 1142 80 1160 62 1160 40 c 0
 1160 18 1142 0 1120 0 c 0
 1098 0 1080 18 1080 40 c 0
960 40 m 0
 960 62 978 80 1000 80 c 0
 1022 80 1040 62 1040 40 c 0
 1040 18 1022 0 1000 0 c 0
 978 0 960 18 960 40 c 0
840 40 m 0
 840 62 858 80 880 80 c 0
 902 80 920 62 920 40 c 0
 920 18 902 0 880 0 c 0
 858 0 840 18 840 40 c 0
720 40 m 0
 720 62 738 80 760 80 c 0
 782 80 800 62 800 40 c 0
 800 18 782 0 760 0 c 0
 738 0 720 18 720 40 c 0
360 40 m 0
 360 62 378 80 400 80 c 0
 422 80 440 62 440 40 c 0
 440 18 422 0 400 0 c 0
 378 0 360 18 360 40 c 0
240 40 m 0
 240 62 258 80 280 80 c 0
 302 80 320 62 320 40 c 0
 320 18 302 0 280 0 c 0
 258 0 240 18 240 40 c 0
120 40 m 0
 120 62 138 80 160 80 c 0
 182 80 200 62 200 40 c 0
 200 18 182 0 160 0 c 0
 138 0 120 18 120 40 c 0
0 40 m 0
 0 62 18 80 40 80 c 0
 62 80 80 62 80 40 c 0
 80 18 62 0 40 0 c 0
 18 0 0 18 0 40 c 0
1080 140 m 0
 1080 162 1098 180 1120 180 c 0
 1142 180 1160 162 1160 140 c 0
 1160 118 1142 100 1120 100 c 0
 1098 100 1080 118 1080 140 c 0
960 140 m 0
 960 162 978 180 1000 180 c 0
 1022 180 1040 162 1040 140 c 0
 1040 118 1022 100 1000 100 c 0
 978 100 960 118 960 140 c 0
720 140 m 0
 720 162 738 180 760 180 c 0
 782 180 800 162 800 140 c 0
 800 118 782 100 760 100 c 0
 738 100 720 118 720 140 c 0
600 140 m 0
 600 162 618 180 640 180 c 0
 662 180 680 162 680 140 c 0
 680 118 662 100 640 100 c 0
 618 100 600 118 600 140 c 0
480 140 m 0
 480 162 498 180 520 180 c 0
 542 180 560 162 560 140 c 0
 560 118 542 100 520 100 c 0
 498 100 480 118 480 140 c 0
360 140 m 0
 360 162 378 180 400 180 c 0
 422 180 440 162 440 140 c 0
 440 118 422 100 400 100 c 0
 378 100 360 118 360 140 c 0
120 140 m 0
 120 162 138 180 160 180 c 0
 182 180 200 162 200 140 c 0
 200 118 182 100 160 100 c 0
 138 100 120 118 120 140 c 0
0 140 m 0
 0 162 18 180 40 180 c 0
 62 180 80 162 80 140 c 0
 80 118 62 100 40 100 c 0
 18 100 0 118 0 140 c 0
1080 240 m 0
 1080 262 1098 280 1120 280 c 0
 1142 280 1160 262 1160 240 c 0
 1160 218 1142 200 1120 200 c 0
 1098 200 1080 218 1080 240 c 0
960 240 m 0
 960 262 978 280 1000 280 c 0
 1022 280 1040 262 1040 240 c 0
 1040 218 1022 200 1000 200 c 0
 978 200 960 218 960 240 c 0
600 240 m 0
 600 262 618 280 640 280 c 0
 662 280 680 262 680 240 c 0
 680 218 662 200 640 200 c 0
 618 200 600 218 600 240 c 0
480 240 m 0
 480 262 498 280 520 280 c 0
 542 280 560 262 560 240 c 0
 560 218 542 200 520 200 c 0
 498 200 480 218 480 240 c 0
120 240 m 0
 120 262 138 280 160 280 c 0
 182 280 200 262 200 240 c 0
 200 218 182 200 160 200 c 0
 138 200 120 218 120 240 c 0
0 240 m 0
 0 262 18 280 40 280 c 0
 62 280 80 262 80 240 c 0
 80 218 62 200 40 200 c 0
 18 200 0 218 0 240 c 0
1080 340 m 0
 1080 362 1098 380 1120 380 c 0
 1142 380 1160 362 1160 340 c 0
 1160 318 1142 300 1120 300 c 0
 1098 300 1080 318 1080 340 c 0
960 340 m 0
 960 362 978 380 1000 380 c 0
 1022 380 1040 362 1040 340 c 0
 1040 318 1022 300 1000 300 c 0
 978 300 960 318 960 340 c 0
720 340 m 0
 720 362 738 380 760 380 c 0
 782 380 800 362 800 340 c 0
 800 318 782 300 760 300 c 0
 738 300 720 318 720 340 c 0
600 340 m 0
 600 362 618 380 640 380 c 0
 662 380 680 362 680 340 c 0
 680 318 662 300 640 300 c 0
 618 300 600 318 600 340 c 0
480 340 m 0
 480 362 498 380 520 380 c 0
 542 380 560 362 560 340 c 0
 560 318 542 300 520 300 c 0
 498 300 480 318 480 340 c 0
360 340 m 0
 360 362 378 380 400 380 c 0
 422 380 440 362 440 340 c 0
 440 318 422 300 400 300 c 0
 378 300 360 318 360 340 c 0
120 340 m 0
 120 362 138 380 160 380 c 0
 182 380 200 362 200 340 c 0
 200 318 182 300 160 300 c 0
 138 300 120 318 120 340 c 0
0 340 m 0
 0 362 18 380 40 380 c 0
 62 380 80 362 80 340 c 0
 80 318 62 300 40 300 c 0
 18 300 0 318 0 340 c 0
1080 440 m 0
 1080 462 1098 480 1120 480 c 0
 1142 480 1160 462 1160 440 c 0
 1160 418 1142 400 1120 400 c 0
 1098 400 1080 418 1080 440 c 0
960 440 m 0
 960 462 978 480 1000 480 c 0
 1022 480 1040 462 1040 440 c 0
 1040 418 1022 400 1000 400 c 0
 978 400 960 418 960 440 c 0
840 440 m 0
 840 462 858 480 880 480 c 0
 902 480 920 462 920 440 c 0
 920 418 902 400 880 400 c 0
 858 400 840 418 840 440 c 0
720 440 m 0
 720 462 738 480 760 480 c 0
 782 480 800 462 800 440 c 0
 800 418 782 400 760 400 c 0
 738 400 720 418 720 440 c 0
360 440 m 0
 360 462 378 480 400 480 c 0
 422 480 440 462 440 440 c 0
 440 418 422 400 400 400 c 0
 378 400 360 418 360 440 c 0
240 440 m 0
 240 462 258 480 280 480 c 0
 302 480 320 462 320 440 c 0
 320 418 302 400 280 400 c 0
 258 400 240 418 240 440 c 0
120 440 m 0
 120 462 138 480 160 480 c 0
 182 480 200 462 200 440 c 0
 200 418 182 400 160 400 c 0
 138 400 120 418 120 440 c 0
0 440 m 0
 0 462 18 480 40 480 c 0
 62 480 80 462 80 440 c 0
 80 418 62 400 40 400 c 0
 18 400 0 418 0 440 c 0
1080 540 m 0
 1080 562 1098 580 1120 580 c 0
 1142 580 1160 562 1160 540 c 0
 1160 518 1142 500 1120 500 c 0
 1098 500 1080 518 1080 540 c 0
960 540 m 0
 960 562 978 580 1000 580 c 0
 1022 580 1040 562 1040 540 c 0
 1040 518 1022 500 1000 500 c 0
 978 500 960 518 960 540 c 0
120 540 m 0
 120 562 138 580 160 580 c 0
 182 580 200 562 200 540 c 0
 200 518 182 500 160 500 c 0
 138 500 120 518 120 540 c 0
0 540 m 0
 0 562 18 580 40 580 c 0
 62 580 80 562 80 540 c 0
 80 518 62 500 40 500 c 0
 18 500 0 518 0 540 c 0
1080 640 m 0
 1080 662 1098 680 1120 680 c 0
 1142 680 1160 662 1160 640 c 0
 1160 618 1142 600 1120 600 c 0
 1098 600 1080 618 1080 640 c 0
960 640 m 0
 960 662 978 680 1000 680 c 0
 1022 680 1040 662 1040 640 c 0
 1040 618 1022 600 1000 600 c 0
 978 600 960 618 960 640 c 0
840 640 m 0
 840 662 858 680 880 680 c 0
 902 680 920 662 920 640 c 0
 920 618 902 600 880 600 c 0
 858 600 840 618 840 640 c 0
720 640 m 0
 720 662 738 680 760 680 c 0
 782 680 800 662 800 640 c 0
 800 618 782 600 760 600 c 0
 738 600 720 618 720 640 c 0
600 640 m 0
 600 662 618 680 640 680 c 0
 662 680 680 662 680 640 c 0
 680 618 662 600 640 600 c 0
 618 600 600 618 600 640 c 0
480 640 m 0
 480 662 498 680 520 680 c 0
 542 680 560 662 560 640 c 0
 560 618 542 600 520 600 c 0
 498 600 480 618 480 640 c 0
360 640 m 0
 360 662 378 680 400 680 c 0
 422 680 440 662 440 640 c 0
 440 618 422 600 400 600 c 0
 378 600 360 618 360 640 c 0
240 640 m 0
 240 662 258 680 280 680 c 0
 302 680 320 662 320 640 c 0
 320 618 302 600 280 600 c 0
 258 600 240 618 240 640 c 0
120 640 m 0
 120 662 138 680 160 680 c 0
 182 680 200 662 200 640 c 0
 200 618 182 600 160 600 c 0
 138 600 120 618 120 640 c 0
0 640 m 0
 0 662 18 680 40 680 c 0
 62 680 80 662 80 640 c 0
 80 618 62 600 40 600 c 0
 18 600 0 618 0 640 c 0
EndSplineSet
EndChar

StartChar: exclam
Encoding: 33 33 2
Width: 1440
GlyphClass: 2
Flags: MW
HStem: 0 80<509 531 629 651> 300 80<509 531 629 651> 400 80<509 531 629 651> 500 80<509 531 629 651> 600 80<509 531 629 651>
LayerCount: 2
Fore
SplineSet
600 40 m 0
 600 62 618 80 640 80 c 0
 662 80 680 62 680 40 c 0
 680 18 662 0 640 0 c 0
 618 0 600 18 600 40 c 0
480 40 m 0
 480 62 498 80 520 80 c 0
 542 80 560 62 560 40 c 0
 560 18 542 0 520 0 c 0
 498 0 480 18 480 40 c 0
600 340 m 0
 600 362 618 380 640 380 c 0
 662 380 680 362 680 340 c 0
 680 318 662 300 640 300 c 0
 618 300 600 318 600 340 c 0
480 340 m 0
 480 362 498 380 520 380 c 0
 542 380 560 362 560 340 c 0
 560 318 542 300 520 300 c 0
 498 300 480 318 480 340 c 0
600 440 m 0
 600 462 618 480 640 480 c 0
 662 480 680 462 680 440 c 0
 680 418 662 400 640 400 c 0
 618 400 600 418 600 440 c 0
480 440 m 0
 480 462 498 480 520 480 c 0
 542 480 560 462 560 440 c 0
 560 418 542 400 520 400 c 0
 498 400 480 418 480 440 c 0
600 540 m 0
 600 562 618 580 640 580 c 0
 662 580 680 562 680 540 c 0
 680 518 662 500 640 500 c 0
 618 500 600 518 600 540 c 0
480 540 m 0
 480 562 498 580 520 580 c 0
 542 580 560 562 560 540 c 0
 560 518 542 500 520 500 c 0
 498 500 480 518 480 540 c 0
600 640 m 0
 600 662 618 680 640 680 c 0
 662 680 680 662 680 640 c 0
 680 618 662 600 640 600 c 0
 618 600 600 618 600 640 c 0
480 640 m 0
 480 662 498 680 520 680 c 0
 542 680 560 662 560 640 c 0
 560 618 542 600 520 600 c 0
 498 600 480 618 480 640 c 0
EndSplineSet
EndChar

StartChar: quotedbl
Encoding: 34 34 3
Width: 1440
GlyphClass: 2
Flags: MW
HStem: 400 80<269 291 389 411 749 771 869 891> 500 80<269 291 389 411 749 771 869 891> 600 80<269 291 389 411 749 771 869 891>
CounterMasks: 1 e0
LayerCount: 2
Fore
SplineSet
840 440 m 0
 840 462 858 480 880 480 c 0
 902 480 920 462 920 440 c 0
 920 418 902 400 880 400 c 0
 858 400 840 418 840 440 c 0
720 440 m 0
 720 462 738 480 760 480 c 0
 782 480 800 462 800 440 c 0
 800 418 782 400 760 400 c 0
 738 400 720 418 720 440 c 0
360 440 m 0
 360 462 378 480 400 480 c 0
 422 480 440 462 440 440 c 0
 440 418 422 400 400 400 c 0
 378 400 360 418 360 440 c 0
240 440 m 0
 240 462 258 480 280 480 c 0
 302 480 320 462 320 440 c 0
 320 418 302 400 280 400 c 0
 258 400 240 418 240 440 c 0
840 540 m 0
 840 562 858 580 880 580 c 0
 902 580 920 562 920 540 c 0
 920 518 902 500 880 500 c 0
 858 500 840 518 840 540 c 0
720 540 m 0
 720 562 738 580 760 580 c 0
 782 580 800 562 800 540 c 0
 800 518 782 500 760 500 c 0
 738 500 720 518 720 540 c 0
360 540 m 0
 360 562 378 580 400 580 c 0
 422 580 440 562 440 540 c 0
 440 518 422 500 400 500 c 0
 378 500 360 518 360 540 c 0
240 540 m 0
 240 562 258 580 280 580 c 0
 302 580 320 562 320 540 c 0
 320 518 302 500 280 500 c 0
 258 500 240 518 240 540 c 0
840 640 m 0
 840 662 858 680 880 680 c 0
 902 680 920 662 920 640 c 0
 920 618 902 600 880 600 c 0
 858 600 840 618 840 640 c 0
720 640 m 0
 720 662 738 680 760 680 c 0
 782 680 800 662 800 640 c 0
 800 618 782 600 760 600 c 0
 738 600 720 618 720 640 c 0
360 640 m 0
 360 662 378 680 400 680 c 0
 422 680 440 662 440 640 c 0
 440 618 422 600 400 600 c 0
 378 600 360 618 360 640 c 0
240 640 m 0
 240 662 258 680 280 680 c 0
 302 680 320 662 320 640 c 0
 320 618 302 600 280 600 c 0
 258 600 240 618 240 640 c 0
EndSplineSet
EndChar

StartChar: numbersign
Encoding: 35 35 4
Width: 1440
GlyphClass: 2
Flags: MW
HStem: 0 80<269 291 389 411 749 771 869 891> 100 80<269 291 389 411 749 771 869 891> 200 80<29 51 149 171 269 291 389 411 509 531 629 651 749 771 869 891 989 1011 1109 1131> 300 80<269 291 389 411 749 771 869 891> 400 80<29 51 149 171 269 291 389 411 509 531 629 651 749 771 869 891 989 1011 1109 1131> 500 80<269 291 389 411 749 771 869 891> 600 80<269 291 389 411 749 771 869 891>
LayerCount: 2
Fore
SplineSet
840 40 m 0
 840 62 858 80 880 80 c 0
 902 80 920 62 920 40 c 0
 920 18 902 0 880 0 c 0
 858 0 840 18 840 40 c 0
720 40 m 0
 720 62 738 80 760 80 c 0
 782 80 800 62 800 40 c 0
 800 18 782 0 760 0 c 0
 738 0 720 18 720 40 c 0
360 40 m 0
 360 62 378 80 400 80 c 0
 422 80 440 62 440 40 c 0
 440 18 422 0 400 0 c 0
 378 0 360 18 360 40 c 0
240 40 m 0
 240 62 258 80 280 80 c 0
 302 80 320 62 320 40 c 0
 320 18 302 0 280 0 c 0
 258 0 240 18 240 40 c 0
840 140 m 0
 840 162 858 180 880 180 c 0
 902 180 920 162 920 140 c 0
 920 118 902 100 880 100 c 0
 858 100 840 118 840 140 c 0
720 140 m 0
 720 162 738 180 760 180 c 0
 782 180 800 162 800 140 c 0
 800 118 782 100 760 100 c 0
 738 100 720 118 720 140 c 0
360 140 m 0
 360 162 378 180 400 180 c 0
 422 180 440 162 440 140 c 0
 440 118 422 100 400 100 c 0
 378 100 360 118 360 140 c 0
240 140 m 0
 240 162 258 180 280 180 c 0
 302 180 320 162 320 140 c 0
 320 118 302 100 280 100 c 0
 258 100 240 118 240 140 c 0
1080 240 m 0
 1080 262 1098 280 1120 280 c 0
 1142 280 1160 262 1160 240 c 0
 1160 218 1142 200 1120 200 c 0
 1098 200 1080 218 1080 240 c 0
960 240 m 0
 960 262 978 280 1000 280 c 0
 1022 280 1040 262 1040 240 c 0
 1040 218 1022 200 1000 200 c 0
 978 200 960 218 960 240 c 0
840 240 m 0
 840 262 858 280 880 280 c 0
 902 280 920 262 920 240 c 0
 920 218 902 200 880 200 c 0
 858 200 840 218 840 240 c 0
720 240 m 0
 720 262 738 280 760 280 c 0
 782 280 800 262 800 240 c 0
 800 218 782 200 760 200 c 0
 738 200 720 218 720 240 c 0
600 240 m 0
 600 262 618 280 640 280 c 0
 662 280 680 262 680 240 c 0
 680 218 662 200 640 200 c 0
 618 200 600 218 600 240 c 0
480 240 m 0
 480 262 498 280 520 280 c 0
 542 280 560 262 560 240 c 0
 560 218 542 200 520 200 c 0
 498 200 480 218 480 240 c 0
360 240 m 0
 360 262 378 280 400 280 c 0
 422 280 440 262 440 240 c 0
 440 218 422 200 400 200 c 0
 378 200 360 218 360 240 c 0
240 240 m 0
 240 262 258 280 280 280 c 0
 302 280 320 262 320 240 c 0
 320 218 302 200 280 200 c 0
 258 200 240 218 240 240 c 0
120 240 m 0
 120 262 138 280 160 280 c 0
 182 280 200 262 200 240 c 0
 200 218 182 200 160 200 c 0
 138 200 120 218 120 240 c 0
0 240 m 0
 0 262 18 280 40 280 c 0
 62 280 80 262 80 240 c 0
 80 218 62 200 40 200 c 0
 18 200 0 218 0 240 c 0
840 340 m 0
 840 362 858 380 880 380 c 0
 902 380 920 362 920 340 c 0
 920 318 902 300 880 300 c 0
 858 300 840 318 840 340 c 0
720 340 m 0
 720 362 738 380 760 380 c 0
 782 380 800 362 800 340 c 0
 800 318 782 300 760 300 c 0
 738 300 720 318 720 340 c 0
360 340 m 0
 360 362 378 380 400 380 c 0
 422 380 440 362 440 340 c 0
 440 318 422 300 400 300 c 0
 378 300 360 318 360 340 c 0
240 340 m 0
 240 362 258 380 280 380 c 0
 302 380 320 362 320 340 c 0
 320 318 302 300 280 300 c 0
 258 300 240 318 240 340 c 0
1080 440 m 0
 1080 462 1098 480 1120 480 c 0
 1142 480 1160 462 1160 440 c 0
 1160 418 1142 400 1120 400 c 0
 1098 400 1080 418 1080 440 c 0
960 440 m 0
 960 462 978 480 1000 480 c 0
 1022 480 1040 462 1040 440 c 0
 1040 418 1022 400 1000 400 c 0
 978 400 960 418 960 440 c 0
840 440 m 0
 840 462 858 480 880 480 c 0
 902 480 920 462 920 440 c 0
 920 418 902 400 880 400 c 0
 858 400 840 418 840 440 c 0
720 440 m 0
 720 462 738 480 760 480 c 0
 782 480 800 462 800 440 c 0
 800 418 782 400 760 400 c 0
 738 400 720 418 720 440 c 0
600 440 m 0
 600 462 618 480 640 480 c 0
 662 480 680 462 680 440 c 0
 680 418 662 400 640 400 c 0
 618 400 600 418 600 440 c 0
480 440 m 0
 480 462 498 480 520 480 c 0
 542 480 560 462 560 440 c 0
 560 418 542 400 520 400 c 0
 498 400 480 418 480 440 c 0
360 440 m 0
 360 462 378 480 400 480 c 0
 422 480 440 462 440 440 c 0
 440 418 422 400 400 400 c 0
 378 400 360 418 360 440 c 0
240 440 m 0
 240 462 258 480 280 480 c 0
 302 480 320 462 320 440 c 0
 320 418 302 400 280 400 c 0
 258 400 240 418 240 440 c 0
120 440 m 0
 120 462 138 480 160 480 c 0
 182 480 200 462 200 440 c 0
 200 418 182 400 160 400 c 0
 138 400 120 418 120 440 c 0
0 440 m 0
 0 462 18 480 40 480 c 0
 62 480 80 462 80 440 c 0
 80 418 62 400 40 400 c 0
 18 400 0 418 0 440 c 0
840 540 m 0
 840 562 858 580 880 580 c 0
 902 580 920 562 920 540 c 0
 920 518 902 500 880 500 c 0
 858 500 840 518 840 540 c 0
720 540 m 0
 720 562 738 580 760 580 c 0
 782 580 800 562 800 540 c 0
 800 518 782 500 760 500 c 0
 738 500 720 518 720 540 c 0
360 540 m 0
 360 562 378 580 400 580 c 0
 422 580 440 562 440 540 c 0
 440 518 422 500 400 500 c 0
 378 500 360 518 360 540 c 0
240 540 m 0
 240 562 258 580 280 580 c 0
 302 580 320 562 320 540 c 0
 320 518 302 500 280 500 c 0
 258 500 240 518 240 540 c 0
840 640 m 0
 840 662 858 680 880 680 c 0
 902 680 920 662 920 640 c 0
 920 618 902 600 880 600 c 0
 858 600 840 618 840 640 c 0
720 640 m 0
 720 662 738 680 760 680 c 0
 782 680 800 662 800 640 c 0
 800 618 782 600 760 600 c 0
 738 600 720 618 720 640 c 0
360 640 m 0
 360 662 378 680 400 680 c 0
 422 680 440 662 440 640 c 0
 440 618 422 600 400 600 c 0
 378 600 360 618 360 640 c 0
240 640 m 0
 240 662 258 680 280 680 c 0
 302 680 320 662 320 640 c 0
 320 618 302 600 280 600 c 0
 258 600 240 618 240 640 c 0
EndSplineSet
EndChar

StartChar: dollar
Encoding: 36 36 5
Width: 1440
GlyphClass: 2
Flags: MW
HStem: 0 80<509 531 629 651> 100 80<29 51 149 171 269 291 389 411 509 531 629 651 749 771 869 891> 200 80<509 531 629 651 989 1011 1109 1131> 300 80<269 291 389 411 509 531 629 651 749 771 869 891> 400 80<29 51 149 171 509 531 629 651> 500 80<269 291 389 411 509 531 629 651 749 771 869 891 989 1011 1109 1131> 600 80<509 531 629 651>
LayerCount: 2
Fore
SplineSet
600 40 m 0
 600 62 618 80 640 80 c 0
 662 80 680 62 680 40 c 0
 680 18 662 0 640 0 c 0
 618 0 600 18 600 40 c 0
480 40 m 0
 480 62 498 80 520 80 c 0
 542 80 560 62 560 40 c 0
 560 18 542 0 520 0 c 0
 498 0 480 18 480 40 c 0
840 140 m 0
 840 162 858 180 880 180 c 0
 902 180 920 162 920 140 c 0
 920 118 902 100 880 100 c 0
 858 100 840 118 840 140 c 0
720 140 m 0
 720 162 738 180 760 180 c 0
 782 180 800 162 800 140 c 0
 800 118 782 100 760 100 c 0
 738 100 720 118 720 140 c 0
600 140 m 0
 600 162 618 180 640 180 c 0
 662 180 680 162 680 140 c 0
 680 118 662 100 640 100 c 0
 618 100 600 118 600 140 c 0
480 140 m 0
 480 162 498 180 520 180 c 0
 542 180 560 162 560 140 c 0
 560 118 542 100 520 100 c 0
 498 100 480 118 480 140 c 0
360 140 m 0
 360 162 378 180 400 180 c 0
 422 180 440 162 440 140 c 0
 440 118 422 100 400 100 c 0
 378 100 360 118 360 140 c 0
240 140 m 0
 240 162 258 180 280 180 c 0
 302 180 320 162 320 140 c 0
 320 118 302 100 280 100 c 0
 258 100 240 118 240 140 c 0
120 140 m 0
 120 162 138 180 160 180 c 0
 182 180 200 162 200 140 c 0
 200 118 182 100 160 100 c 0
 138 100 120 118 120 140 c 0
0 140 m 0
 0 162 18 180 40 180 c 0
 62 180 80 162 80 140 c 0
 80 118 62 100 40 100 c 0
 18 100 0 118 0 140 c 0
1080 240 m 0
 1080 262 1098 280 1120 280 c 0
 1142 280 1160 262 1160 240 c 0
 1160 218 1142 200 1120 200 c 0
 1098 200 1080 218 1080 240 c 0
960 240 m 0
 960 262 978 280 1000 280 c 0
 1022 280 1040 262 1040 240 c 0
 1040 218 1022 200 1000 200 c 0
 978 200 960 218 960 240 c 0
600 240 m 0
 600 262 618 280 640 280 c 0
 662 280 680 262 680 240 c 0
 680 218 662 200 640 200 c 0
 618 200 600 218 600 240 c 0
480 240 m 0
 480 262 498 280 520 280 c 0
 542 280 560 262 560 240 c 0
 560 218 542 200 520 200 c 0
 498 200 480 218 480 240 c 0
840 340 m 0
 840 362 858 380 880 380 c 0
 902 380 920 362 920 340 c 0
 920 318 902 300 880 300 c 0
 858 300 840 318 840 340 c 0
720 340 m 0
 720 362 738 380 760 380 c 0
 782 380 800 362 800 340 c 0
 800 318 782 300 760 300 c 0
 738 300 720 318 720 340 c 0
600 340 m 0
 600 362 618 380 640 380 c 0
 662 380 680 362 680 340 c 0
 680 318 662 300 640 300 c 0
 618 300 600 318 600 340 c 0
480 340 m 0
 480 362 498 380 520 380 c 0
 542 380 560 362 560 340 c 0
 560 318 542 300 520 300 c 0
 498 300 480 318 480 340 c 0
360 340 m 0
 360 362 378 380 400 380 c 0
 422 380 440 362 440 340 c 0
 440 318 422 300 400 300 c 0
 378 300 360 318 360 340 c 0
240 340 m 0
 240 362 258 380 280 380 c 0
 302 380 320 362 320 340 c 0
 320 318 302 300 280 300 c 0
 258 300 240 318 240 340 c 0
600 440 m 0
 600 462 618 480 640 480 c 0
 662 480 680 462 680 440 c 0
 680 418 662 400 640 400 c 0
 618 400 600 418 600 440 c 0
480 440 m 0
 480 462 498 480 520 480 c 0
 542 480 560 462 560 440 c 0
 560 418 542 400 520 400 c 0
 498 400 480 418 480 440 c 0
120 440 m 0
 120 462 138 480 160 480 c 0
 182 480 200 462 200 440 c 0
 200 418 182 400 160 400 c 0
 138 400 120 418 120 440 c 0
0 440 m 0
 0 462 18 480 40 480 c 0
 62 480 80 462 80 440 c 0
 80 418 62 400 40 400 c 0
 18 400 0 418 0 440 c 0
1080 540 m 0
 1080 562 1098 580 1120 580 c 0
 1142 580 1160 562 1160 540 c 0
 1160 518 1142 500 1120 500 c 0
 1098 500 1080 518 1080 540 c 0
960 540 m 0
 960 562 978 580 1000 580 c 0
 1022 580 1040 562 1040 540 c 0
 1040 518 1022 500 1000 500 c 0
 978 500 960 518 960 540 c 0
840 540 m 0
 840 562 858 580 880 580 c 0
 902 580 920 562 920 540 c 0
 920 518 902 500 880 500 c 0
 858 500 840 518 840 540 c 0
720 540 m 0
 720 562 738 580 760 580 c 0
 782 580 800 562 800 540 c 0
 800 518 782 500 760 500 c 0
 738 500 720 518 720 540 c 0
600 540 m 0
 600 562 618 580 640 580 c 0
 662 580 680 562 680 540 c 0
 680 518 662 500 640 500 c 0
 618 500 600 518 600 540 c 0
480 540 m 0
 480 562 498 580 520 580 c 0
 542 580 560 562 560 540 c 0
 560 518 542 500 520 500 c 0
 498 500 480 518 480 540 c 0
360 540 m 0
 360 562 378 580 400 580 c 0
 422 580 440 562 440 540 c 0
 440 518 422 500 400 500 c 0
 378 500 360 518 360 540 c 0
240 540 m 0
 240 562 258 580 280 580 c 0
 302 580 320 562 320 540 c 0
 320 518 302 500 280 500 c 0
 258 500 240 518 240 540 c 0
600 640 m 0
 600 662 618 680 640 680 c 0
 662 680 680 662 680 640 c 0
 680 618 662 600 640 600 c 0
 618 600 600 618 600 640 c 0
480 640 m 0
 480 662 498 680 520 680 c 0
 542 680 560 662 560 640 c 0
 560 618 542 600 520 600 c 0
 498 600 480 618 480 640 c 0
EndSplineSet
EndChar

StartChar: percent
Encoding: 37 37 6
Width: 1440
GlyphClass: 2
Flags: MW
HStem: 0 80<149 171 269 291 749 771 869 891 989 1011 1109 1131> 100 80<269 291 389 411 749 771 869 891 989 1011 1109 1131> 200 80<389 411 509 531> 300 80<509 531 629 651> 400 80<629 651 749 771> 500 80<29 51 149 171 269 291 389 411 749 771 869 891> 600 80<29 51 149 171 269 291 389 411 869 891 989 1011>
LayerCount: 2
Fore
SplineSet
1080 40 m 0
 1080 62 1098 80 1120 80 c 0
 1142 80 1160 62 1160 40 c 0
 1160 18 1142 0 1120 0 c 0
 1098 0 1080 18 1080 40 c 0
960 40 m 0
 960 62 978 80 1000 80 c 0
 1022 80 1040 62 1040 40 c 0
 1040 18 1022 0 1000 0 c 0
 978 0 960 18 960 40 c 0
840 40 m 0
 840 62 858 80 880 80 c 0
 902 80 920 62 920 40 c 0
 920 18 902 0 880 0 c 0
 858 0 840 18 840 40 c 0
720 40 m 0
 720 62 738 80 760 80 c 0
 782 80 800 62 800 40 c 0
 800 18 782 0 760 0 c 0
 738 0 720 18 720 40 c 0
240 40 m 0
 240 62 258 80 280 80 c 0
 302 80 320 62 320 40 c 0
 320 18 302 0 280 0 c 0
 258 0 240 18 240 40 c 0
120 40 m 0
 120 62 138 80 160 80 c 0
 182 80 200 62 200 40 c 0
 200 18 182 0 160 0 c 0
 138 0 120 18 120 40 c 0
1080 140 m 0
 1080 162 1098 180 1120 180 c 0
 1142 180 1160 162 1160 140 c 0
 1160 118 1142 100 1120 100 c 0
 1098 100 1080 118 1080 140 c 0
960 140 m 0
 960 162 978 180 1000 180 c 0
 1022 180 1040 162 1040 140 c 0
 1040 118 1022 100 1000 100 c 0
 978 100 960 118 960 140 c 0
840 140 m 0
 840 162 858 180 880 180 c 0
 902 180 920 162 920 140 c 0
 920 118 902 100 880 100 c 0
 858 100 840 118 840 140 c 0
720 140 m 0
 720 162 738 180 760 180 c 0
 782 180 800 162 800 140 c 0
 800 118 782 100 760 100 c 0
 738 100 720 118 720 140 c 0
360 140 m 0
 360 162 378 180 400 180 c 0
 422 180 440 162 440 140 c 0
 440 118 422 100 400 100 c 0
 378 100 360 118 360 140 c 0
240 140 m 0
 240 162 258 180 280 180 c 0
 302 180 320 162 320 140 c 0
 320 118 302 100 280 100 c 0
 258 100 240 118 240 140 c 0
480 240 m 0
 480 262 498 280 520 280 c 0
 542 280 560 262 560 240 c 0
 560 218 542 200 520 200 c 0
 498 200 480 218 480 240 c 0
360 240 m 0
 360 262 378 280 400 280 c 0
 422 280 440 262 440 240 c 0
 440 218 422 200 400 200 c 0
 378 200 360 218 360 240 c 0
600 340 m 0
 600 362 618 380 640 380 c 0
 662 380 680 362 680 340 c 0
 680 318 662 300 640 300 c 0
 618 300 600 318 600 340 c 0
480 340 m 0
 480 362 498 380 520 380 c 0
 542 380 560 362 560 340 c 0
 560 318 542 300 520 300 c 0
 498 300 480 318 480 340 c 0
720 440 m 0
 720 462 738 480 760 480 c 0
 782 480 800 462 800 440 c 0
 800 418 782 400 760 400 c 0
 738 400 720 418 720 440 c 0
600 440 m 0
 600 462 618 480 640 480 c 0
 662 480 680 462 680 440 c 0
 680 418 662 400 640 400 c 0
 618 400 600 418 600 440 c 0
840 540 m 0
 840 562 858 580 880 580 c 0
 902 580 920 562 920 540 c 0
 920 518 902 500 880 500 c 0
 858 500 840 518 840 540 c 0
720 540 m 0
 720 562 738 580 760 580 c 0
 782 580 800 562 800 540 c 0
 800 518 782 500 760 500 c 0
 738 500 720 518 720 540 c 0
360 540 m 0
 360 562 378 580 400 580 c 0
 422 580 440 562 440 540 c 0
 440 518 422 500 400 500 c 0
 378 500 360 518 360 540 c 0
240 540 m 0
 240 562 258 580 280 580 c 0
 302 580 320 562 320 540 c 0
 320 518 302 500 280 500 c 0
 258 500 240 518 240 540 c 0
120 540 m 0
 120 562 138 580 160 580 c 0
 182 580 200 562 200 540 c 0
 200 518 182 500 160 500 c 0
 138 500 120 518 120 540 c 0
0 540 m 0
 0 562 18 580 40 580 c 0
 62 580 80 562 80 540 c 0
 80 518 62 500 40 500 c 0
 18 500 0 518 0 540 c 0
960 640 m 0
 960 662 978 680 1000 680 c 0
 1022 680 1040 662 1040 640 c 0
 1040 618 1022 600 1000 600 c 0
 978 600 960 618 960 640 c 0
840 640 m 0
 840 662 858 680 880 680 c 0
 902 680 920 662 920 640 c 0
 920 618 902 600 880 600 c 0
 858 600 840 618 840 640 c 0
360 640 m 0
 360 662 378 680 400 680 c 0
 422 680 440 662 440 640 c 0
 440 618 422 600 400 600 c 0
 378 600 360 618 360 640 c 0
240 640 m 0
 240 662 258 680 280 680 c 0
 302 680 320 662 320 640 c 0
 320 618 302 600 280 600 c 0
 258 600 240 618 240 640 c 0
120 640 m 0
 120 662 138 680 160 680 c 0
 182 680 200 662 200 640 c 0
 200 618 182 600 160 600 c 0
 138 600 120 618 120 640 c 0
0 640 m 0
 0 662 18 680 40 680 c 0
 62 680 80 662 80 640 c 0
 80 618 62 600 40 600 c 0
 18 600 0 618 0 640 c 0
EndSplineSet
EndChar

StartChar: ampersand
Encoding: 38 38 7
Width: 1440
GlyphClass: 2
Flags: MW
HStem: 0 80<269 291 389 411 509 531 629 651 989 1011 1109 1131> 100 80<29 51 149 171 749 771 869 891> 200 80<29 51 149 171 509 531 629 651 869 891 989 1011> 300 80<269 291 389 411 989 1011 1109 1131> 400 80<149 171 269 291 389 411 509 531> 500 80<29 51 149 171 509 531 629 651> 600 80<149 171 269 291 389 411 509 531>
LayerCount: 2
Fore
SplineSet
1080 40 m 0
 1080 62 1098 80 1120 80 c 0
 1142 80 1160 62 1160 40 c 0
 1160 18 1142 0 1120 0 c 0
 1098 0 1080 18 1080 40 c 0
960 40 m 0
 960 62 978 80 1000 80 c 0
 1022 80 1040 62 1040 40 c 0
 1040 18 1022 0 1000 0 c 0
 978 0 960 18 960 40 c 0
600 40 m 0
 600 62 618 80 640 80 c 0
 662 80 680 62 680 40 c 0
 680 18 662 0 640 0 c 0
 618 0 600 18 600 40 c 0
480 40 m 0
 480 62 498 80 520 80 c 0
 542 80 560 62 560 40 c 0
 560 18 542 0 520 0 c 0
 498 0 480 18 480 40 c 0
360 40 m 0
 360 62 378 80 400 80 c 0
 422 80 440 62 440 40 c 0
 440 18 422 0 400 0 c 0
 378 0 360 18 360 40 c 0
240 40 m 0
 240 62 258 80 280 80 c 0
 302 80 320 62 320 40 c 0
 320 18 302 0 280 0 c 0
 258 0 240 18 240 40 c 0
840 140 m 0
 840 162 858 180 880 180 c 0
 902 180 920 162 920 140 c 0
 920 118 902 100 880 100 c 0
 858 100 840 118 840 140 c 0
720 140 m 0
 720 162 738 180 760 180 c 0
 782 180 800 162 800 140 c 0
 800 118 782 100 760 100 c 0
 738 100 720 118 720 140 c 0
120 140 m 0
 120 162 138 180 160 180 c 0
 182 180 200 162 200 140 c 0
 200 118 182 100 160 100 c 0
 138 100 120 118 120 140 c 0
0 140 m 0
 0 162 18 180 40 180 c 0
 62 180 80 162 80 140 c 0
 80 118 62 100 40 100 c 0
 18 100 0 118 0 140 c 0
960 240 m 0
 960 262 978 280 1000 280 c 0
 1022 280 1040 262 1040 240 c 0
 1040 218 1022 200 1000 200 c 0
 978 200 960 218 960 240 c 0
840 240 m 0
 840 262 858 280 880 280 c 0
 902 280 920 262 920 240 c 0
 920 218 902 200 880 200 c 0
 858 200 840 218 840 240 c 0
600 240 m 0
 600 262 618 280 640 280 c 0
 662 280 680 262 680 240 c 0
 680 218 662 200 640 200 c 0
 618 200 600 218 600 240 c 0
480 240 m 0
 480 262 498 280 520 280 c 0
 542 280 560 262 560 240 c 0
 560 218 542 200 520 200 c 0
 498 200 480 218 480 240 c 0
120 240 m 0
 120 262 138 280 160 280 c 0
 182 280 200 262 200 240 c 0
 200 218 182 200 160 200 c 0
 138 200 120 218 120 240 c 0
0 240 m 0
 0 262 18 280 40 280 c 0
 62 280 80 262 80 240 c 0
 80 218 62 200 40 200 c 0
 18 200 0 218 0 240 c 0
1080 340 m 0
 1080 362 1098 380 1120 380 c 0
 1142 380 1160 362 1160 340 c 0
 1160 318 1142 300 1120 300 c 0
 1098 300 1080 318 1080 340 c 0
960 340 m 0
 960 362 978 380 1000 380 c 0
 1022 380 1040 362 1040 340 c 0
 1040 318 1022 300 1000 300 c 0
 978 300 960 318 960 340 c 0
360 340 m 0
 360 362 378 380 400 380 c 0
 422 380 440 362 440 340 c 0
 440 318 422 300 400 300 c 0
 378 300 360 318 360 340 c 0
240 340 m 0
 240 362 258 380 280 380 c 0
 302 380 320 362 320 340 c 0
 320 318 302 300 280 300 c 0
 258 300 240 318 240 340 c 0
480 440 m 0
 480 462 498 480 520 480 c 0
 542 480 560 462 560 440 c 0
 560 418 542 400 520 400 c 0
 498 400 480 418 480 440 c 0
360 440 m 0
 360 462 378 480 400 480 c 0
 422 480 440 462 440 440 c 0
 440 418 422 400 400 400 c 0
 378 400 360 418 360 440 c 0
240 440 m 0
 240 462 258 480 280 480 c 0
 302 480 320 462 320 440 c 0
 320 418 302 400 280 400 c 0
 258 400 240 418 240 440 c 0
120 440 m 0
 120 462 138 480 160 480 c 0
 182 480 200 462 200 440 c 0
 200 418 182 400 160 400 c 0
 138 400 120 418 120 440 c 0
600 540 m 0
 600 562 618 580 640 580 c 0
 662 580 680 562 680 540 c 0
 680 518 662 500 640 500 c 0
 618 500 600 518 600 540 c 0
480 540 m 0
 480 562 498 580 520 580 c 0
 542 580 560 562 560 540 c 0
 560 518 542 500 520 500 c 0
 498 500 480 518 480 540 c 0
120 540 m 0
 120 562 138 580 160 580 c 0
 182 580 200 562 200 540 c 0
 200 518 182 500 160 500 c 0
 138 500 120 518 120 540 c 0
0 540 m 0
 0 562 18 580 40 580 c 0
 62 580 80 562 80 540 c 0
 80 518 62 500 40 500 c 0
 18 500 0 518 0 540 c 0
480 640 m 0
 480 662 498 680 520 680 c 0
 542 680 560 662 560 640 c 0
 560 618 542 600 520 600 c 0
 498 600 480 618 480 640 c 0
360 640 m 0
 360 662 378 680 400 680 c 0
 422 680 440 662 440 640 c 0
 440 618 422 600 400 600 c 0
 378 600 360 618 360 640 c 0
240 640 m 0
 240 662 258 680 280 680 c 0
 302 680 320 662 320 640 c 0
 320 618 302 600 280 600 c 0
 258 600 240 618 240 640 c 0
120 640 m 0
 120 662 138 680 160 680 c 0
 182 680 200 662 200 640 c 0
 200 618 182 600 160 600 c 0
 138 600 120 618 120 640 c 0
EndSplineSet
EndChar

StartChar: quotesingle
Encoding: 39 39 8
Width: 1440
GlyphClass: 2
Flags: MW
HStem: 500 80<509 531 629 651> 600 80<629 651 749 771>
CounterMasks: 1 38
LayerCount: 2
Fore
SplineSet
600 540 m 0
 600 562 618 580 640 580 c 0
 662 580 680 562 680 540 c 0
 680 518 662 500 640 500 c 0
 618 500 600 518 600 540 c 0
480 540 m 0
 480 562 498 580 520 580 c 0
 542 580 560 562 560 540 c 0
 560 518 542 500 520 500 c 0
 498 500 480 518 480 540 c 0
720 640 m 0
 720 662 738 680 760 680 c 0
 782 680 800 662 800 640 c 0
 800 618 782 600 760 600 c 0
 738 600 720 618 720 640 c 0
600 640 m 0
 600 662 618 680 640 680 c 0
 662 680 680 662 680 640 c 0
 680 618 662 600 640 600 c 0
 618 600 600 618 600 640 c 0
EndSplineSet
EndChar

StartChar: parenleft
Encoding: 40 40 9
Width: 1440
GlyphClass: 2
Flags: MW
HStem: 0 80<749 771 869 891> 100 80<629 651 749 771> 200 80<509 531 629 651> 300 80<509 531 629 651> 400 80<509 531 629 651> 500 80<629 651 749 771> 600 80<749 771 869 891>
LayerCount: 2
Fore
SplineSet
840 40 m 0
 840 62 858 80 880 80 c 0
 902 80 920 62 920 40 c 0
 920 18 902 0 880 0 c 0
 858 0 840 18 840 40 c 0
720 40 m 0
 720 62 738 80 760 80 c 0
 782 80 800 62 800 40 c 0
 800 18 782 0 760 0 c 0
 738 0 720 18 720 40 c 0
720 140 m 0
 720 162 738 180 760 180 c 0
 782 180 800 162 800 140 c 0
 800 118 782 100 760 100 c 0
 738 100 720 118 720 140 c 0
600 140 m 0
 600 162 618 180 640 180 c 0
 662 180 680 162 680 140 c 0
 680 118 662 100 640 100 c 0
 618 100 600 118 600 140 c 0
600 240 m 0
 600 262 618 280 640 280 c 0
 662 280 680 262 680 240 c 0
 680 218 662 200 640 200 c 0
 618 200 600 218 600 240 c 0
480 240 m 0
 480 262 498 280 520 280 c 0
 542 280 560 262 560 240 c 0
 560 218 542 200 520 200 c 0
 498 200 480 218 480 240 c 0
600 340 m 0
 600 362 618 380 640 380 c 0
 662 380 680 362 680 340 c 0
 680 318 662 300 640 300 c 0
 618 300 600 318 600 340 c 0
480 340 m 0
 480 362 498 380 520 380 c 0
 542 380 560 362 560 340 c 0
 560 318 542 300 520 300 c 0
 498 300 480 318 480 340 c 0
600 440 m 0
 600 462 618 480 640 480 c 0
 662 480 680 462 680 440 c 0
 680 418 662 400 640 400 c 0
 618 400 600 418 600 440 c 0
480 440 m 0
 480 462 498 480 520 480 c 0
 542 480 560 462 560 440 c 0
 560 418 542 400 520 400 c 0
 498 400 480 418 480 440 c 0
720 540 m 0
 720 562 738 580 760 580 c 0
 782 580 800 562 800 540 c 0
 800 518 782 500 760 500 c 0
 738 500 720 518 720 540 c 0
600 540 m 0
 600 562 618 580 640 580 c 0
 662 580 680 562 680 540 c 0
 680 518 662 500 640 500 c 0
 618 500 600 518 600 540 c 0
840 640 m 0
 840 662 858 680 880 680 c 0
 902 680 920 662 920 640 c 0
 920 618 902 600 880 600 c 0
 858 600 840 618 840 640 c 0
720 640 m 0
 720 662 738 680 760 680 c 0
 782 680 800 662 800 640 c 0
 800 618 782 600 760 600 c 0
 738 600 720 618 720 640 c 0
EndSplineSet
EndChar

StartChar: parenright
Encoding: 41 41 10
Width: 1440
GlyphClass: 2
Flags: MW
HStem: 0 80<269 291 389 411> 100 80<389 411 509 531> 200 80<509 531 629 651> 300 80<509 531 629 651> 400 80<509 531 629 651> 500 80<389 411 509 531> 600 80<269 291 389 411>
LayerCount: 2
Fore
SplineSet
360 40 m 0
 360 62 378 80 400 80 c 0
 422 80 440 62 440 40 c 0
 440 18 422 0 400 0 c 0
 378 0 360 18 360 40 c 0
240 40 m 0
 240 62 258 80 280 80 c 0
 302 80 320 62 320 40 c 0
 320 18 302 0 280 0 c 0
 258 0 240 18 240 40 c 0
480 140 m 0
 480 162 498 180 520 180 c 0
 542 180 560 162 560 140 c 0
 560 118 542 100 520 100 c 0
 498 100 480 118 480 140 c 0
360 140 m 0
 360 162 378 180 400 180 c 0
 422 180 440 162 440 140 c 0
 440 118 422 100 400 100 c 0
 378 100 360 118 360 140 c 0
600 240 m 0
 600 262 618 280 640 280 c 0
 662 280 680 262 680 240 c 0
 680 218 662 200 640 200 c 0
 618 200 600 218 600 240 c 0
480 240 m 0
 480 262 498 280 520 280 c 0
 542 280 560 262 560 240 c 0
 560 218 542 200 520 200 c 0
 498 200 480 218 480 240 c 0
600 340 m 0
 600 362 618 380 640 380 c 0
 662 380 680 362 680 340 c 0
 680 318 662 300 640 300 c 0
 618 300 600 318 600 340 c 0
480 340 m 0
 480 362 498 380 520 380 c 0
 542 380 560 362 560 340 c 0
 560 318 542 300 520 300 c 0
 498 300 480 318 480 340 c 0
600 440 m 0
 600 462 618 480 640 480 c 0
 662 480 680 462 680 440 c 0
 680 418 662 400 640 400 c 0
 618 400 600 418 600 440 c 0
480 440 m 0
 480 462 498 480 520 480 c 0
 542 480 560 462 560 440 c 0
 560 418 542 400 520 400 c 0
 498 400 480 418 480 440 c 0
480 540 m 0
 480 562 498 580 520 580 c 0
 542 580 560 562 560 540 c 0
 560 518 542 500 520 500 c 0
 498 500 480 518 480 540 c 0
360 540 m 0
 360 562 378 580 400 580 c 0
 422 580 440 562 440 540 c 0
 440 518 422 500 400 500 c 0
 378 500 360 518 360 540 c 0
360 640 m 0
 360 662 378 680 400 680 c 0
 422 680 440 662 440 640 c 0
 440 618 422 600 400 600 c 0
 378 600 360 618 360 640 c 0
240 640 m 0
 240 662 258 680 280 680 c 0
 302 680 320 662 320 640 c 0
 320 618 302 600 280 600 c 0
 258 600 240 618 240 640 c 0
EndSplineSet
EndChar

StartChar: asterisk
Encoding: 42 42 11
Width: 1440
GlyphClass: 2
Flags: MW
HStem: 100 80<269 291 389 411 749 771 869 891> 200 80<389 411 509 531 629 651 749 771> 300 80<29 51 149 171 269 291 389 411 509 531 629 651 749 771 869 891 989 1011 1109 1131> 400 80<389 411 509 531 629 651 749 771> 500 80<269 291 389 411 749 771 869 891>
LayerCount: 2
Fore
SplineSet
840 140 m 0
 840 162 858 180 880 180 c 0
 902 180 920 162 920 140 c 0
 920 118 902 100 880 100 c 0
 858 100 840 118 840 140 c 0
720 140 m 0
 720 162 738 180 760 180 c 0
 782 180 800 162 800 140 c 0
 800 118 782 100 760 100 c 0
 738 100 720 118 720 140 c 0
360 140 m 0
 360 162 378 180 400 180 c 0
 422 180 440 162 440 140 c 0
 440 118 422 100 400 100 c 0
 378 100 360 118 360 140 c 0
240 140 m 0
 240 162 258 180 280 180 c 0
 302 180 320 162 320 140 c 0
 320 118 302 100 280 100 c 0
 258 100 240 118 240 140 c 0
720 240 m 0
 720 262 738 280 760 280 c 0
 782 280 800 262 800 240 c 0
 800 218 782 200 760 200 c 0
 738 200 720 218 720 240 c 0
600 240 m 0
 600 262 618 280 640 280 c 0
 662 280 680 262 680 240 c 0
 680 218 662 200 640 200 c 0
 618 200 600 218 600 240 c 0
480 240 m 0
 480 262 498 280 520 280 c 0
 542 280 560 262 560 240 c 0
 560 218 542 200 520 200 c 0
 498 200 480 218 480 240 c 0
360 240 m 0
 360 262 378 280 400 280 c 0
 422 280 440 262 440 240 c 0
 440 218 422 200 400 200 c 0
 378 200 360 218 360 240 c 0
1080 340 m 0
 1080 362 1098 380 1120 380 c 0
 1142 380 1160 362 1160 340 c 0
 1160 318 1142 300 1120 300 c 0
 1098 300 1080 318 1080 340 c 0
960 340 m 0
 960 362 978 380 1000 380 c 0
 1022 380 1040 362 1040 340 c 0
 1040 318 1022 300 1000 300 c 0
 978 300 960 318 960 340 c 0
840 340 m 0
 840 362 858 380 880 380 c 0
 902 380 920 362 920 340 c 0
 920 318 902 300 880 300 c 0
 858 300 840 318 840 340 c 0
720 340 m 0
 720 362 738 380 760 380 c 0
 782 380 800 362 800 340 c 0
 800 318 782 300 760 300 c 0
 738 300 720 318 720 340 c 0
600 340 m 0
 600 362 618 380 640 380 c 0
 662 380 680 362 680 340 c 0
 680 318 662 300 640 300 c 0
 618 300 600 318 600 340 c 0
480 340 m 0
 480 362 498 380 520 380 c 0
 542 380 560 362 560 340 c 0
 560 318 542 300 520 300 c 0
 498 300 480 318 480 340 c 0
360 340 m 0
 360 362 378 380 400 380 c 0
 422 380 440 362 440 340 c 0
 440 318 422 300 400 300 c 0
 378 300 360 318 360 340 c 0
240 340 m 0
 240 362 258 380 280 380 c 0
 302 380 320 362 320 340 c 0
 320 318 302 300 280 300 c 0
 258 300 240 318 240 340 c 0
120 340 m 0
 120 362 138 380 160 380 c 0
 182 380 200 362 200 340 c 0
 200 318 182 300 160 300 c 0
 138 300 120 318 120 340 c 0
0 340 m 0
 0 362 18 380 40 380 c 0
 62 380 80 362 80 340 c 0
 80 318 62 300 40 300 c 0
 18 300 0 318 0 340 c 0
720 440 m 0
 720 462 738 480 760 480 c 0
 782 480 800 462 800 440 c 0
 800 418 782 400 760 400 c 0
 738 400 720 418 720 440 c 0
600 440 m 0
 600 462 618 480 640 480 c 0
 662 480 680 462 680 440 c 0
 680 418 662 400 640 400 c 0
 618 400 600 418 600 440 c 0
480 440 m 0
 480 462 498 480 520 480 c 0
 542 480 560 462 560 440 c 0
 560 418 542 400 520 400 c 0
 498 400 480 418 480 440 c 0
360 440 m 0
 360 462 378 480 400 480 c 0
 422 480 440 462 440 440 c 0
 440 418 422 400 400 400 c 0
 378 400 360 418 360 440 c 0
840 540 m 0
 840 562 858 580 880 580 c 0
 902 580 920 562 920 540 c 0
 920 518 902 500 880 500 c 0
 858 500 840 518 840 540 c 0
720 540 m 0
 720 562 738 580 760 580 c 0
 782 580 800 562 800 540 c 0
 800 518 782 500 760 500 c 0
 738 500 720 518 720 540 c 0
360 540 m 0
 360 562 378 580 400 580 c 0
 422 580 440 562 440 540 c 0
 440 518 422 500 400 500 c 0
 378 500 360 518 360 540 c 0
240 540 m 0
 240 562 258 580 280 580 c 0
 302 580 320 562 320 540 c 0
 320 518 302 500 280 500 c 0
 258 500 240 518 240 540 c 0
EndSplineSet
EndChar

StartChar: plus
Encoding: 43 43 12
Width: 1440
GlyphClass: 2
Flags: MW
HStem: 100 80<509 531 629 651> 200 80<509 531 629 651> 300 80<29 51 149 171 269 291 389 411 509 531 629 651 749 771 869 891 989 1011 1109 1131> 400 80<509 531 629 651> 500 80<509 531 629 651>
LayerCount: 2
Fore
SplineSet
600 140 m 0
 600 162 618 180 640 180 c 0
 662 180 680 162 680 140 c 0
 680 118 662 100 640 100 c 0
 618 100 600 118 600 140 c 0
480 140 m 0
 480 162 498 180 520 180 c 0
 542 180 560 162 560 140 c 0
 560 118 542 100 520 100 c 0
 498 100 480 118 480 140 c 0
600 240 m 0
 600 262 618 280 640 280 c 0
 662 280 680 262 680 240 c 0
 680 218 662 200 640 200 c 0
 618 200 600 218 600 240 c 0
480 240 m 0
 480 262 498 280 520 280 c 0
 542 280 560 262 560 240 c 0
 560 218 542 200 520 200 c 0
 498 200 480 218 480 240 c 0
1080 340 m 0
 1080 362 1098 380 1120 380 c 0
 1142 380 1160 362 1160 340 c 0
 1160 318 1142 300 1120 300 c 0
 1098 300 1080 318 1080 340 c 0
960 340 m 0
 960 362 978 380 1000 380 c 0
 1022 380 1040 362 1040 340 c 0
 1040 318 1022 300 1000 300 c 0
 978 300 960 318 960 340 c 0
840 340 m 0
 840 362 858 380 880 380 c 0
 902 380 920 362 920 340 c 0
 920 318 902 300 880 300 c 0
 858 300 840 318 840 340 c 0
720 340 m 0
 720 362 738 380 760 380 c 0
 782 380 800 362 800 340 c 0
 800 318 782 300 760 300 c 0
 738 300 720 318 720 340 c 0
600 340 m 0
 600 362 618 380 640 380 c 0
 662 380 680 362 680 340 c 0
 680 318 662 300 640 300 c 0
 618 300 600 318 600 340 c 0
480 340 m 0
 480 362 498 380 520 380 c 0
 542 380 560 362 560 340 c 0
 560 318 542 300 520 300 c 0
 498 300 480 318 480 340 c 0
360 340 m 0
 360 362 378 380 400 380 c 0
 422 380 440 362 440 340 c 0
 440 318 422 300 400 300 c 0
 378 300 360 318 360 340 c 0
240 340 m 0
 240 362 258 380 280 380 c 0
 302 380 320 362 320 340 c 0
 320 318 302 300 280 300 c 0
 258 300 240 318 240 340 c 0
120 340 m 0
 120 362 138 380 160 380 c 0
 182 380 200 362 200 340 c 0
 200 318 182 300 160 300 c 0
 138 300 120 318 120 340 c 0
0 340 m 0
 0 362 18 380 40 380 c 0
 62 380 80 362 80 340 c 0
 80 318 62 300 40 300 c 0
 18 300 0 318 0 340 c 0
600 440 m 0
 600 462 618 480 640 480 c 0
 662 480 680 462 680 440 c 0
 680 418 662 400 640 400 c 0
 618 400 600 418 600 440 c 0
480 440 m 0
 480 462 498 480 520 480 c 0
 542 480 560 462 560 440 c 0
 560 418 542 400 520 400 c 0
 498 400 480 418 480 440 c 0
600 540 m 0
 600 562 618 580 640 580 c 0
 662 580 680 562 680 540 c 0
 680 518 662 500 640 500 c 0
 618 500 600 518 600 540 c 0
480 540 m 0
 480 562 498 580 520 580 c 0
 542 580 560 562 560 540 c 0
 560 518 542 500 520 500 c 0
 498 500 480 518 480 540 c 0
EndSplineSet
EndChar

StartChar: comma
Encoding: 44 44 13
Width: 1440
GlyphClass: 2
Flags: MW
HStem: -200 80<509 531 629 651> -100 80<629 651 749 771> 0 80<389 411 509 531 629 651 749 771> 100 80<389 411 509 531 629 651 749 771>
LayerCount: 2
Fore
SplineSet
600 -160 m 0
 600 -138 618 -120 640 -120 c 0
 662 -120 680 -138 680 -160 c 0
 680 -182 662 -200 640 -200 c 0
 618 -200 600 -182 600 -160 c 0
480 -160 m 0
 480 -138 498 -120 520 -120 c 0
 542 -120 560 -138 560 -160 c 0
 560 -182 542 -200 520 -200 c 0
 498 -200 480 -182 480 -160 c 0
720 -60 m 0
 720 -38 738 -20 760 -20 c 0
 782 -20 800 -38 800 -60 c 0
 800 -82 782 -100 760 -100 c 0
 738 -100 720 -82 720 -60 c 0
600 -60 m 0
 600 -38 618 -20 640 -20 c 0
 662 -20 680 -38 680 -60 c 0
 680 -82 662 -100 640 -100 c 0
 618 -100 600 -82 600 -60 c 0
720 40 m 0
 720 62 738 80 760 80 c 0
 782 80 800 62 800 40 c 0
 800 18 782 0 760 0 c 0
 738 0 720 18 720 40 c 0
600 40 m 0
 600 62 618 80 640 80 c 0
 662 80 680 62 680 40 c 0
 680 18 662 0 640 0 c 0
 618 0 600 18 600 40 c 0
480 40 m 0
 480 62 498 80 520 80 c 0
 542 80 560 62 560 40 c 0
 560 18 542 0 520 0 c 0
 498 0 480 18 480 40 c 0
360 40 m 0
 360 62 378 80 400 80 c 0
 422 80 440 62 440 40 c 0
 440 18 422 0 400 0 c 0
 378 0 360 18 360 40 c 0
720 140 m 0
 720 162 738 180 760 180 c 0
 782 180 800 162 800 140 c 0
 800 118 782 100 760 100 c 0
 738 100 720 118 720 140 c 0
600 140 m 0
 600 162 618 180 640 180 c 0
 662 180 680 162 680 140 c 0
 680 118 662 100 640 100 c 0
 618 100 600 118 600 140 c 0
480 140 m 0
 480 162 498 180 520 180 c 0
 542 180 560 162 560 140 c 0
 560 118 542 100 520 100 c 0
 498 100 480 118 480 140 c 0
360 140 m 0
 360 162 378 180 400 180 c 0
 422 180 440 162 440 140 c 0
 440 118 422 100 400 100 c 0
 378 100 360 118 360 140 c 0
EndSplineSet
EndChar

StartChar: hyphen
Encoding: 45 45 14
Width: 1440
GlyphClass: 2
Flags: MW
HStem: 300 80<29 51 149 171 269 291 389 411 509 531 629 651 749 771 869 891 989 1011 1109 1131>
LayerCount: 2
Fore
SplineSet
1080 340 m 0
 1080 362 1098 380 1120 380 c 0
 1142 380 1160 362 1160 340 c 0
 1160 318 1142 300 1120 300 c 0
 1098 300 1080 318 1080 340 c 0
960 340 m 0
 960 362 978 380 1000 380 c 0
 1022 380 1040 362 1040 340 c 0
 1040 318 1022 300 1000 300 c 0
 978 300 960 318 960 340 c 0
840 340 m 0
 840 362 858 380 880 380 c 0
 902 380 920 362 920 340 c 0
 920 318 902 300 880 300 c 0
 858 300 840 318 840 340 c 0
720 340 m 0
 720 362 738 380 760 380 c 0
 782 380 800 362 800 340 c 0
 800 318 782 300 760 300 c 0
 738 300 720 318 720 340 c 0
600 340 m 0
 600 362 618 380 640 380 c 0
 662 380 680 362 680 340 c 0
 680 318 662 300 640 300 c 0
 618 300 600 318 600 340 c 0
480 340 m 0
 480 362 498 380 520 380 c 0
 542 380 560 362 560 340 c 0
 560 318 542 300 520 300 c 0
 498 300 480 318 480 340 c 0
360 340 m 0
 360 362 378 380 400 380 c 0
 422 380 440 362 440 340 c 0
 440 318 422 300 400 300 c 0
 378 300 360 318 360 340 c 0
240 340 m 0
 240 362 258 380 280 380 c 0
 302 380 320 362 320 340 c 0
 320 318 302 300 280 300 c 0
 258 300 240 318 240 340 c 0
120 340 m 0
 120 362 138 380 160 380 c 0
 182 380 200 362 200 340 c 0
 200 318 182 300 160 300 c 0
 138 300 120 318 120 340 c 0
0 340 m 0
 0 362 18 380 40 380 c 0
 62 380 80 362 80 340 c 0
 80 318 62 300 40 300 c 0
 18 300 0 318 0 340 c 0
EndSplineSet
EndChar

StartChar: period
Encoding: 46 46 15
Width: 1440
GlyphClass: 2
Flags: MW
HStem: 0 80<269 291 389 411 509 531 629 651> 100 80<269 291 389 411 509 531 629 651>
LayerCount: 2
Fore
SplineSet
600 40 m 0
 600 62 618 80 640 80 c 0
 662 80 680 62 680 40 c 0
 680 18 662 0 640 0 c 0
 618 0 600 18 600 40 c 0
480 40 m 0
 480 62 498 80 520 80 c 0
 542 80 560 62 560 40 c 0
 560 18 542 0 520 0 c 0
 498 0 480 18 480 40 c 0
360 40 m 0
 360 62 378 80 400 80 c 0
 422 80 440 62 440 40 c 0
 440 18 422 0 400 0 c 0
 378 0 360 18 360 40 c 0
240 40 m 0
 240 62 258 80 280 80 c 0
 302 80 320 62 320 40 c 0
 320 18 302 0 280 0 c 0
 258 0 240 18 240 40 c 0
600 140 m 0
 600 162 618 180 640 180 c 0
 662 180 680 162 680 140 c 0
 680 118 662 100 640 100 c 0
 618 100 600 118 600 140 c 0
480 140 m 0
 480 162 498 180 520 180 c 0
 542 180 560 162 560 140 c 0
 560 118 542 100 520 100 c 0
 498 100 480 118 480 140 c 0
360 140 m 0
 360 162 378 180 400 180 c 0
 422 180 440 162 440 140 c 0
 440 118 422 100 400 100 c 0
 378 100 360 118 360 140 c 0
240 140 m 0
 240 162 258 180 280 180 c 0
 302 180 320 162 320 140 c 0
 320 118 302 100 280 100 c 0
 258 100 240 118 240 140 c 0
EndSplineSet
EndChar

StartChar: slash
Encoding: 47 47 16
Width: 1440
GlyphClass: 2
Flags: MW
HStem: 0 80<149 171 269 291> 100 80<269 291 389 411> 200 80<389 411 509 531> 300 80<509 531 629 651> 400 80<629 651 749 771> 500 80<749 771 869 891> 600 80<869 891 989 1011>
LayerCount: 2
Fore
SplineSet
240 40 m 0
 240 62 258 80 280 80 c 0
 302 80 320 62 320 40 c 0
 320 18 302 0 280 0 c 0
 258 0 240 18 240 40 c 0
120 40 m 0
 120 62 138 80 160 80 c 0
 182 80 200 62 200 40 c 0
 200 18 182 0 160 0 c 0
 138 0 120 18 120 40 c 0
360 140 m 0
 360 162 378 180 400 180 c 0
 422 180 440 162 440 140 c 0
 440 118 422 100 400 100 c 0
 378 100 360 118 360 140 c 0
240 140 m 0
 240 162 258 180 280 180 c 0
 302 180 320 162 320 140 c 0
 320 118 302 100 280 100 c 0
 258 100 240 118 240 140 c 0
480 240 m 0
 480 262 498 280 520 280 c 0
 542 280 560 262 560 240 c 0
 560 218 542 200 520 200 c 0
 498 200 480 218 480 240 c 0
360 240 m 0
 360 262 378 280 400 280 c 0
 422 280 440 262 440 240 c 0
 440 218 422 200 400 200 c 0
 378 200 360 218 360 240 c 0
600 340 m 0
 600 362 618 380 640 380 c 0
 662 380 680 362 680 340 c 0
 680 318 662 300 640 300 c 0
 618 300 600 318 600 340 c 0
480 340 m 0
 480 362 498 380 520 380 c 0
 542 380 560 362 560 340 c 0
 560 318 542 300 520 300 c 0
 498 300 480 318 480 340 c 0
720 440 m 0
 720 462 738 480 760 480 c 0
 782 480 800 462 800 440 c 0
 800 418 782 400 760 400 c 0
 738 400 720 418 720 440 c 0
600 440 m 0
 600 462 618 480 640 480 c 0
 662 480 680 462 680 440 c 0
 680 418 662 400 640 400 c 0
 618 400 600 418 600 440 c 0
840 540 m 0
 840 562 858 580 880 580 c 0
 902 580 920 562 920 540 c 0
 920 518 902 500 880 500 c 0
 858 500 840 518 840 540 c 0
720 540 m 0
 720 562 738 580 760 580 c 0
 782 580 800 562 800 540 c 0
 800 518 782 500 760 500 c 0
 738 500 720 518 720 540 c 0
960 640 m 0
 960 662 978 680 1000 680 c 0
 1022 680 1040 662 1040 640 c 0
 1040 618 1022 600 1000 600 c 0
 978 600 960 618 960 640 c 0
840 640 m 0
 840 662 858 680 880 680 c 0
 902 680 920 662 920 640 c 0
 920 618 902 600 880 600 c 0
 858 600 840 618 840 640 c 0
EndSplineSet
EndChar

StartChar: zero
Encoding: 48 48 17
Width: 1440
GlyphClass: 2
Flags: MW
HStem: 0 80<389 411 509 531 629 651 749 771> 100 80<149 171 269 291 869 891 989 1011> 200 80<29 51 149 171 989 1011 1109 1131> 300 80<29 51 149 171 989 1011 1109 1131> 400 80<29 51 149 171 989 1011 1109 1131> 500 80<149 171 269 291 869 891 989 1011> 600 80<389 411 509 531 629 651 749 771>
LayerCount: 2
Fore
SplineSet
720 40 m 0
 720 62 738 80 760 80 c 0
 782 80 800 62 800 40 c 0
 800 18 782 0 760 0 c 0
 738 0 720 18 720 40 c 0
600 40 m 0
 600 62 618 80 640 80 c 0
 662 80 680 62 680 40 c 0
 680 18 662 0 640 0 c 0
 618 0 600 18 600 40 c 0
480 40 m 0
 480 62 498 80 520 80 c 0
 542 80 560 62 560 40 c 0
 560 18 542 0 520 0 c 0
 498 0 480 18 480 40 c 0
360 40 m 0
 360 62 378 80 400 80 c 0
 422 80 440 62 440 40 c 0
 440 18 422 0 400 0 c 0
 378 0 360 18 360 40 c 0
960 140 m 0
 960 162 978 180 1000 180 c 0
 1022 180 1040 162 1040 140 c 0
 1040 118 1022 100 1000 100 c 0
 978 100 960 118 960 140 c 0
840 140 m 0
 840 162 858 180 880 180 c 0
 902 180 920 162 920 140 c 0
 920 118 902 100 880 100 c 0
 858 100 840 118 840 140 c 0
240 140 m 0
 240 162 258 180 280 180 c 0
 302 180 320 162 320 140 c 0
 320 118 302 100 280 100 c 0
 258 100 240 118 240 140 c 0
120 140 m 0
 120 162 138 180 160 180 c 0
 182 180 200 162 200 140 c 0
 200 118 182 100 160 100 c 0
 138 100 120 118 120 140 c 0
1080 240 m 0
 1080 262 1098 280 1120 280 c 0
 1142 280 1160 262 1160 240 c 0
 1160 218 1142 200 1120 200 c 0
 1098 200 1080 218 1080 240 c 0
960 240 m 0
 960 262 978 280 1000 280 c 0
 1022 280 1040 262 1040 240 c 0
 1040 218 1022 200 1000 200 c 0
 978 200 960 218 960 240 c 0
120 240 m 0
 120 262 138 280 160 280 c 0
 182 280 200 262 200 240 c 0
 200 218 182 200 160 200 c 0
 138 200 120 218 120 240 c 0
0 240 m 0
 0 262 18 280 40 280 c 0
 62 280 80 262 80 240 c 0
 80 218 62 200 40 200 c 0
 18 200 0 218 0 240 c 0
1080 340 m 0
 1080 362 1098 380 1120 380 c 0
 1142 380 1160 362 1160 340 c 0
 1160 318 1142 300 1120 300 c 0
 1098 300 1080 318 1080 340 c 0
960 340 m 0
 960 362 978 380 1000 380 c 0
 1022 380 1040 362 1040 340 c 0
 1040 318 1022 300 1000 300 c 0
 978 300 960 318 960 340 c 0
120 340 m 0
 120 362 138 380 160 380 c 0
 182 380 200 362 200 340 c 0
 200 318 182 300 160 300 c 0
 138 300 120 318 120 340 c 0
0 340 m 0
 0 362 18 380 40 380 c 0
 62 380 80 362 80 340 c 0
 80 318 62 300 40 300 c 0
 18 300 0 318 0 340 c 0
1080 440 m 0
 1080 462 1098 480 1120 480 c 0
 1142 480 1160 462 1160 440 c 0
 1160 418 1142 400 1120 400 c 0
 1098 400 1080 418 1080 440 c 0
960 440 m 0
 960 462 978 480 1000 480 c 0
 1022 480 1040 462 1040 440 c 0
 1040 418 1022 400 1000 400 c 0
 978 400 960 418 960 440 c 0
120 440 m 0
 120 462 138 480 160 480 c 0
 182 480 200 462 200 440 c 0
 200 418 182 400 160 400 c 0
 138 400 120 418 120 440 c 0
0 440 m 0
 0 462 18 480 40 480 c 0
 62 480 80 462 80 440 c 0
 80 418 62 400 40 400 c 0
 18 400 0 418 0 440 c 0
960 540 m 0
 960 562 978 580 1000 580 c 0
 1022 580 1040 562 1040 540 c 0
 1040 518 1022 500 1000 500 c 0
 978 500 960 518 960 540 c 0
840 540 m 0
 840 562 858 580 880 580 c 0
 902 580 920 562 920 540 c 0
 920 518 902 500 880 500 c 0
 858 500 840 518 840 540 c 0
240 540 m 0
 240 562 258 580 280 580 c 0
 302 580 320 562 320 540 c 0
 320 518 302 500 280 500 c 0
 258 500 240 518 240 540 c 0
120 540 m 0
 120 562 138 580 160 580 c 0
 182 580 200 562 200 540 c 0
 200 518 182 500 160 500 c 0
 138 500 120 518 120 540 c 0
720 640 m 0
 720 662 738 680 760 680 c 0
 782 680 800 662 800 640 c 0
 800 618 782 600 760 600 c 0
 738 600 720 618 720 640 c 0
600 640 m 0
 600 662 618 680 640 680 c 0
 662 680 680 662 680 640 c 0
 680 618 662 600 640 600 c 0
 618 600 600 618 600 640 c 0
480 640 m 0
 480 662 498 680 520 680 c 0
 542 680 560 662 560 640 c 0
 560 618 542 600 520 600 c 0
 498 600 480 618 480 640 c 0
360 640 m 0
 360 662 378 680 400 680 c 0
 422 680 440 662 440 640 c 0
 440 618 422 600 400 600 c 0
 378 600 360 618 360 640 c 0
EndSplineSet
EndChar

StartChar: one
Encoding: 49 49 18
Width: 1440
GlyphClass: 2
Flags: MW
HStem: 0 80<269 291 389 411 509 531 629 651 749 771 869 891> 100 80<509 531 629 651> 200 80<509 531 629 651> 300 80<509 531 629 651> 400 80<509 531 629 651> 500 80<269 291 389 411 509 531 629 651> 600 80<509 531 629 651>
LayerCount: 2
Fore
SplineSet
840 40 m 0
 840 62 858 80 880 80 c 0
 902 80 920 62 920 40 c 0
 920 18 902 0 880 0 c 0
 858 0 840 18 840 40 c 0
720 40 m 0
 720 62 738 80 760 80 c 0
 782 80 800 62 800 40 c 0
 800 18 782 0 760 0 c 0
 738 0 720 18 720 40 c 0
600 40 m 0
 600 62 618 80 640 80 c 0
 662 80 680 62 680 40 c 0
 680 18 662 0 640 0 c 0
 618 0 600 18 600 40 c 0
480 40 m 0
 480 62 498 80 520 80 c 0
 542 80 560 62 560 40 c 0
 560 18 542 0 520 0 c 0
 498 0 480 18 480 40 c 0
360 40 m 0
 360 62 378 80 400 80 c 0
 422 80 440 62 440 40 c 0
 440 18 422 0 400 0 c 0
 378 0 360 18 360 40 c 0
240 40 m 0
 240 62 258 80 280 80 c 0
 302 80 320 62 320 40 c 0
 320 18 302 0 280 0 c 0
 258 0 240 18 240 40 c 0
600 140 m 0
 600 162 618 180 640 180 c 0
 662 180 680 162 680 140 c 0
 680 118 662 100 640 100 c 0
 618 100 600 118 600 140 c 0
480 140 m 0
 480 162 498 180 520 180 c 0
 542 180 560 162 560 140 c 0
 560 118 542 100 520 100 c 0
 498 100 480 118 480 140 c 0
600 240 m 0
 600 262 618 280 640 280 c 0
 662 280 680 262 680 240 c 0
 680 218 662 200 640 200 c 0
 618 200 600 218 600 240 c 0
480 240 m 0
 480 262 498 280 520 280 c 0
 542 280 560 262 560 240 c 0
 560 218 542 200 520 200 c 0
 498 200 480 218 480 240 c 0
600 340 m 0
 600 362 618 380 640 380 c 0
 662 380 680 362 680 340 c 0
 680 318 662 300 640 300 c 0
 618 300 600 318 600 340 c 0
480 340 m 0
 480 362 498 380 520 380 c 0
 542 380 560 362 560 340 c 0
 560 318 542 300 520 300 c 0
 498 300 480 318 480 340 c 0
600 440 m 0
 600 462 618 480 640 480 c 0
 662 480 680 462 680 440 c 0
 680 418 662 400 640 400 c 0
 618 400 600 418 600 440 c 0
480 440 m 0
 480 462 498 480 520 480 c 0
 542 480 560 462 560 440 c 0
 560 418 542 400 520 400 c 0
 498 400 480 418 480 440 c 0
600 540 m 0
 600 562 618 580 640 580 c 0
 662 580 680 562 680 540 c 0
 680 518 662 500 640 500 c 0
 618 500 600 518 600 540 c 0
480 540 m 0
 480 562 498 580 520 580 c 0
 542 580 560 562 560 540 c 0
 560 518 542 500 520 500 c 0
 498 500 480 518 480 540 c 0
360 540 m 0
 360 562 378 580 400 580 c 0
 422 580 440 562 440 540 c 0
 440 518 422 500 400 500 c 0
 378 500 360 518 360 540 c 0
240 540 m 0
 240 562 258 580 280 580 c 0
 302 580 320 562 320 540 c 0
 320 518 302 500 280 500 c 0
 258 500 240 518 240 540 c 0
600 640 m 0
 600 662 618 680 640 680 c 0
 662 680 680 662 680 640 c 0
 680 618 662 600 640 600 c 0
 618 600 600 618 600 640 c 0
480 640 m 0
 480 662 498 680 520 680 c 0
 542 680 560 662 560 640 c 0
 560 618 542 600 520 600 c 0
 498 600 480 618 480 640 c 0
EndSplineSet
EndChar

StartChar: two
Encoding: 50 50 19
Width: 1440
GlyphClass: 2
Flags: MW
HStem: 0 80<29 51 149 171 269 291 389 411 509 531 629 651 749 771 869 891 989 1011 1109 1131> 100 80<269 291 389 411> 200 80<509 531 629 651> 300 80<749 771 869 891> 400 80<989 1011 1109 1131> 500 80<29 51 149 171 989 1011 1109 1131> 600 80<149 171 269 291 389 411 509 531 629 651 749 771 869 891 989 1011>
LayerCount: 2
Fore
SplineSet
1080 40 m 0
 1080 62 1098 80 1120 80 c 0
 1142 80 1160 62 1160 40 c 0
 1160 18 1142 0 1120 0 c 0
 1098 0 1080 18 1080 40 c 0
960 40 m 0
 960 62 978 80 1000 80 c 0
 1022 80 1040 62 1040 40 c 0
 1040 18 1022 0 1000 0 c 0
 978 0 960 18 960 40 c 0
840 40 m 0
 840 62 858 80 880 80 c 0
 902 80 920 62 920 40 c 0
 920 18 902 0 880 0 c 0
 858 0 840 18 840 40 c 0
720 40 m 0
 720 62 738 80 760 80 c 0
 782 80 800 62 800 40 c 0
 800 18 782 0 760 0 c 0
 738 0 720 18 720 40 c 0
600 40 m 0
 600 62 618 80 640 80 c 0
 662 80 680 62 680 40 c 0
 680 18 662 0 640 0 c 0
 618 0 600 18 600 40 c 0
480 40 m 0
 480 62 498 80 520 80 c 0
 542 80 560 62 560 40 c 0
 560 18 542 0 520 0 c 0
 498 0 480 18 480 40 c 0
360 40 m 0
 360 62 378 80 400 80 c 0
 422 80 440 62 440 40 c 0
 440 18 422 0 400 0 c 0
 378 0 360 18 360 40 c 0
240 40 m 0
 240 62 258 80 280 80 c 0
 302 80 320 62 320 40 c 0
 320 18 302 0 280 0 c 0
 258 0 240 18 240 40 c 0
120 40 m 0
 120 62 138 80 160 80 c 0
 182 80 200 62 200 40 c 0
 200 18 182 0 160 0 c 0
 138 0 120 18 120 40 c 0
0 40 m 0
 0 62 18 80 40 80 c 0
 62 80 80 62 80 40 c 0
 80 18 62 0 40 0 c 0
 18 0 0 18 0 40 c 0
360 140 m 0
 360 162 378 180 400 180 c 0
 422 180 440 162 440 140 c 0
 440 118 422 100 400 100 c 0
 378 100 360 118 360 140 c 0
240 140 m 0
 240 162 258 180 280 180 c 0
 302 180 320 162 320 140 c 0
 320 118 302 100 280 100 c 0
 258 100 240 118 240 140 c 0
600 240 m 0
 600 262 618 280 640 280 c 0
 662 280 680 262 680 240 c 0
 680 218 662 200 640 200 c 0
 618 200 600 218 600 240 c 0
480 240 m 0
 480 262 498 280 520 280 c 0
 542 280 560 262 560 240 c 0
 560 218 542 200 520 200 c 0
 498 200 480 218 480 240 c 0
840 340 m 0
 840 362 858 380 880 380 c 0
 902 380 920 362 920 340 c 0
 920 318 902 300 880 300 c 0
 858 300 840 318 840 340 c 0
720 340 m 0
 720 362 738 380 760 380 c 0
 782 380 800 362 800 340 c 0
 800 318 782 300 760 300 c 0
 738 300 720 318 720 340 c 0
1080 440 m 0
 1080 462 1098 480 1120 480 c 0
 1142 480 1160 462 1160 440 c 0
 1160 418 1142 400 1120 400 c 0
 1098 400 1080 418 1080 440 c 0
960 440 m 0
 960 462 978 480 1000 480 c 0
 1022 480 1040 462 1040 440 c 0
 1040 418 1022 400 1000 400 c 0
 978 400 960 418 960 440 c 0
1080 540 m 0
 1080 562 1098 580 1120 580 c 0
 1142 580 1160 562 1160 540 c 0
 1160 518 1142 500 1120 500 c 0
 1098 500 1080 518 1080 540 c 0
960 540 m 0
 960 562 978 580 1000 580 c 0
 1022 580 1040 562 1040 540 c 0
 1040 518 1022 500 1000 500 c 0
 978 500 960 518 960 540 c 0
120 540 m 0
 120 562 138 580 160 580 c 0
 182 580 200 562 200 540 c 0
 200 518 182 500 160 500 c 0
 138 500 120 518 120 540 c 0
0 540 m 0
 0 562 18 580 40 580 c 0
 62 580 80 562 80 540 c 0
 80 518 62 500 40 500 c 0
 18 500 0 518 0 540 c 0
960 640 m 0
 960 662 978 680 1000 680 c 0
 1022 680 1040 662 1040 640 c 0
 1040 618 1022 600 1000 600 c 0
 978 600 960 618 960 640 c 0
840 640 m 0
 840 662 858 680 880 680 c 0
 902 680 920 662 920 640 c 0
 920 618 902 600 880 600 c 0
 858 600 840 618 840 640 c 0
720 640 m 0
 720 662 738 680 760 680 c 0
 782 680 800 662 800 640 c 0
 800 618 782 600 760 600 c 0
 738 600 720 618 720 640 c 0
600 640 m 0
 600 662 618 680 640 680 c 0
 662 680 680 662 680 640 c 0
 680 618 662 600 640 600 c 0
 618 600 600 618 600 640 c 0
480 640 m 0
 480 662 498 680 520 680 c 0
 542 680 560 662 560 640 c 0
 560 618 542 600 520 600 c 0
 498 600 480 618 480 640 c 0
360 640 m 0
 360 662 378 680 400 680 c 0
 422 680 440 662 440 640 c 0
 440 618 422 600 400 600 c 0
 378 600 360 618 360 640 c 0
240 640 m 0
 240 662 258 680 280 680 c 0
 302 680 320 662 320 640 c 0
 320 618 302 600 280 600 c 0
 258 600 240 618 240 640 c 0
120 640 m 0
 120 662 138 680 160 680 c 0
 182 680 200 662 200 640 c 0
 200 618 182 600 160 600 c 0
 138 600 120 618 120 640 c 0
EndSplineSet
EndChar

StartChar: three
Encoding: 51 51 20
Width: 1440
GlyphClass: 2
Flags: MW
HStem: 0 80<269 291 389 411 509 531 629 651 749 771 869 891> 100 80<29 51 149 171 989 1011 1109 1131> 200 80<989 1011 1109 1131> 300 80<749 771 869 891> 400 80<509 531 629 651> 500 80<749 771 869 891> 600 80<29 51 149 171 269 291 389 411 509 531 629 651 749 771 869 891 989 1011 1109 1131>
LayerCount: 2
Fore
SplineSet
840 40 m 0
 840 62 858 80 880 80 c 0
 902 80 920 62 920 40 c 0
 920 18 902 0 880 0 c 0
 858 0 840 18 840 40 c 0
720 40 m 0
 720 62 738 80 760 80 c 0
 782 80 800 62 800 40 c 0
 800 18 782 0 760 0 c 0
 738 0 720 18 720 40 c 0
600 40 m 0
 600 62 618 80 640 80 c 0
 662 80 680 62 680 40 c 0
 680 18 662 0 640 0 c 0
 618 0 600 18 600 40 c 0
480 40 m 0
 480 62 498 80 520 80 c 0
 542 80 560 62 560 40 c 0
 560 18 542 0 520 0 c 0
 498 0 480 18 480 40 c 0
360 40 m 0
 360 62 378 80 400 80 c 0
 422 80 440 62 440 40 c 0
 440 18 422 0 400 0 c 0
 378 0 360 18 360 40 c 0
240 40 m 0
 240 62 258 80 280 80 c 0
 302 80 320 62 320 40 c 0
 320 18 302 0 280 0 c 0
 258 0 240 18 240 40 c 0
1080 140 m 0
 1080 162 1098 180 1120 180 c 0
 1142 180 1160 162 1160 140 c 0
 1160 118 1142 100 1120 100 c 0
 1098 100 1080 118 1080 140 c 0
960 140 m 0
 960 162 978 180 1000 180 c 0
 1022 180 1040 162 1040 140 c 0
 1040 118 1022 100 1000 100 c 0
 978 100 960 118 960 140 c 0
120 140 m 0
 120 162 138 180 160 180 c 0
 182 180 200 162 200 140 c 0
 200 118 182 100 160 100 c 0
 138 100 120 118 120 140 c 0
0 140 m 0
 0 162 18 180 40 180 c 0
 62 180 80 162 80 140 c 0
 80 118 62 100 40 100 c 0
 18 100 0 118 0 140 c 0
1080 240 m 0
 1080 262 1098 280 1120 280 c 0
 1142 280 1160 262 1160 240 c 0
 1160 218 1142 200 1120 200 c 0
 1098 200 1080 218 1080 240 c 0
960 240 m 0
 960 262 978 280 1000 280 c 0
 1022 280 1040 262 1040 240 c 0
 1040 218 1022 200 1000 200 c 0
 978 200 960 218 960 240 c 0
840 340 m 0
 840 362 858 380 880 380 c 0
 902 380 920 362 920 340 c 0
 920 318 902 300 880 300 c 0
 858 300 840 318 840 340 c 0
720 340 m 0
 720 362 738 380 760 380 c 0
 782 380 800 362 800 340 c 0
 800 318 782 300 760 300 c 0
 738 300 720 318 720 340 c 0
600 440 m 0
 600 462 618 480 640 480 c 0
 662 480 680 462 680 440 c 0
 680 418 662 400 640 400 c 0
 618 400 600 418 600 440 c 0
480 440 m 0
 480 462 498 480 520 480 c 0
 542 480 560 462 560 440 c 0
 560 418 542 400 520 400 c 0
 498 400 480 418 480 440 c 0
840 540 m 0
 840 562 858 580 880 580 c 0
 902 580 920 562 920 540 c 0
 920 518 902 500 880 500 c 0
 858 500 840 518 840 540 c 0
720 540 m 0
 720 562 738 580 760 580 c 0
 782 580 800 562 800 540 c 0
 800 518 782 500 760 500 c 0
 738 500 720 518 720 540 c 0
1080 640 m 0
 1080 662 1098 680 1120 680 c 0
 1142 680 1160 662 1160 640 c 0
 1160 618 1142 600 1120 600 c 0
 1098 600 1080 618 1080 640 c 0
960 640 m 0
 960 662 978 680 1000 680 c 0
 1022 680 1040 662 1040 640 c 0
 1040 618 1022 600 1000 600 c 0
 978 600 960 618 960 640 c 0
840 640 m 0
 840 662 858 680 880 680 c 0
 902 680 920 662 920 640 c 0
 920 618 902 600 880 600 c 0
 858 600 840 618 840 640 c 0
720 640 m 0
 720 662 738 680 760 680 c 0
 782 680 800 662 800 640 c 0
 800 618 782 600 760 600 c 0
 738 600 720 618 720 640 c 0
600 640 m 0
 600 662 618 680 640 680 c 0
 662 680 680 662 680 640 c 0
 680 618 662 600 640 600 c 0
 618 600 600 618 600 640 c 0
480 640 m 0
 480 662 498 680 520 680 c 0
 542 680 560 662 560 640 c 0
 560 618 542 600 520 600 c 0
 498 600 480 618 480 640 c 0
360 640 m 0
 360 662 378 680 400 680 c 0
 422 680 440 662 440 640 c 0
 440 618 422 600 400 600 c 0
 378 600 360 618 360 640 c 0
240 640 m 0
 240 662 258 680 280 680 c 0
 302 680 320 662 320 640 c 0
 320 618 302 600 280 600 c 0
 258 600 240 618 240 640 c 0
120 640 m 0
 120 662 138 680 160 680 c 0
 182 680 200 662 200 640 c 0
 200 618 182 600 160 600 c 0
 138 600 120 618 120 640 c 0
0 640 m 0
 0 662 18 680 40 680 c 0
 62 680 80 662 80 640 c 0
 80 618 62 600 40 600 c 0
 18 600 0 618 0 640 c 0
EndSplineSet
EndChar

StartChar: four
Encoding: 52 52 21
Width: 1440
GlyphClass: 2
Flags: MW
HStem: 0 80<749 771 869 891> 100 80<749 771 869 891> 200 80<29 51 149 171 269 291 389 411 509 531 629 651 749 771 869 891 989 1011 1109 1131> 300 80<149 171 269 291 749 771 869 891> 400 80<269 291 389 411 749 771 869 891> 500 80<389 411 509 531 749 771 869 891> 600 80<509 531 629 651 749 771 869 891>
LayerCount: 2
Fore
SplineSet
840 40 m 0
 840 62 858 80 880 80 c 0
 902 80 920 62 920 40 c 0
 920 18 902 0 880 0 c 0
 858 0 840 18 840 40 c 0
720 40 m 0
 720 62 738 80 760 80 c 0
 782 80 800 62 800 40 c 0
 800 18 782 0 760 0 c 0
 738 0 720 18 720 40 c 0
840 140 m 0
 840 162 858 180 880 180 c 0
 902 180 920 162 920 140 c 0
 920 118 902 100 880 100 c 0
 858 100 840 118 840 140 c 0
720 140 m 0
 720 162 738 180 760 180 c 0
 782 180 800 162 800 140 c 0
 800 118 782 100 760 100 c 0
 738 100 720 118 720 140 c 0
1080 240 m 0
 1080 262 1098 280 1120 280 c 0
 1142 280 1160 262 1160 240 c 0
 1160 218 1142 200 1120 200 c 0
 1098 200 1080 218 1080 240 c 0
960 240 m 0
 960 262 978 280 1000 280 c 0
 1022 280 1040 262 1040 240 c 0
 1040 218 1022 200 1000 200 c 0
 978 200 960 218 960 240 c 0
840 240 m 0
 840 262 858 280 880 280 c 0
 902 280 920 262 920 240 c 0
 920 218 902 200 880 200 c 0
 858 200 840 218 840 240 c 0
720 240 m 0
 720 262 738 280 760 280 c 0
 782 280 800 262 800 240 c 0
 800 218 782 200 760 200 c 0
 738 200 720 218 720 240 c 0
600 240 m 0
 600 262 618 280 640 280 c 0
 662 280 680 262 680 240 c 0
 680 218 662 200 640 200 c 0
 618 200 600 218 600 240 c 0
480 240 m 0
 480 262 498 280 520 280 c 0
 542 280 560 262 560 240 c 0
 560 218 542 200 520 200 c 0
 498 200 480 218 480 240 c 0
360 240 m 0
 360 262 378 280 400 280 c 0
 422 280 440 262 440 240 c 0
 440 218 422 200 400 200 c 0
 378 200 360 218 360 240 c 0
240 240 m 0
 240 262 258 280 280 280 c 0
 302 280 320 262 320 240 c 0
 320 218 302 200 280 200 c 0
 258 200 240 218 240 240 c 0
120 240 m 0
 120 262 138 280 160 280 c 0
 182 280 200 262 200 240 c 0
 200 218 182 200 160 200 c 0
 138 200 120 218 120 240 c 0
0 240 m 0
 0 262 18 280 40 280 c 0
 62 280 80 262 80 240 c 0
 80 218 62 200 40 200 c 0
 18 200 0 218 0 240 c 0
840 340 m 0
 840 362 858 380 880 380 c 0
 902 380 920 362 920 340 c 0
 920 318 902 300 880 300 c 0
 858 300 840 318 840 340 c 0
720 340 m 0
 720 362 738 380 760 380 c 0
 782 380 800 362 800 340 c 0
 800 318 782 300 760 300 c 0
 738 300 720 318 720 340 c 0
240 340 m 0
 240 362 258 380 280 380 c 0
 302 380 320 362 320 340 c 0
 320 318 302 300 280 300 c 0
 258 300 240 318 240 340 c 0
120 340 m 0
 120 362 138 380 160 380 c 0
 182 380 200 362 200 340 c 0
 200 318 182 300 160 300 c 0
 138 300 120 318 120 340 c 0
840 440 m 0
 840 462 858 480 880 480 c 0
 902 480 920 462 920 440 c 0
 920 418 902 400 880 400 c 0
 858 400 840 418 840 440 c 0
720 440 m 0
 720 462 738 480 760 480 c 0
 782 480 800 462 800 440 c 0
 800 418 782 400 760 400 c 0
 738 400 720 418 720 440 c 0
360 440 m 0
 360 462 378 480 400 480 c 0
 422 480 440 462 440 440 c 0
 440 418 422 400 400 400 c 0
 378 400 360 418 360 440 c 0
240 440 m 0
 240 462 258 480 280 480 c 0
 302 480 320 462 320 440 c 0
 320 418 302 400 280 400 c 0
 258 400 240 418 240 440 c 0
840 540 m 0
 840 562 858 580 880 580 c 0
 902 580 920 562 920 540 c 0
 920 518 902 500 880 500 c 0
 858 500 840 518 840 540 c 0
720 540 m 0
 720 562 738 580 760 580 c 0
 782 580 800 562 800 540 c 0
 800 518 782 500 760 500 c 0
 738 500 720 518 720 540 c 0
480 540 m 0
 480 562 498 580 520 580 c 0
 542 580 560 562 560 540 c 0
 560 518 542 500 520 500 c 0
 498 500 480 518 480 540 c 0
360 540 m 0
 360 562 378 580 400 580 c 0
 422 580 440 562 440 540 c 0
 440 518 422 500 400 500 c 0
 378 500 360 518 360 540 c 0
840 640 m 0
 840 662 858 680 880 680 c 0
 902 680 920 662 920 640 c 0
 920 618 902 600 880 600 c 0
 858 600 840 618 840 640 c 0
720 640 m 0
 720 662 738 680 760 680 c 0
 782 680 800 662 800 640 c 0
 800 618 782 600 760 600 c 0
 738 600 720 618 720 640 c 0
600 640 m 0
 600 662 618 680 640 680 c 0
 662 680 680 662 680 640 c 0
 680 618 662 600 640 600 c 0
 618 600 600 618 600 640 c 0
480 640 m 0
 480 662 498 680 520 680 c 0
 542 680 560 662 560 640 c 0
 560 618 542 600 520 600 c 0
 498 600 480 618 480 640 c 0
EndSplineSet
EndChar

StartChar: five
Encoding: 53 53 22
Width: 1440
GlyphClass: 2
Flags: MW
HStem: 0 80<149 171 269 291 389 411 509 531 629 651 749 771 869 891 989 1011> 100 80<29 51 149 171 989 1011 1109 1131> 200 80<989 1011 1109 1131> 300 80<989 1011 1109 1131> 400 80<29 51 149 171 269 291 389 411 509 531 629 651 749 771 869 891> 500 80<29 51 149 171> 600 80<29 51 149 171 269 291 389 411 509 531 629 651 749 771 869 891 989 1011 1109 1131>
LayerCount: 2
Fore
SplineSet
960 40 m 0
 960 62 978 80 1000 80 c 0
 1022 80 1040 62 1040 40 c 0
 1040 18 1022 0 1000 0 c 0
 978 0 960 18 960 40 c 0
840 40 m 0
 840 62 858 80 880 80 c 0
 902 80 920 62 920 40 c 0
 920 18 902 0 880 0 c 0
 858 0 840 18 840 40 c 0
720 40 m 0
 720 62 738 80 760 80 c 0
 782 80 800 62 800 40 c 0
 800 18 782 0 760 0 c 0
 738 0 720 18 720 40 c 0
600 40 m 0
 600 62 618 80 640 80 c 0
 662 80 680 62 680 40 c 0
 680 18 662 0 640 0 c 0
 618 0 600 18 600 40 c 0
480 40 m 0
 480 62 498 80 520 80 c 0
 542 80 560 62 560 40 c 0
 560 18 542 0 520 0 c 0
 498 0 480 18 480 40 c 0
360 40 m 0
 360 62 378 80 400 80 c 0
 422 80 440 62 440 40 c 0
 440 18 422 0 400 0 c 0
 378 0 360 18 360 40 c 0
240 40 m 0
 240 62 258 80 280 80 c 0
 302 80 320 62 320 40 c 0
 320 18 302 0 280 0 c 0
 258 0 240 18 240 40 c 0
120 40 m 0
 120 62 138 80 160 80 c 0
 182 80 200 62 200 40 c 0
 200 18 182 0 160 0 c 0
 138 0 120 18 120 40 c 0
1080 140 m 0
 1080 162 1098 180 1120 180 c 0
 1142 180 1160 162 1160 140 c 0
 1160 118 1142 100 1120 100 c 0
 1098 100 1080 118 1080 140 c 0
960 140 m 0
 960 162 978 180 1000 180 c 0
 1022 180 1040 162 1040 140 c 0
 1040 118 1022 100 1000 100 c 0
 978 100 960 118 960 140 c 0
120 140 m 0
 120 162 138 180 160 180 c 0
 182 180 200 162 200 140 c 0
 200 118 182 100 160 100 c 0
 138 100 120 118 120 140 c 0
0 140 m 0
 0 162 18 180 40 180 c 0
 62 180 80 162 80 140 c 0
 80 118 62 100 40 100 c 0
 18 100 0 118 0 140 c 0
1080 240 m 0
 1080 262 1098 280 1120 280 c 0
 1142 280 1160 262 1160 240 c 0
 1160 218 1142 200 1120 200 c 0
 1098 200 1080 218 1080 240 c 0
960 240 m 0
 960 262 978 280 1000 280 c 0
 1022 280 1040 262 1040 240 c 0
 1040 218 1022 200 1000 200 c 0
 978 200 960 218 960 240 c 0
1080 340 m 0
 1080 362 1098 380 1120 380 c 0
 1142 380 1160 362 1160 340 c 0
 1160 318 1142 300 1120 300 c 0
 1098 300 1080 318 1080 340 c 0
960 340 m 0
 960 362 978 380 1000 380 c 0
 1022 380 1040 362 1040 340 c 0
 1040 318 1022 300 1000 300 c 0
 978 300 960 318 960 340 c 0
840 440 m 0
 840 462 858 480 880 480 c 0
 902 480 920 462 920 440 c 0
 920 418 902 400 880 400 c 0
 858 400 840 418 840 440 c 0
720 440 m 0
 720 462 738 480 760 480 c 0
 782 480 800 462 800 440 c 0
 800 418 782 400 760 400 c 0
 738 400 720 418 720 440 c 0
600 440 m 0
 600 462 618 480 640 480 c 0
 662 480 680 462 680 440 c 0
 680 418 662 400 640 400 c 0
 618 400 600 418 600 440 c 0
480 440 m 0
 480 462 498 480 520 480 c 0
 542 480 560 462 560 440 c 0
 560 418 542 400 520 400 c 0
 498 400 480 418 480 440 c 0
360 440 m 0
 360 462 378 480 400 480 c 0
 422 480 440 462 440 440 c 0
 440 418 422 400 400 400 c 0
 378 400 360 418 360 440 c 0
240 440 m 0
 240 462 258 480 280 480 c 0
 302 480 320 462 320 440 c 0
 320 418 302 400 280 400 c 0
 258 400 240 418 240 440 c 0
120 440 m 0
 120 462 138 480 160 480 c 0
 182 480 200 462 200 440 c 0
 200 418 182 400 160 400 c 0
 138 400 120 418 120 440 c 0
0 440 m 0
 0 462 18 480 40 480 c 0
 62 480 80 462 80 440 c 0
 80 418 62 400 40 400 c 0
 18 400 0 418 0 440 c 0
120 540 m 0
 120 562 138 580 160 580 c 0
 182 580 200 562 200 540 c 0
 200 518 182 500 160 500 c 0
 138 500 120 518 120 540 c 0
0 540 m 0
 0 562 18 580 40 580 c 0
 62 580 80 562 80 540 c 0
 80 518 62 500 40 500 c 0
 18 500 0 518 0 540 c 0
1080 640 m 0
 1080 662 1098 680 1120 680 c 0
 1142 680 1160 662 1160 640 c 0
 1160 618 1142 600 1120 600 c 0
 1098 600 1080 618 1080 640 c 0
960 640 m 0
 960 662 978 680 1000 680 c 0
 1022 680 1040 662 1040 640 c 0
 1040 618 1022 600 1000 600 c 0
 978 600 960 618 960 640 c 0
840 640 m 0
 840 662 858 680 880 680 c 0
 902 680 920 662 920 640 c 0
 920 618 902 600 880 600 c 0
 858 600 840 618 840 640 c 0
720 640 m 0
 720 662 738 680 760 680 c 0
 782 680 800 662 800 640 c 0
 800 618 782 600 760 600 c 0
 738 600 720 618 720 640 c 0
600 640 m 0
 600 662 618 680 640 680 c 0
 662 680 680 662 680 640 c 0
 680 618 662 600 640 600 c 0
 618 600 600 618 600 640 c 0
480 640 m 0
 480 662 498 680 520 680 c 0
 542 680 560 662 560 640 c 0
 560 618 542 600 520 600 c 0
 498 600 480 618 480 640 c 0
360 640 m 0
 360 662 378 680 400 680 c 0
 422 680 440 662 440 640 c 0
 440 618 422 600 400 600 c 0
 378 600 360 618 360 640 c 0
240 640 m 0
 240 662 258 680 280 680 c 0
 302 680 320 662 320 640 c 0
 320 618 302 600 280 600 c 0
 258 600 240 618 240 640 c 0
120 640 m 0
 120 662 138 680 160 680 c 0
 182 680 200 662 200 640 c 0
 200 618 182 600 160 600 c 0
 138 600 120 618 120 640 c 0
0 640 m 0
 0 662 18 680 40 680 c 0
 62 680 80 662 80 640 c 0
 80 618 62 600 40 600 c 0
 18 600 0 618 0 640 c 0
EndSplineSet
EndChar

StartChar: six
Encoding: 54 54 23
Width: 1440
GlyphClass: 2
Flags: MW
HStem: 0 80<149 171 269 291 389 411 509 531 629 651 749 771 869 891 989 1011> 100 80<29 51 149 171 989 1011 1109 1131> 200 80<29 51 149 171 989 1011 1109 1131> 300 80<149 171 269 291 389 411 509 531 629 651 749 771 869 891 989 1011> 400 80<269 291 389 411> 500 80<389 411 509 531> 600 80<509 531 629 651>
LayerCount: 2
Fore
SplineSet
960 40 m 0
 960 62 978 80 1000 80 c 0
 1022 80 1040 62 1040 40 c 0
 1040 18 1022 0 1000 0 c 0
 978 0 960 18 960 40 c 0
840 40 m 0
 840 62 858 80 880 80 c 0
 902 80 920 62 920 40 c 0
 920 18 902 0 880 0 c 0
 858 0 840 18 840 40 c 0
720 40 m 0
 720 62 738 80 760 80 c 0
 782 80 800 62 800 40 c 0
 800 18 782 0 760 0 c 0
 738 0 720 18 720 40 c 0
600 40 m 0
 600 62 618 80 640 80 c 0
 662 80 680 62 680 40 c 0
 680 18 662 0 640 0 c 0
 618 0 600 18 600 40 c 0
480 40 m 0
 480 62 498 80 520 80 c 0
 542 80 560 62 560 40 c 0
 560 18 542 0 520 0 c 0
 498 0 480 18 480 40 c 0
360 40 m 0
 360 62 378 80 400 80 c 0
 422 80 440 62 440 40 c 0
 440 18 422 0 400 0 c 0
 378 0 360 18 360 40 c 0
240 40 m 0
 240 62 258 80 280 80 c 0
 302 80 320 62 320 40 c 0
 320 18 302 0 280 0 c 0
 258 0 240 18 240 40 c 0
120 40 m 0
 120 62 138 80 160 80 c 0
 182 80 200 62 200 40 c 0
 200 18 182 0 160 0 c 0
 138 0 120 18 120 40 c 0
1080 140 m 0
 1080 162 1098 180 1120 180 c 0
 1142 180 1160 162 1160 140 c 0
 1160 118 1142 100 1120 100 c 0
 1098 100 1080 118 1080 140 c 0
960 140 m 0
 960 162 978 180 1000 180 c 0
 1022 180 1040 162 1040 140 c 0
 1040 118 1022 100 1000 100 c 0
 978 100 960 118 960 140 c 0
120 140 m 0
 120 162 138 180 160 180 c 0
 182 180 200 162 200 140 c 0
 200 118 182 100 160 100 c 0
 138 100 120 118 120 140 c 0
0 140 m 0
 0 162 18 180 40 180 c 0
 62 180 80 162 80 140 c 0
 80 118 62 100 40 100 c 0
 18 100 0 118 0 140 c 0
1080 240 m 0
 1080 262 1098 280 1120 280 c 0
 1142 280 1160 262 1160 240 c 0
 1160 218 1142 200 1120 200 c 0
 1098 200 1080 218 1080 240 c 0
960 240 m 0
 960 262 978 280 1000 280 c 0
 1022 280 1040 262 1040 240 c 0
 1040 218 1022 200 1000 200 c 0
 978 200 960 218 960 240 c 0
120 240 m 0
 120 262 138 280 160 280 c 0
 182 280 200 262 200 240 c 0
 200 218 182 200 160 200 c 0
 138 200 120 218 120 240 c 0
0 240 m 0
 0 262 18 280 40 280 c 0
 62 280 80 262 80 240 c 0
 80 218 62 200 40 200 c 0
 18 200 0 218 0 240 c 0
960 340 m 0
 960 362 978 380 1000 380 c 0
 1022 380 1040 362 1040 340 c 0
 1040 318 1022 300 1000 300 c 0
 978 300 960 318 960 340 c 0
840 340 m 0
 840 362 858 380 880 380 c 0
 902 380 920 362 920 340 c 0
 920 318 902 300 880 300 c 0
 858 300 840 318 840 340 c 0
720 340 m 0
 720 362 738 380 760 380 c 0
 782 380 800 362 800 340 c 0
 800 318 782 300 760 300 c 0
 738 300 720 318 720 340 c 0
600 340 m 0
 600 362 618 380 640 380 c 0
 662 380 680 362 680 340 c 0
 680 318 662 300 640 300 c 0
 618 300 600 318 600 340 c 0
480 340 m 0
 480 362 498 380 520 380 c 0
 542 380 560 362 560 340 c 0
 560 318 542 300 520 300 c 0
 498 300 480 318 480 340 c 0
360 340 m 0
 360 362 378 380 400 380 c 0
 422 380 440 362 440 340 c 0
 440 318 422 300 400 300 c 0
 378 300 360 318 360 340 c 0
240 340 m 0
 240 362 258 380 280 380 c 0
 302 380 320 362 320 340 c 0
 320 318 302 300 280 300 c 0
 258 300 240 318 240 340 c 0
120 340 m 0
 120 362 138 380 160 380 c 0
 182 380 200 362 200 340 c 0
 200 318 182 300 160 300 c 0
 138 300 120 318 120 340 c 0
360 440 m 0
 360 462 378 480 400 480 c 0
 422 480 440 462 440 440 c 0
 440 418 422 400 400 400 c 0
 378 400 360 418 360 440 c 0
240 440 m 0
 240 462 258 480 280 480 c 0
 302 480 320 462 320 440 c 0
 320 418 302 400 280 400 c 0
 258 400 240 418 240 440 c 0
480 540 m 0
 480 562 498 580 520 580 c 0
 542 580 560 562 560 540 c 0
 560 518 542 500 520 500 c 0
 498 500 480 518 480 540 c 0
360 540 m 0
 360 562 378 580 400 580 c 0
 422 580 440 562 440 540 c 0
 440 518 422 500 400 500 c 0
 378 500 360 518 360 540 c 0
600 640 m 0
 600 662 618 680 640 680 c 0
 662 680 680 662 680 640 c 0
 680 618 662 600 640 600 c 0
 618 600 600 618 600 640 c 0
480 640 m 0
 480 662 498 680 520 680 c 0
 542 680 560 662 560 640 c 0
 560 618 542 600 520 600 c 0
 498 600 480 618 480 640 c 0
EndSplineSet
EndChar

StartChar: seven
Encoding: 55 55 24
Width: 1440
GlyphClass: 2
Flags: MW
HStem: 0 80<269 291 389 411> 100 80<389 411 509 531> 200 80<509 531 629 651> 300 80<629 651 749 771> 400 80<749 771 869 891> 500 80<869 891 989 1011> 600 80<29 51 149 171 269 291 389 411 509 531 629 651 749 771 869 891 989 1011 1109 1131>
LayerCount: 2
Fore
SplineSet
360 40 m 0
 360 62 378 80 400 80 c 0
 422 80 440 62 440 40 c 0
 440 18 422 0 400 0 c 0
 378 0 360 18 360 40 c 0
240 40 m 0
 240 62 258 80 280 80 c 0
 302 80 320 62 320 40 c 0
 320 18 302 0 280 0 c 0
 258 0 240 18 240 40 c 0
480 140 m 0
 480 162 498 180 520 180 c 0
 542 180 560 162 560 140 c 0
 560 118 542 100 520 100 c 0
 498 100 480 118 480 140 c 0
360 140 m 0
 360 162 378 180 400 180 c 0
 422 180 440 162 440 140 c 0
 440 118 422 100 400 100 c 0
 378 100 360 118 360 140 c 0
600 240 m 0
 600 262 618 280 640 280 c 0
 662 280 680 262 680 240 c 0
 680 218 662 200 640 200 c 0
 618 200 600 218 600 240 c 0
480 240 m 0
 480 262 498 280 520 280 c 0
 542 280 560 262 560 240 c 0
 560 218 542 200 520 200 c 0
 498 200 480 218 480 240 c 0
720 340 m 0
 720 362 738 380 760 380 c 0
 782 380 800 362 800 340 c 0
 800 318 782 300 760 300 c 0
 738 300 720 318 720 340 c 0
600 340 m 0
 600 362 618 380 640 380 c 0
 662 380 680 362 680 340 c 0
 680 318 662 300 640 300 c 0
 618 300 600 318 600 340 c 0
840 440 m 0
 840 462 858 480 880 480 c 0
 902 480 920 462 920 440 c 0
 920 418 902 400 880 400 c 0
 858 400 840 418 840 440 c 0
720 440 m 0
 720 462 738 480 760 480 c 0
 782 480 800 462 800 440 c 0
 800 418 782 400 760 400 c 0
 738 400 720 418 720 440 c 0
960 540 m 0
 960 562 978 580 1000 580 c 0
 1022 580 1040 562 1040 540 c 0
 1040 518 1022 500 1000 500 c 0
 978 500 960 518 960 540 c 0
840 540 m 0
 840 562 858 580 880 580 c 0
 902 580 920 562 920 540 c 0
 920 518 902 500 880 500 c 0
 858 500 840 518 840 540 c 0
1080 640 m 0
 1080 662 1098 680 1120 680 c 0
 1142 680 1160 662 1160 640 c 0
 1160 618 1142 600 1120 600 c 0
 1098 600 1080 618 1080 640 c 0
960 640 m 0
 960 662 978 680 1000 680 c 0
 1022 680 1040 662 1040 640 c 0
 1040 618 1022 600 1000 600 c 0
 978 600 960 618 960 640 c 0
840 640 m 0
 840 662 858 680 880 680 c 0
 902 680 920 662 920 640 c 0
 920 618 902 600 880 600 c 0
 858 600 840 618 840 640 c 0
720 640 m 0
 720 662 738 680 760 680 c 0
 782 680 800 662 800 640 c 0
 800 618 782 600 760 600 c 0
 738 600 720 618 720 640 c 0
600 640 m 0
 600 662 618 680 640 680 c 0
 662 680 680 662 680 640 c 0
 680 618 662 600 640 600 c 0
 618 600 600 618 600 640 c 0
480 640 m 0
 480 662 498 680 520 680 c 0
 542 680 560 662 560 640 c 0
 560 618 542 600 520 600 c 0
 498 600 480 618 480 640 c 0
360 640 m 0
 360 662 378 680 400 680 c 0
 422 680 440 662 440 640 c 0
 440 618 422 600 400 600 c 0
 378 600 360 618 360 640 c 0
240 640 m 0
 240 662 258 680 280 680 c 0
 302 680 320 662 320 640 c 0
 320 618 302 600 280 600 c 0
 258 600 240 618 240 640 c 0
120 640 m 0
 120 662 138 680 160 680 c 0
 182 680 200 662 200 640 c 0
 200 618 182 600 160 600 c 0
 138 600 120 618 120 640 c 0
0 640 m 0
 0 662 18 680 40 680 c 0
 62 680 80 662 80 640 c 0
 80 618 62 600 40 600 c 0
 18 600 0 618 0 640 c 0
EndSplineSet
EndChar

StartChar: eight
Encoding: 56 56 25
Width: 1440
GlyphClass: 2
Flags: MW
HStem: 0 80<149 171 269 291 389 411 509 531 629 651 749 771 869 891 989 1011> 100 80<29 51 149 171 989 1011 1109 1131> 200 80<29 51 149 171 989 1011 1109 1131> 300 80<149 171 269 291 389 411 509 531 629 651 749 771 869 891 989 1011> 400 80<29 51 149 171 989 1011 1109 1131> 500 80<29 51 149 171 989 1011 1109 1131> 600 80<149 171 269 291 389 411 509 531 629 651 749 771 869 891 989 1011>
LayerCount: 2
Fore
SplineSet
960 40 m 0
 960 62 978 80 1000 80 c 0
 1022 80 1040 62 1040 40 c 0
 1040 18 1022 0 1000 0 c 0
 978 0 960 18 960 40 c 0
840 40 m 0
 840 62 858 80 880 80 c 0
 902 80 920 62 920 40 c 0
 920 18 902 0 880 0 c 0
 858 0 840 18 840 40 c 0
720 40 m 0
 720 62 738 80 760 80 c 0
 782 80 800 62 800 40 c 0
 800 18 782 0 760 0 c 0
 738 0 720 18 720 40 c 0
600 40 m 0
 600 62 618 80 640 80 c 0
 662 80 680 62 680 40 c 0
 680 18 662 0 640 0 c 0
 618 0 600 18 600 40 c 0
480 40 m 0
 480 62 498 80 520 80 c 0
 542 80 560 62 560 40 c 0
 560 18 542 0 520 0 c 0
 498 0 480 18 480 40 c 0
360 40 m 0
 360 62 378 80 400 80 c 0
 422 80 440 62 440 40 c 0
 440 18 422 0 400 0 c 0
 378 0 360 18 360 40 c 0
240 40 m 0
 240 62 258 80 280 80 c 0
 302 80 320 62 320 40 c 0
 320 18 302 0 280 0 c 0
 258 0 240 18 240 40 c 0
120 40 m 0
 120 62 138 80 160 80 c 0
 182 80 200 62 200 40 c 0
 200 18 182 0 160 0 c 0
 138 0 120 18 120 40 c 0
1080 140 m 0
 1080 162 1098 180 1120 180 c 0
 1142 180 1160 162 1160 140 c 0
 1160 118 1142 100 1120 100 c 0
 1098 100 1080 118 1080 140 c 0
960 140 m 0
 960 162 978 180 1000 180 c 0
 1022 180 1040 162 1040 140 c 0
 1040 118 1022 100 1000 100 c 0
 978 100 960 118 960 140 c 0
120 140 m 0
 120 162 138 180 160 180 c 0
 182 180 200 162 200 140 c 0
 200 118 182 100 160 100 c 0
 138 100 120 118 120 140 c 0
0 140 m 0
 0 162 18 180 40 180 c 0
 62 180 80 162 80 140 c 0
 80 118 62 100 40 100 c 0
 18 100 0 118 0 140 c 0
1080 240 m 0
 1080 262 1098 280 1120 280 c 0
 1142 280 1160 262 1160 240 c 0
 1160 218 1142 200 1120 200 c 0
 1098 200 1080 218 1080 240 c 0
960 240 m 0
 960 262 978 280 1000 280 c 0
 1022 280 1040 262 1040 240 c 0
 1040 218 1022 200 1000 200 c 0
 978 200 960 218 960 240 c 0
120 240 m 0
 120 262 138 280 160 280 c 0
 182 280 200 262 200 240 c 0
 200 218 182 200 160 200 c 0
 138 200 120 218 120 240 c 0
0 240 m 0
 0 262 18 280 40 280 c 0
 62 280 80 262 80 240 c 0
 80 218 62 200 40 200 c 0
 18 200 0 218 0 240 c 0
960 340 m 0
 960 362 978 380 1000 380 c 0
 1022 380 1040 362 1040 340 c 0
 1040 318 1022 300 1000 300 c 0
 978 300 960 318 960 340 c 0
840 340 m 0
 840 362 858 380 880 380 c 0
 902 380 920 362 920 340 c 0
 920 318 902 300 880 300 c 0
 858 300 840 318 840 340 c 0
720 340 m 0
 720 362 738 380 760 380 c 0
 782 380 800 362 800 340 c 0
 800 318 782 300 760 300 c 0
 738 300 720 318 720 340 c 0
600 340 m 0
 600 362 618 380 640 380 c 0
 662 380 680 362 680 340 c 0
 680 318 662 300 640 300 c 0
 618 300 600 318 600 340 c 0
480 340 m 0
 480 362 498 380 520 380 c 0
 542 380 560 362 560 340 c 0
 560 318 542 300 520 300 c 0
 498 300 480 318 480 340 c 0
360 340 m 0
 360 362 378 380 400 380 c 0
 422 380 440 362 440 340 c 0
 440 318 422 300 400 300 c 0
 378 300 360 318 360 340 c 0
240 340 m 0
 240 362 258 380 280 380 c 0
 302 380 320 362 320 340 c 0
 320 318 302 300 280 300 c 0
 258 300 240 318 240 340 c 0
120 340 m 0
 120 362 138 380 160 380 c 0
 182 380 200 362 200 340 c 0
 200 318 182 300 160 300 c 0
 138 300 120 318 120 340 c 0
1080 440 m 0
 1080 462 1098 480 1120 480 c 0
 1142 480 1160 462 1160 440 c 0
 1160 418 1142 400 1120 400 c 0
 1098 400 1080 418 1080 440 c 0
960 440 m 0
 960 462 978 480 1000 480 c 0
 1022 480 1040 462 1040 440 c 0
 1040 418 1022 400 1000 400 c 0
 978 400 960 418 960 440 c 0
120 440 m 0
 120 462 138 480 160 480 c 0
 182 480 200 462 200 440 c 0
 200 418 182 400 160 400 c 0
 138 400 120 418 120 440 c 0
0 440 m 0
 0 462 18 480 40 480 c 0
 62 480 80 462 80 440 c 0
 80 418 62 400 40 400 c 0
 18 400 0 418 0 440 c 0
1080 540 m 0
 1080 562 1098 580 1120 580 c 0
 1142 580 1160 562 1160 540 c 0
 1160 518 1142 500 1120 500 c 0
 1098 500 1080 518 1080 540 c 0
960 540 m 0
 960 562 978 580 1000 580 c 0
 1022 580 1040 562 1040 540 c 0
 1040 518 1022 500 1000 500 c 0
 978 500 960 518 960 540 c 0
120 540 m 0
 120 562 138 580 160 580 c 0
 182 580 200 562 200 540 c 0
 200 518 182 500 160 500 c 0
 138 500 120 518 120 540 c 0
0 540 m 0
 0 562 18 580 40 580 c 0
 62 580 80 562 80 540 c 0
 80 518 62 500 40 500 c 0
 18 500 0 518 0 540 c 0
960 640 m 0
 960 662 978 680 1000 680 c 0
 1022 680 1040 662 1040 640 c 0
 1040 618 1022 600 1000 600 c 0
 978 600 960 618 960 640 c 0
840 640 m 0
 840 662 858 680 880 680 c 0
 902 680 920 662 920 640 c 0
 920 618 902 600 880 600 c 0
 858 600 840 618 840 640 c 0
720 640 m 0
 720 662 738 680 760 680 c 0
 782 680 800 662 800 640 c 0
 800 618 782 600 760 600 c 0
 738 600 720 618 720 640 c 0
600 640 m 0
 600 662 618 680 640 680 c 0
 662 680 680 662 680 640 c 0
 680 618 662 600 640 600 c 0
 618 600 600 618 600 640 c 0
480 640 m 0
 480 662 498 680 520 680 c 0
 542 680 560 662 560 640 c 0
 560 618 542 600 520 600 c 0
 498 600 480 618 480 640 c 0
360 640 m 0
 360 662 378 680 400 680 c 0
 422 680 440 662 440 640 c 0
 440 618 422 600 400 600 c 0
 378 600 360 618 360 640 c 0
240 640 m 0
 240 662 258 680 280 680 c 0
 302 680 320 662 320 640 c 0
 320 618 302 600 280 600 c 0
 258 600 240 618 240 640 c 0
120 640 m 0
 120 662 138 680 160 680 c 0
 182 680 200 662 200 640 c 0
 200 618 182 600 160 600 c 0
 138 600 120 618 120 640 c 0
EndSplineSet
EndChar

StartChar: nine
Encoding: 57 57 26
Width: 1440
GlyphClass: 2
Flags: MW
HStem: 0 80<509 531 629 651> 100 80<629 651 749 771> 200 80<749 771 869 891> 300 80<149 171 269 291 389 411 509 531 629 651 749 771 869 891 989 1011> 400 80<29 51 149 171 989 1011 1109 1131> 500 80<29 51 149 171 989 1011 1109 1131> 600 80<149 171 269 291 389 411 509 531 629 651 749 771 869 891 989 1011>
LayerCount: 2
Fore
SplineSet
600 40 m 0
 600 62 618 80 640 80 c 0
 662 80 680 62 680 40 c 0
 680 18 662 0 640 0 c 0
 618 0 600 18 600 40 c 0
480 40 m 0
 480 62 498 80 520 80 c 0
 542 80 560 62 560 40 c 0
 560 18 542 0 520 0 c 0
 498 0 480 18 480 40 c 0
720 140 m 0
 720 162 738 180 760 180 c 0
 782 180 800 162 800 140 c 0
 800 118 782 100 760 100 c 0
 738 100 720 118 720 140 c 0
600 140 m 0
 600 162 618 180 640 180 c 0
 662 180 680 162 680 140 c 0
 680 118 662 100 640 100 c 0
 618 100 600 118 600 140 c 0
840 240 m 0
 840 262 858 280 880 280 c 0
 902 280 920 262 920 240 c 0
 920 218 902 200 880 200 c 0
 858 200 840 218 840 240 c 0
720 240 m 0
 720 262 738 280 760 280 c 0
 782 280 800 262 800 240 c 0
 800 218 782 200 760 200 c 0
 738 200 720 218 720 240 c 0
960 340 m 0
 960 362 978 380 1000 380 c 0
 1022 380 1040 362 1040 340 c 0
 1040 318 1022 300 1000 300 c 0
 978 300 960 318 960 340 c 0
840 340 m 0
 840 362 858 380 880 380 c 0
 902 380 920 362 920 340 c 0
 920 318 902 300 880 300 c 0
 858 300 840 318 840 340 c 0
720 340 m 0
 720 362 738 380 760 380 c 0
 782 380 800 362 800 340 c 0
 800 318 782 300 760 300 c 0
 738 300 720 318 720 340 c 0
600 340 m 0
 600 362 618 380 640 380 c 0
 662 380 680 362 680 340 c 0
 680 318 662 300 640 300 c 0
 618 300 600 318 600 340 c 0
480 340 m 0
 480 362 498 380 520 380 c 0
 542 380 560 362 560 340 c 0
 560 318 542 300 520 300 c 0
 498 300 480 318 480 340 c 0
360 340 m 0
 360 362 378 380 400 380 c 0
 422 380 440 362 440 340 c 0
 440 318 422 300 400 300 c 0
 378 300 360 318 360 340 c 0
240 340 m 0
 240 362 258 380 280 380 c 0
 302 380 320 362 320 340 c 0
 320 318 302 300 280 300 c 0
 258 300 240 318 240 340 c 0
120 340 m 0
 120 362 138 380 160 380 c 0
 182 380 200 362 200 340 c 0
 200 318 182 300 160 300 c 0
 138 300 120 318 120 340 c 0
1080 440 m 0
 1080 462 1098 480 1120 480 c 0
 1142 480 1160 462 1160 440 c 0
 1160 418 1142 400 1120 400 c 0
 1098 400 1080 418 1080 440 c 0
960 440 m 0
 960 462 978 480 1000 480 c 0
 1022 480 1040 462 1040 440 c 0
 1040 418 1022 400 1000 400 c 0
 978 400 960 418 960 440 c 0
120 440 m 0
 120 462 138 480 160 480 c 0
 182 480 200 462 200 440 c 0
 200 418 182 400 160 400 c 0
 138 400 120 418 120 440 c 0
0 440 m 0
 0 462 18 480 40 480 c 0
 62 480 80 462 80 440 c 0
 80 418 62 400 40 400 c 0
 18 400 0 418 0 440 c 0
1080 540 m 0
 1080 562 1098 580 1120 580 c 0
 1142 580 1160 562 1160 540 c 0
 1160 518 1142 500 1120 500 c 0
 1098 500 1080 518 1080 540 c 0
960 540 m 0
 960 562 978 580 1000 580 c 0
 1022 580 1040 562 1040 540 c 0
 1040 518 1022 500 1000 500 c 0
 978 500 960 518 960 540 c 0
120 540 m 0
 120 562 138 580 160 580 c 0
 182 580 200 562 200 540 c 0
 200 518 182 500 160 500 c 0
 138 500 120 518 120 540 c 0
0 540 m 0
 0 562 18 580 40 580 c 0
 62 580 80 562 80 540 c 0
 80 518 62 500 40 500 c 0
 18 500 0 518 0 540 c 0
960 640 m 0
 960 662 978 680 1000 680 c 0
 1022 680 1040 662 1040 640 c 0
 1040 618 1022 600 1000 600 c 0
 978 600 960 618 960 640 c 0
840 640 m 0
 840 662 858 680 880 680 c 0
 902 680 920 662 920 640 c 0
 920 618 902 600 880 600 c 0
 858 600 840 618 840 640 c 0
720 640 m 0
 720 662 738 680 760 680 c 0
 782 680 800 662 800 640 c 0
 800 618 782 600 760 600 c 0
 738 600 720 618 720 640 c 0
600 640 m 0
 600 662 618 680 640 680 c 0
 662 680 680 662 680 640 c 0
 680 618 662 600 640 600 c 0
 618 600 600 618 600 640 c 0
480 640 m 0
 480 662 498 680 520 680 c 0
 542 680 560 662 560 640 c 0
 560 618 542 600 520 600 c 0
 498 600 480 618 480 640 c 0
360 640 m 0
 360 662 378 680 400 680 c 0
 422 680 440 662 440 640 c 0
 440 618 422 600 400 600 c 0
 378 600 360 618 360 640 c 0
240 640 m 0
 240 662 258 680 280 680 c 0
 302 680 320 662 320 640 c 0
 320 618 302 600 280 600 c 0
 258 600 240 618 240 640 c 0
120 640 m 0
 120 662 138 680 160 680 c 0
 182 680 200 662 200 640 c 0
 200 618 182 600 160 600 c 0
 138 600 120 618 120 640 c 0
EndSplineSet
EndChar

StartChar: colon
Encoding: 58 58 27
Width: 1440
GlyphClass: 2
Flags: MW
HStem: 0 80<269 291 389 411 509 531 629 651> 100 80<269 291 389 411 509 531 629 651> 300 80<269 291 389 411 509 531 629 651> 400 80<269 291 389 411 509 531 629 651>
LayerCount: 2
Fore
SplineSet
600 40 m 0
 600 62 618 80 640 80 c 0
 662 80 680 62 680 40 c 0
 680 18 662 0 640 0 c 0
 618 0 600 18 600 40 c 0
480 40 m 0
 480 62 498 80 520 80 c 0
 542 80 560 62 560 40 c 0
 560 18 542 0 520 0 c 0
 498 0 480 18 480 40 c 0
360 40 m 0
 360 62 378 80 400 80 c 0
 422 80 440 62 440 40 c 0
 440 18 422 0 400 0 c 0
 378 0 360 18 360 40 c 0
240 40 m 0
 240 62 258 80 280 80 c 0
 302 80 320 62 320 40 c 0
 320 18 302 0 280 0 c 0
 258 0 240 18 240 40 c 0
600 140 m 0
 600 162 618 180 640 180 c 0
 662 180 680 162 680 140 c 0
 680 118 662 100 640 100 c 0
 618 100 600 118 600 140 c 0
480 140 m 0
 480 162 498 180 520 180 c 0
 542 180 560 162 560 140 c 0
 560 118 542 100 520 100 c 0
 498 100 480 118 480 140 c 0
360 140 m 0
 360 162 378 180 400 180 c 0
 422 180 440 162 440 140 c 0
 440 118 422 100 400 100 c 0
 378 100 360 118 360 140 c 0
240 140 m 0
 240 162 258 180 280 180 c 0
 302 180 320 162 320 140 c 0
 320 118 302 100 280 100 c 0
 258 100 240 118 240 140 c 0
600 340 m 0
 600 362 618 380 640 380 c 0
 662 380 680 362 680 340 c 0
 680 318 662 300 640 300 c 0
 618 300 600 318 600 340 c 0
480 340 m 0
 480 362 498 380 520 380 c 0
 542 380 560 362 560 340 c 0
 560 318 542 300 520 300 c 0
 498 300 480 318 480 340 c 0
360 340 m 0
 360 362 378 380 400 380 c 0
 422 380 440 362 440 340 c 0
 440 318 422 300 400 300 c 0
 378 300 360 318 360 340 c 0
240 340 m 0
 240 362 258 380 280 380 c 0
 302 380 320 362 320 340 c 0
 320 318 302 300 280 300 c 0
 258 300 240 318 240 340 c 0
600 440 m 0
 600 462 618 480 640 480 c 0
 662 480 680 462 680 440 c 0
 680 418 662 400 640 400 c 0
 618 400 600 418 600 440 c 0
480 440 m 0
 480 462 498 480 520 480 c 0
 542 480 560 462 560 440 c 0
 560 418 542 400 520 400 c 0
 498 400 480 418 480 440 c 0
360 440 m 0
 360 462 378 480 400 480 c 0
 422 480 440 462 440 440 c 0
 440 418 422 400 400 400 c 0
 378 400 360 418 360 440 c 0
240 440 m 0
 240 462 258 480 280 480 c 0
 302 480 320 462 320 440 c 0
 320 418 302 400 280 400 c 0
 258 400 240 418 240 440 c 0
EndSplineSet
EndChar

StartChar: semicolon
Encoding: 59 59 28
Width: 1440
GlyphClass: 2
Flags: MW
HStem: -200 80<269 291 389 411> -100 80<509 531 629 651> 0 80<269 291 389 411 509 531 629 651> 100 80<269 291 389 411 509 531 629 651> 300 80<269 291 389 411 509 531 629 651> 400 80<269 291 389 411 509 531 629 651>
LayerCount: 2
Fore
SplineSet
360 -160 m 0
 360 -138 378 -120 400 -120 c 0
 422 -120 440 -138 440 -160 c 0
 440 -182 422 -200 400 -200 c 0
 378 -200 360 -182 360 -160 c 0
240 -160 m 0
 240 -138 258 -120 280 -120 c 0
 302 -120 320 -138 320 -160 c 0
 320 -182 302 -200 280 -200 c 0
 258 -200 240 -182 240 -160 c 0
600 -60 m 0
 600 -38 618 -20 640 -20 c 0
 662 -20 680 -38 680 -60 c 0
 680 -82 662 -100 640 -100 c 0
 618 -100 600 -82 600 -60 c 0
480 -60 m 0
 480 -38 498 -20 520 -20 c 0
 542 -20 560 -38 560 -60 c 0
 560 -82 542 -100 520 -100 c 0
 498 -100 480 -82 480 -60 c 0
600 40 m 0
 600 62 618 80 640 80 c 0
 662 80 680 62 680 40 c 0
 680 18 662 0 640 0 c 0
 618 0 600 18 600 40 c 0
480 40 m 0
 480 62 498 80 520 80 c 0
 542 80 560 62 560 40 c 0
 560 18 542 0 520 0 c 0
 498 0 480 18 480 40 c 0
360 40 m 0
 360 62 378 80 400 80 c 0
 422 80 440 62 440 40 c 0
 440 18 422 0 400 0 c 0
 378 0 360 18 360 40 c 0
240 40 m 0
 240 62 258 80 280 80 c 0
 302 80 320 62 320 40 c 0
 320 18 302 0 280 0 c 0
 258 0 240 18 240 40 c 0
600 140 m 0
 600 162 618 180 640 180 c 0
 662 180 680 162 680 140 c 0
 680 118 662 100 640 100 c 0
 618 100 600 118 600 140 c 0
480 140 m 0
 480 162 498 180 520 180 c 0
 542 180 560 162 560 140 c 0
 560 118 542 100 520 100 c 0
 498 100 480 118 480 140 c 0
360 140 m 0
 360 162 378 180 400 180 c 0
 422 180 440 162 440 140 c 0
 440 118 422 100 400 100 c 0
 378 100 360 118 360 140 c 0
240 140 m 0
 240 162 258 180 280 180 c 0
 302 180 320 162 320 140 c 0
 320 118 302 100 280 100 c 0
 258 100 240 118 240 140 c 0
600 340 m 0
 600 362 618 380 640 380 c 0
 662 380 680 362 680 340 c 0
 680 318 662 300 640 300 c 0
 618 300 600 318 600 340 c 0
480 340 m 0
 480 362 498 380 520 380 c 0
 542 380 560 362 560 340 c 0
 560 318 542 300 520 300 c 0
 498 300 480 318 480 340 c 0
360 340 m 0
 360 362 378 380 400 380 c 0
 422 380 440 362 440 340 c 0
 440 318 422 300 400 300 c 0
 378 300 360 318 360 340 c 0
240 340 m 0
 240 362 258 380 280 380 c 0
 302 380 320 362 320 340 c 0
 320 318 302 300 280 300 c 0
 258 300 240 318 240 340 c 0
600 440 m 0
 600 462 618 480 640 480 c 0
 662 480 680 462 680 440 c 0
 680 418 662 400 640 400 c 0
 618 400 600 418 600 440 c 0
480 440 m 0
 480 462 498 480 520 480 c 0
 542 480 560 462 560 440 c 0
 560 418 542 400 520 400 c 0
 498 400 480 418 480 440 c 0
360 440 m 0
 360 462 378 480 400 480 c 0
 422 480 440 462 440 440 c 0
 440 418 422 400 400 400 c 0
 378 400 360 418 360 440 c 0
240 440 m 0
 240 462 258 480 280 480 c 0
 302 480 320 462 320 440 c 0
 320 418 302 400 280 400 c 0
 258 400 240 418 240 440 c 0
EndSplineSet
EndChar

StartChar: less
Encoding: 60 60 29
Width: 1440
GlyphClass: 2
Flags: MW
HStem: 0 80<749 771 869 891> 100 80<509 531 629 651> 200 80<269 291 389 411> 300 80<29 51 149 171> 400 80<269 291 389 411> 500 80<509 531 629 651> 600 80<749 771 869 891>
LayerCount: 2
Fore
SplineSet
840 40 m 0
 840 62 858 80 880 80 c 0
 902 80 920 62 920 40 c 0
 920 18 902 0 880 0 c 0
 858 0 840 18 840 40 c 0
720 40 m 0
 720 62 738 80 760 80 c 0
 782 80 800 62 800 40 c 0
 800 18 782 0 760 0 c 0
 738 0 720 18 720 40 c 0
600 140 m 0
 600 162 618 180 640 180 c 0
 662 180 680 162 680 140 c 0
 680 118 662 100 640 100 c 0
 618 100 600 118 600 140 c 0
480 140 m 0
 480 162 498 180 520 180 c 0
 542 180 560 162 560 140 c 0
 560 118 542 100 520 100 c 0
 498 100 480 118 480 140 c 0
360 240 m 0
 360 262 378 280 400 280 c 0
 422 280 440 262 440 240 c 0
 440 218 422 200 400 200 c 0
 378 200 360 218 360 240 c 0
240 240 m 0
 240 262 258 280 280 280 c 0
 302 280 320 262 320 240 c 0
 320 218 302 200 280 200 c 0
 258 200 240 218 240 240 c 0
120 340 m 0
 120 362 138 380 160 380 c 0
 182 380 200 362 200 340 c 0
 200 318 182 300 160 300 c 0
 138 300 120 318 120 340 c 0
0 340 m 0
 0 362 18 380 40 380 c 0
 62 380 80 362 80 340 c 0
 80 318 62 300 40 300 c 0
 18 300 0 318 0 340 c 0
360 440 m 0
 360 462 378 480 400 480 c 0
 422 480 440 462 440 440 c 0
 440 418 422 400 400 400 c 0
 378 400 360 418 360 440 c 0
240 440 m 0
 240 462 258 480 280 480 c 0
 302 480 320 462 320 440 c 0
 320 418 302 400 280 400 c 0
 258 400 240 418 240 440 c 0
600 540 m 0
 600 562 618 580 640 580 c 0
 662 580 680 562 680 540 c 0
 680 518 662 500 640 500 c 0
 618 500 600 518 600 540 c 0
480 540 m 0
 480 562 498 580 520 580 c 0
 542 580 560 562 560 540 c 0
 560 518 542 500 520 500 c 0
 498 500 480 518 480 540 c 0
840 640 m 0
 840 662 858 680 880 680 c 0
 902 680 920 662 920 640 c 0
 920 618 902 600 880 600 c 0
 858 600 840 618 840 640 c 0
720 640 m 0
 720 662 738 680 760 680 c 0
 782 680 800 662 800 640 c 0
 800 618 782 600 760 600 c 0
 738 600 720 618 720 640 c 0
EndSplineSet
EndChar

StartChar: equal
Encoding: 61 61 30
Width: 1440
GlyphClass: 2
Flags: MW
HStem: 200 80<29 51 149 171 269 291 389 411 509 531 629 651 749 771 869 891 989 1011 1109 1131> 400 80<29 51 149 171 269 291 389 411 509 531 629 651 749 771 869 891 989 1011 1109 1131>
LayerCount: 2
Fore
SplineSet
1080 240 m 0
 1080 262 1098 280 1120 280 c 0
 1142 280 1160 262 1160 240 c 0
 1160 218 1142 200 1120 200 c 0
 1098 200 1080 218 1080 240 c 0
960 240 m 0
 960 262 978 280 1000 280 c 0
 1022 280 1040 262 1040 240 c 0
 1040 218 1022 200 1000 200 c 0
 978 200 960 218 960 240 c 0
840 240 m 0
 840 262 858 280 880 280 c 0
 902 280 920 262 920 240 c 0
 920 218 902 200 880 200 c 0
 858 200 840 218 840 240 c 0
720 240 m 0
 720 262 738 280 760 280 c 0
 782 280 800 262 800 240 c 0
 800 218 782 200 760 200 c 0
 738 200 720 218 720 240 c 0
600 240 m 0
 600 262 618 280 640 280 c 0
 662 280 680 262 680 240 c 0
 680 218 662 200 640 200 c 0
 618 200 600 218 600 240 c 0
480 240 m 0
 480 262 498 280 520 280 c 0
 542 280 560 262 560 240 c 0
 560 218 542 200 520 200 c 0
 498 200 480 218 480 240 c 0
360 240 m 0
 360 262 378 280 400 280 c 0
 422 280 440 262 440 240 c 0
 440 218 422 200 400 200 c 0
 378 200 360 218 360 240 c 0
240 240 m 0
 240 262 258 280 280 280 c 0
 302 280 320 262 320 240 c 0
 320 218 302 200 280 200 c 0
 258 200 240 218 240 240 c 0
120 240 m 0
 120 262 138 280 160 280 c 0
 182 280 200 262 200 240 c 0
 200 218 182 200 160 200 c 0
 138 200 120 218 120 240 c 0
0 240 m 0
 0 262 18 280 40 280 c 0
 62 280 80 262 80 240 c 0
 80 218 62 200 40 200 c 0
 18 200 0 218 0 240 c 0
1080 440 m 0
 1080 462 1098 480 1120 480 c 0
 1142 480 1160 462 1160 440 c 0
 1160 418 1142 400 1120 400 c 0
 1098 400 1080 418 1080 440 c 0
960 440 m 0
 960 462 978 480 1000 480 c 0
 1022 480 1040 462 1040 440 c 0
 1040 418 1022 400 1000 400 c 0
 978 400 960 418 960 440 c 0
840 440 m 0
 840 462 858 480 880 480 c 0
 902 480 920 462 920 440 c 0
 920 418 902 400 880 400 c 0
 858 400 840 418 840 440 c 0
720 440 m 0
 720 462 738 480 760 480 c 0
 782 480 800 462 800 440 c 0
 800 418 782 400 760 400 c 0
 738 400 720 418 720 440 c 0
600 440 m 0
 600 462 618 480 640 480 c 0
 662 480 680 462 680 440 c 0
 680 418 662 400 640 400 c 0
 618 400 600 418 600 440 c 0
480 440 m 0
 480 462 498 480 520 480 c 0
 542 480 560 462 560 440 c 0
 560 418 542 400 520 400 c 0
 498 400 480 418 480 440 c 0
360 440 m 0
 360 462 378 480 400 480 c 0
 422 480 440 462 440 440 c 0
 440 418 422 400 400 400 c 0
 378 400 360 418 360 440 c 0
240 440 m 0
 240 462 258 480 280 480 c 0
 302 480 320 462 320 440 c 0
 320 418 302 400 280 400 c 0
 258 400 240 418 240 440 c 0
120 440 m 0
 120 462 138 480 160 480 c 0
 182 480 200 462 200 440 c 0
 200 418 182 400 160 400 c 0
 138 400 120 418 120 440 c 0
0 440 m 0
 0 462 18 480 40 480 c 0
 62 480 80 462 80 440 c 0
 80 418 62 400 40 400 c 0
 18 400 0 418 0 440 c 0
EndSplineSet
EndChar

StartChar: greater
Encoding: 62 62 31
Width: 1440
GlyphClass: 2
Flags: MW
HStem: 0 80<269 291 389 411> 100 80<509 531 629 651> 200 80<749 771 869 891> 300 80<989 1011 1109 1131> 400 80<749 771 869 891> 500 80<509 531 629 651> 600 80<269 291 389 411>
LayerCount: 2
Fore
SplineSet
360 40 m 0
 360 62 378 80 400 80 c 0
 422 80 440 62 440 40 c 0
 440 18 422 0 400 0 c 0
 378 0 360 18 360 40 c 0
240 40 m 0
 240 62 258 80 280 80 c 0
 302 80 320 62 320 40 c 0
 320 18 302 0 280 0 c 0
 258 0 240 18 240 40 c 0
600 140 m 0
 600 162 618 180 640 180 c 0
 662 180 680 162 680 140 c 0
 680 118 662 100 640 100 c 0
 618 100 600 118 600 140 c 0
480 140 m 0
 480 162 498 180 520 180 c 0
 542 180 560 162 560 140 c 0
 560 118 542 100 520 100 c 0
 498 100 480 118 480 140 c 0
840 240 m 0
 840 262 858 280 880 280 c 0
 902 280 920 262 920 240 c 0
 920 218 902 200 880 200 c 0
 858 200 840 218 840 240 c 0
720 240 m 0
 720 262 738 280 760 280 c 0
 782 280 800 262 800 240 c 0
 800 218 782 200 760 200 c 0
 738 200 720 218 720 240 c 0
1080 340 m 0
 1080 362 1098 380 1120 380 c 0
 1142 380 1160 362 1160 340 c 0
 1160 318 1142 300 1120 300 c 0
 1098 300 1080 318 1080 340 c 0
960 340 m 0
 960 362 978 380 1000 380 c 0
 1022 380 1040 362 1040 340 c 0
 1040 318 1022 300 1000 300 c 0
 978 300 960 318 960 340 c 0
840 440 m 0
 840 462 858 480 880 480 c 0
 902 480 920 462 920 440 c 0
 920 418 902 400 880 400 c 0
 858 400 840 418 840 440 c 0
720 440 m 0
 720 462 738 480 760 480 c 0
 782 480 800 462 800 440 c 0
 800 418 782 400 760 400 c 0
 738 400 720 418 720 440 c 0
600 540 m 0
 600 562 618 580 640 580 c 0
 662 580 680 562 680 540 c 0
 680 518 662 500 640 500 c 0
 618 500 600 518 600 540 c 0
480 540 m 0
 480 562 498 580 520 580 c 0
 542 580 560 562 560 540 c 0
 560 518 542 500 520 500 c 0
 498 500 480 518 480 540 c 0
360 640 m 0
 360 662 378 680 400 680 c 0
 422 680 440 662 440 640 c 0
 440 618 422 600 400 600 c 0
 378 600 360 618 360 640 c 0
240 640 m 0
 240 662 258 680 280 680 c 0
 302 680 320 662 320 640 c 0
 320 618 302 600 280 600 c 0
 258 600 240 618 240 640 c 0
EndSplineSet
EndChar

StartChar: question
Encoding: 63 63 32
Width: 1440
GlyphClass: 2
Flags: MW
HStem: 0 80<509 531 629 651> 200 80<509 531 629 651> 300 80<749 771 869 891> 400 80<989 1011 1109 1131> 500 80<29 51 149 171 989 1011 1109 1131> 600 80<149 171 269 291 389 411 509 531 629 651 749 771 869 891 989 1011>
LayerCount: 2
Fore
SplineSet
600 40 m 0
 600 62 618 80 640 80 c 0
 662 80 680 62 680 40 c 0
 680 18 662 0 640 0 c 0
 618 0 600 18 600 40 c 0
480 40 m 0
 480 62 498 80 520 80 c 0
 542 80 560 62 560 40 c 0
 560 18 542 0 520 0 c 0
 498 0 480 18 480 40 c 0
600 240 m 0
 600 262 618 280 640 280 c 0
 662 280 680 262 680 240 c 0
 680 218 662 200 640 200 c 0
 618 200 600 218 600 240 c 0
480 240 m 0
 480 262 498 280 520 280 c 0
 542 280 560 262 560 240 c 0
 560 218 542 200 520 200 c 0
 498 200 480 218 480 240 c 0
840 340 m 0
 840 362 858 380 880 380 c 0
 902 380 920 362 920 340 c 0
 920 318 902 300 880 300 c 0
 858 300 840 318 840 340 c 0
720 340 m 0
 720 362 738 380 760 380 c 0
 782 380 800 362 800 340 c 0
 800 318 782 300 760 300 c 0
 738 300 720 318 720 340 c 0
1080 440 m 0
 1080 462 1098 480 1120 480 c 0
 1142 480 1160 462 1160 440 c 0
 1160 418 1142 400 1120 400 c 0
 1098 400 1080 418 1080 440 c 0
960 440 m 0
 960 462 978 480 1000 480 c 0
 1022 480 1040 462 1040 440 c 0
 1040 418 1022 400 1000 400 c 0
 978 400 960 418 960 440 c 0
1080 540 m 0
 1080 562 1098 580 1120 580 c 0
 1142 580 1160 562 1160 540 c 0
 1160 518 1142 500 1120 500 c 0
 1098 500 1080 518 1080 540 c 0
960 540 m 0
 960 562 978 580 1000 580 c 0
 1022 580 1040 562 1040 540 c 0
 1040 518 1022 500 1000 500 c 0
 978 500 960 518 960 540 c 0
120 540 m 0
 120 562 138 580 160 580 c 0
 182 580 200 562 200 540 c 0
 200 518 182 500 160 500 c 0
 138 500 120 518 120 540 c 0
0 540 m 0
 0 562 18 580 40 580 c 0
 62 580 80 562 80 540 c 0
 80 518 62 500 40 500 c 0
 18 500 0 518 0 540 c 0
960 640 m 0
 960 662 978 680 1000 680 c 0
 1022 680 1040 662 1040 640 c 0
 1040 618 1022 600 1000 600 c 0
 978 600 960 618 960 640 c 0
840 640 m 0
 840 662 858 680 880 680 c 0
 902 680 920 662 920 640 c 0
 920 618 902 600 880 600 c 0
 858 600 840 618 840 640 c 0
720 640 m 0
 720 662 738 680 760 680 c 0
 782 680 800 662 800 640 c 0
 800 618 782 600 760 600 c 0
 738 600 720 618 720 640 c 0
600 640 m 0
 600 662 618 680 640 680 c 0
 662 680 680 662 680 640 c 0
 680 618 662 600 640 600 c 0
 618 600 600 618 600 640 c 0
480 640 m 0
 480 662 498 680 520 680 c 0
 542 680 560 662 560 640 c 0
 560 618 542 600 520 600 c 0
 498 600 480 618 480 640 c 0
360 640 m 0
 360 662 378 680 400 680 c 0
 422 680 440 662 440 640 c 0
 440 618 422 600 400 600 c 0
 378 600 360 618 360 640 c 0
240 640 m 0
 240 662 258 680 280 680 c 0
 302 680 320 662 320 640 c 0
 320 618 302 600 280 600 c 0
 258 600 240 618 240 640 c 0
120 640 m 0
 120 662 138 680 160 680 c 0
 182 680 200 662 200 640 c 0
 200 618 182 600 160 600 c 0
 138 600 120 618 120 640 c 0
EndSplineSet
EndChar

StartChar: at
Encoding: 64 64 33
Width: 1440
GlyphClass: 2
Flags: MW
HStem: 0 80<269 291 389 411 509 531 629 651 749 771 869 891 989 1011 1109 1131> 100 80<29 51 149 171> 200 80<29 51 149 171 509 531 629 651 749 771 869 891 989 1011 1109 1131> 300 80<29 51 149 171 389 411 509 531 989 1011 1109 1131> 400 80<29 51 149 171 509 531 629 651 749 771 869 891 989 1011 1109 1131> 500 80<29 51 149 171 989 1011 1109 1131> 600 80<269 291 389 411 509 531 629 651 749 771 869 891>
LayerCount: 2
Fore
SplineSet
1080 40 m 0
 1080 62 1098 80 1120 80 c 0
 1142 80 1160 62 1160 40 c 0
 1160 18 1142 0 1120 0 c 0
 1098 0 1080 18 1080 40 c 0
960 40 m 0
 960 62 978 80 1000 80 c 0
 1022 80 1040 62 1040 40 c 0
 1040 18 1022 0 1000 0 c 0
 978 0 960 18 960 40 c 0
840 40 m 0
 840 62 858 80 880 80 c 0
 902 80 920 62 920 40 c 0
 920 18 902 0 880 0 c 0
 858 0 840 18 840 40 c 0
720 40 m 0
 720 62 738 80 760 80 c 0
 782 80 800 62 800 40 c 0
 800 18 782 0 760 0 c 0
 738 0 720 18 720 40 c 0
600 40 m 0
 600 62 618 80 640 80 c 0
 662 80 680 62 680 40 c 0
 680 18 662 0 640 0 c 0
 618 0 600 18 600 40 c 0
480 40 m 0
 480 62 498 80 520 80 c 0
 542 80 560 62 560 40 c 0
 560 18 542 0 520 0 c 0
 498 0 480 18 480 40 c 0
360 40 m 0
 360 62 378 80 400 80 c 0
 422 80 440 62 440 40 c 0
 440 18 422 0 400 0 c 0
 378 0 360 18 360 40 c 0
240 40 m 0
 240 62 258 80 280 80 c 0
 302 80 320 62 320 40 c 0
 320 18 302 0 280 0 c 0
 258 0 240 18 240 40 c 0
120 140 m 0
 120 162 138 180 160 180 c 0
 182 180 200 162 200 140 c 0
 200 118 182 100 160 100 c 0
 138 100 120 118 120 140 c 0
0 140 m 0
 0 162 18 180 40 180 c 0
 62 180 80 162 80 140 c 0
 80 118 62 100 40 100 c 0
 18 100 0 118 0 140 c 0
1080 240 m 0
 1080 262 1098 280 1120 280 c 0
 1142 280 1160 262 1160 240 c 0
 1160 218 1142 200 1120 200 c 0
 1098 200 1080 218 1080 240 c 0
960 240 m 0
 960 262 978 280 1000 280 c 0
 1022 280 1040 262 1040 240 c 0
 1040 218 1022 200 1000 200 c 0
 978 200 960 218 960 240 c 0
840 240 m 0
 840 262 858 280 880 280 c 0
 902 280 920 262 920 240 c 0
 920 218 902 200 880 200 c 0
 858 200 840 218 840 240 c 0
720 240 m 0
 720 262 738 280 760 280 c 0
 782 280 800 262 800 240 c 0
 800 218 782 200 760 200 c 0
 738 200 720 218 720 240 c 0
600 240 m 0
 600 262 618 280 640 280 c 0
 662 280 680 262 680 240 c 0
 680 218 662 200 640 200 c 0
 618 200 600 218 600 240 c 0
480 240 m 0
 480 262 498 280 520 280 c 0
 542 280 560 262 560 240 c 0
 560 218 542 200 520 200 c 0
 498 200 480 218 480 240 c 0
120 240 m 0
 120 262 138 280 160 280 c 0
 182 280 200 262 200 240 c 0
 200 218 182 200 160 200 c 0
 138 200 120 218 120 240 c 0
0 240 m 0
 0 262 18 280 40 280 c 0
 62 280 80 262 80 240 c 0
 80 218 62 200 40 200 c 0
 18 200 0 218 0 240 c 0
1080 340 m 0
 1080 362 1098 380 1120 380 c 0
 1142 380 1160 362 1160 340 c 0
 1160 318 1142 300 1120 300 c 0
 1098 300 1080 318 1080 340 c 0
960 340 m 0
 960 362 978 380 1000 380 c 0
 1022 380 1040 362 1040 340 c 0
 1040 318 1022 300 1000 300 c 0
 978 300 960 318 960 340 c 0
480 340 m 0
 480 362 498 380 520 380 c 0
 542 380 560 362 560 340 c 0
 560 318 542 300 520 300 c 0
 498 300 480 318 480 340 c 0
360 340 m 0
 360 362 378 380 400 380 c 0
 422 380 440 362 440 340 c 0
 440 318 422 300 400 300 c 0
 378 300 360 318 360 340 c 0
120 340 m 0
 120 362 138 380 160 380 c 0
 182 380 200 362 200 340 c 0
 200 318 182 300 160 300 c 0
 138 300 120 318 120 340 c 0
0 340 m 0
 0 362 18 380 40 380 c 0
 62 380 80 362 80 340 c 0
 80 318 62 300 40 300 c 0
 18 300 0 318 0 340 c 0
1080 440 m 0
 1080 462 1098 480 1120 480 c 0
 1142 480 1160 462 1160 440 c 0
 1160 418 1142 400 1120 400 c 0
 1098 400 1080 418 1080 440 c 0
960 440 m 0
 960 462 978 480 1000 480 c 0
 1022 480 1040 462 1040 440 c 0
 1040 418 1022 400 1000 400 c 0
 978 400 960 418 960 440 c 0
840 440 m 0
 840 462 858 480 880 480 c 0
 902 480 920 462 920 440 c 0
 920 418 902 400 880 400 c 0
 858 400 840 418 840 440 c 0
720 440 m 0
 720 462 738 480 760 480 c 0
 782 480 800 462 800 440 c 0
 800 418 782 400 760 400 c 0
 738 400 720 418 720 440 c 0
600 440 m 0
 600 462 618 480 640 480 c 0
 662 480 680 462 680 440 c 0
 680 418 662 400 640 400 c 0
 618 400 600 418 600 440 c 0
480 440 m 0
 480 462 498 480 520 480 c 0
 542 480 560 462 560 440 c 0
 560 418 542 400 520 400 c 0
 498 400 480 418 480 440 c 0
120 440 m 0
 120 462 138 480 160 480 c 0
 182 480 200 462 200 440 c 0
 200 418 182 400 160 400 c 0
 138 400 120 418 120 440 c 0
0 440 m 0
 0 462 18 480 40 480 c 0
 62 480 80 462 80 440 c 0
 80 418 62 400 40 400 c 0
 18 400 0 418 0 440 c 0
1080 540 m 0
 1080 562 1098 580 1120 580 c 0
 1142 580 1160 562 1160 540 c 0
 1160 518 1142 500 1120 500 c 0
 1098 500 1080 518 1080 540 c 0
960 540 m 0
 960 562 978 580 1000 580 c 0
 1022 580 1040 562 1040 540 c 0
 1040 518 1022 500 1000 500 c 0
 978 500 960 518 960 540 c 0
120 540 m 0
 120 562 138 580 160 580 c 0
 182 580 200 562 200 540 c 0
 200 518 182 500 160 500 c 0
 138 500 120 518 120 540 c 0
0 540 m 0
 0 562 18 580 40 580 c 0
 62 580 80 562 80 540 c 0
 80 518 62 500 40 500 c 0
 18 500 0 518 0 540 c 0
840 640 m 0
 840 662 858 680 880 680 c 0
 902 680 920 662 920 640 c 0
 920 618 902 600 880 600 c 0
 858 600 840 618 840 640 c 0
720 640 m 0
 720 662 738 680 760 680 c 0
 782 680 800 662 800 640 c 0
 800 618 782 600 760 600 c 0
 738 600 720 618 720 640 c 0
600 640 m 0
 600 662 618 680 640 680 c 0
 662 680 680 662 680 640 c 0
 680 618 662 600 640 600 c 0
 618 600 600 618 600 640 c 0
480 640 m 0
 480 662 498 680 520 680 c 0
 542 680 560 662 560 640 c 0
 560 618 542 600 520 600 c 0
 498 600 480 618 480 640 c 0
360 640 m 0
 360 662 378 680 400 680 c 0
 422 680 440 662 440 640 c 0
 440 618 422 600 400 600 c 0
 378 600 360 618 360 640 c 0
240 640 m 0
 240 662 258 680 280 680 c 0
 302 680 320 662 320 640 c 0
 320 618 302 600 280 600 c 0
 258 600 240 618 240 640 c 0
EndSplineSet
EndChar

StartChar: A
Encoding: 65 65 34
Width: 1440
GlyphClass: 2
Flags: MW
HStem: 0 80<29 51 149 171 989 1011 1109 1131> 100 80<29 51 149 171 989 1011 1109 1131> 200 80<29 51 149 171 269 291 389 411 509 531 629 651 749 771 869 891 989 1011 1109 1131> 300 80<29 51 149 171 989 1011 1109 1131> 400 80<149 171 269 291 869 891 989 1011> 500 80<269 291 389 411 749 771 869 891> 600 80<389 411 509 531 629 651 749 771>
LayerCount: 2
Fore
SplineSet
1080 40 m 0
 1080 62 1098 80 1120 80 c 0
 1142 80 1160 62 1160 40 c 0
 1160 18 1142 0 1120 0 c 0
 1098 0 1080 18 1080 40 c 0
960 40 m 0
 960 62 978 80 1000 80 c 0
 1022 80 1040 62 1040 40 c 0
 1040 18 1022 0 1000 0 c 0
 978 0 960 18 960 40 c 0
120 40 m 0
 120 62 138 80 160 80 c 0
 182 80 200 62 200 40 c 0
 200 18 182 0 160 0 c 0
 138 0 120 18 120 40 c 0
0 40 m 0
 0 62 18 80 40 80 c 0
 62 80 80 62 80 40 c 0
 80 18 62 0 40 0 c 0
 18 0 0 18 0 40 c 0
1080 140 m 0
 1080 162 1098 180 1120 180 c 0
 1142 180 1160 162 1160 140 c 0
 1160 118 1142 100 1120 100 c 0
 1098 100 1080 118 1080 140 c 0
960 140 m 0
 960 162 978 180 1000 180 c 0
 1022 180 1040 162 1040 140 c 0
 1040 118 1022 100 1000 100 c 0
 978 100 960 118 960 140 c 0
120 140 m 0
 120 162 138 180 160 180 c 0
 182 180 200 162 200 140 c 0
 200 118 182 100 160 100 c 0
 138 100 120 118 120 140 c 0
0 140 m 0
 0 162 18 180 40 180 c 0
 62 180 80 162 80 140 c 0
 80 118 62 100 40 100 c 0
 18 100 0 118 0 140 c 0
1080 240 m 0
 1080 262 1098 280 1120 280 c 0
 1142 280 1160 262 1160 240 c 0
 1160 218 1142 200 1120 200 c 0
 1098 200 1080 218 1080 240 c 0
960 240 m 0
 960 262 978 280 1000 280 c 0
 1022 280 1040 262 1040 240 c 0
 1040 218 1022 200 1000 200 c 0
 978 200 960 218 960 240 c 0
840 240 m 0
 840 262 858 280 880 280 c 0
 902 280 920 262 920 240 c 0
 920 218 902 200 880 200 c 0
 858 200 840 218 840 240 c 0
720 240 m 0
 720 262 738 280 760 280 c 0
 782 280 800 262 800 240 c 0
 800 218 782 200 760 200 c 0
 738 200 720 218 720 240 c 0
600 240 m 0
 600 262 618 280 640 280 c 0
 662 280 680 262 680 240 c 0
 680 218 662 200 640 200 c 0
 618 200 600 218 600 240 c 0
480 240 m 0
 480 262 498 280 520 280 c 0
 542 280 560 262 560 240 c 0
 560 218 542 200 520 200 c 0
 498 200 480 218 480 240 c 0
360 240 m 0
 360 262 378 280 400 280 c 0
 422 280 440 262 440 240 c 0
 440 218 422 200 400 200 c 0
 378 200 360 218 360 240 c 0
240 240 m 0
 240 262 258 280 280 280 c 0
 302 280 320 262 320 240 c 0
 320 218 302 200 280 200 c 0
 258 200 240 218 240 240 c 0
120 240 m 0
 120 262 138 280 160 280 c 0
 182 280 200 262 200 240 c 0
 200 218 182 200 160 200 c 0
 138 200 120 218 120 240 c 0
0 240 m 0
 0 262 18 280 40 280 c 0
 62 280 80 262 80 240 c 0
 80 218 62 200 40 200 c 0
 18 200 0 218 0 240 c 0
1080 340 m 0
 1080 362 1098 380 1120 380 c 0
 1142 380 1160 362 1160 340 c 0
 1160 318 1142 300 1120 300 c 0
 1098 300 1080 318 1080 340 c 0
960 340 m 0
 960 362 978 380 1000 380 c 0
 1022 380 1040 362 1040 340 c 0
 1040 318 1022 300 1000 300 c 0
 978 300 960 318 960 340 c 0
120 340 m 0
 120 362 138 380 160 380 c 0
 182 380 200 362 200 340 c 0
 200 318 182 300 160 300 c 0
 138 300 120 318 120 340 c 0
0 340 m 0
 0 362 18 380 40 380 c 0
 62 380 80 362 80 340 c 0
 80 318 62 300 40 300 c 0
 18 300 0 318 0 340 c 0
960 440 m 0
 960 462 978 480 1000 480 c 0
 1022 480 1040 462 1040 440 c 0
 1040 418 1022 400 1000 400 c 0
 978 400 960 418 960 440 c 0
840 440 m 0
 840 462 858 480 880 480 c 0
 902 480 920 462 920 440 c 0
 920 418 902 400 880 400 c 0
 858 400 840 418 840 440 c 0
240 440 m 0
 240 462 258 480 280 480 c 0
 302 480 320 462 320 440 c 0
 320 418 302 400 280 400 c 0
 258 400 240 418 240 440 c 0
120 440 m 0
 120 462 138 480 160 480 c 0
 182 480 200 462 200 440 c 0
 200 418 182 400 160 400 c 0
 138 400 120 418 120 440 c 0
840 540 m 0
 840 562 858 580 880 580 c 0
 902 580 920 562 920 540 c 0
 920 518 902 500 880 500 c 0
 858 500 840 518 840 540 c 0
720 540 m 0
 720 562 738 580 760 580 c 0
 782 580 800 562 800 540 c 0
 800 518 782 500 760 500 c 0
 738 500 720 518 720 540 c 0
360 540 m 0
 360 562 378 580 400 580 c 0
 422 580 440 562 440 540 c 0
 440 518 422 500 400 500 c 0
 378 500 360 518 360 540 c 0
240 540 m 0
 240 562 258 580 280 580 c 0
 302 580 320 562 320 540 c 0
 320 518 302 500 280 500 c 0
 258 500 240 518 240 540 c 0
720 640 m 0
 720 662 738 680 760 680 c 0
 782 680 800 662 800 640 c 0
 800 618 782 600 760 600 c 0
 738 600 720 618 720 640 c 0
600 640 m 0
 600 662 618 680 640 680 c 0
 662 680 680 662 680 640 c 0
 680 618 662 600 640 600 c 0
 618 600 600 618 600 640 c 0
480 640 m 0
 480 662 498 680 520 680 c 0
 542 680 560 662 560 640 c 0
 560 618 542 600 520 600 c 0
 498 600 480 618 480 640 c 0
360 640 m 0
 360 662 378 680 400 680 c 0
 422 680 440 662 440 640 c 0
 440 618 422 600 400 600 c 0
 378 600 360 618 360 640 c 0
EndSplineSet
EndChar

StartChar: B
Encoding: 66 66 35
Width: 1440
GlyphClass: 2
Flags: MW
HStem: 0 80<29 51 149 171 269 291 389 411 509 531 629 651 749 771 869 891> 100 80<149 171 269 291 989 1011 1109 1131> 200 80<149 171 269 291 989 1011 1109 1131> 300 80<149 171 269 291 389 411 509 531 629 651 749 771 869 891 989 1011> 400 80<149 171 269 291 989 1011 1109 1131> 500 80<149 171 269 291 989 1011 1109 1131> 600 80<29 51 149 171 269 291 389 411 509 531 629 651 749 771 869 891>
LayerCount: 2
Fore
SplineSet
840 40 m 0
 840 62 858 80 880 80 c 0
 902 80 920 62 920 40 c 0
 920 18 902 0 880 0 c 0
 858 0 840 18 840 40 c 0
720 40 m 0
 720 62 738 80 760 80 c 0
 782 80 800 62 800 40 c 0
 800 18 782 0 760 0 c 0
 738 0 720 18 720 40 c 0
600 40 m 0
 600 62 618 80 640 80 c 0
 662 80 680 62 680 40 c 0
 680 18 662 0 640 0 c 0
 618 0 600 18 600 40 c 0
480 40 m 0
 480 62 498 80 520 80 c 0
 542 80 560 62 560 40 c 0
 560 18 542 0 520 0 c 0
 498 0 480 18 480 40 c 0
360 40 m 0
 360 62 378 80 400 80 c 0
 422 80 440 62 440 40 c 0
 440 18 422 0 400 0 c 0
 378 0 360 18 360 40 c 0
240 40 m 0
 240 62 258 80 280 80 c 0
 302 80 320 62 320 40 c 0
 320 18 302 0 280 0 c 0
 258 0 240 18 240 40 c 0
120 40 m 0
 120 62 138 80 160 80 c 0
 182 80 200 62 200 40 c 0
 200 18 182 0 160 0 c 0
 138 0 120 18 120 40 c 0
0 40 m 0
 0 62 18 80 40 80 c 0
 62 80 80 62 80 40 c 0
 80 18 62 0 40 0 c 0
 18 0 0 18 0 40 c 0
1080 140 m 0
 1080 162 1098 180 1120 180 c 0
 1142 180 1160 162 1160 140 c 0
 1160 118 1142 100 1120 100 c 0
 1098 100 1080 118 1080 140 c 0
960 140 m 0
 960 162 978 180 1000 180 c 0
 1022 180 1040 162 1040 140 c 0
 1040 118 1022 100 1000 100 c 0
 978 100 960 118 960 140 c 0
240 140 m 0
 240 162 258 180 280 180 c 0
 302 180 320 162 320 140 c 0
 320 118 302 100 280 100 c 0
 258 100 240 118 240 140 c 0
120 140 m 0
 120 162 138 180 160 180 c 0
 182 180 200 162 200 140 c 0
 200 118 182 100 160 100 c 0
 138 100 120 118 120 140 c 0
1080 240 m 0
 1080 262 1098 280 1120 280 c 0
 1142 280 1160 262 1160 240 c 0
 1160 218 1142 200 1120 200 c 0
 1098 200 1080 218 1080 240 c 0
960 240 m 0
 960 262 978 280 1000 280 c 0
 1022 280 1040 262 1040 240 c 0
 1040 218 1022 200 1000 200 c 0
 978 200 960 218 960 240 c 0
240 240 m 0
 240 262 258 280 280 280 c 0
 302 280 320 262 320 240 c 0
 320 218 302 200 280 200 c 0
 258 200 240 218 240 240 c 0
120 240 m 0
 120 262 138 280 160 280 c 0
 182 280 200 262 200 240 c 0
 200 218 182 200 160 200 c 0
 138 200 120 218 120 240 c 0
960 340 m 0
 960 362 978 380 1000 380 c 0
 1022 380 1040 362 1040 340 c 0
 1040 318 1022 300 1000 300 c 0
 978 300 960 318 960 340 c 0
840 340 m 0
 840 362 858 380 880 380 c 0
 902 380 920 362 920 340 c 0
 920 318 902 300 880 300 c 0
 858 300 840 318 840 340 c 0
720 340 m 0
 720 362 738 380 760 380 c 0
 782 380 800 362 800 340 c 0
 800 318 782 300 760 300 c 0
 738 300 720 318 720 340 c 0
600 340 m 0
 600 362 618 380 640 380 c 0
 662 380 680 362 680 340 c 0
 680 318 662 300 640 300 c 0
 618 300 600 318 600 340 c 0
480 340 m 0
 480 362 498 380 520 380 c 0
 542 380 560 362 560 340 c 0
 560 318 542 300 520 300 c 0
 498 300 480 318 480 340 c 0
360 340 m 0
 360 362 378 380 400 380 c 0
 422 380 440 362 440 340 c 0
 440 318 422 300 400 300 c 0
 378 300 360 318 360 340 c 0
240 340 m 0
 240 362 258 380 280 380 c 0
 302 380 320 362 320 340 c 0
 320 318 302 300 280 300 c 0
 258 300 240 318 240 340 c 0
120 340 m 0
 120 362 138 380 160 380 c 0
 182 380 200 362 200 340 c 0
 200 318 182 300 160 300 c 0
 138 300 120 318 120 340 c 0
1080 440 m 0
 1080 462 1098 480 1120 480 c 0
 1142 480 1160 462 1160 440 c 0
 1160 418 1142 400 1120 400 c 0
 1098 400 1080 418 1080 440 c 0
960 440 m 0
 960 462 978 480 1000 480 c 0
 1022 480 1040 462 1040 440 c 0
 1040 418 1022 400 1000 400 c 0
 978 400 960 418 960 440 c 0
240 440 m 0
 240 462 258 480 280 480 c 0
 302 480 320 462 320 440 c 0
 320 418 302 400 280 400 c 0
 258 400 240 418 240 440 c 0
120 440 m 0
 120 462 138 480 160 480 c 0
 182 480 200 462 200 440 c 0
 200 418 182 400 160 400 c 0
 138 400 120 418 120 440 c 0
1080 540 m 0
 1080 562 1098 580 1120 580 c 0
 1142 580 1160 562 1160 540 c 0
 1160 518 1142 500 1120 500 c 0
 1098 500 1080 518 1080 540 c 0
960 540 m 0
 960 562 978 580 1000 580 c 0
 1022 580 1040 562 1040 540 c 0
 1040 518 1022 500 1000 500 c 0
 978 500 960 518 960 540 c 0
240 540 m 0
 240 562 258 580 280 580 c 0
 302 580 320 562 320 540 c 0
 320 518 302 500 280 500 c 0
 258 500 240 518 240 540 c 0
120 540 m 0
 120 562 138 580 160 580 c 0
 182 580 200 562 200 540 c 0
 200 518 182 500 160 500 c 0
 138 500 120 518 120 540 c 0
840 640 m 0
 840 662 858 680 880 680 c 0
 902 680 920 662 920 640 c 0
 920 618 902 600 880 600 c 0
 858 600 840 618 840 640 c 0
720 640 m 0
 720 662 738 680 760 680 c 0
 782 680 800 662 800 640 c 0
 800 618 782 600 760 600 c 0
 738 600 720 618 720 640 c 0
600 640 m 0
 600 662 618 680 640 680 c 0
 662 680 680 662 680 640 c 0
 680 618 662 600 640 600 c 0
 618 600 600 618 600 640 c 0
480 640 m 0
 480 662 498 680 520 680 c 0
 542 680 560 662 560 640 c 0
 560 618 542 600 520 600 c 0
 498 600 480 618 480 640 c 0
360 640 m 0
 360 662 378 680 400 680 c 0
 422 680 440 662 440 640 c 0
 440 618 422 600 400 600 c 0
 378 600 360 618 360 640 c 0
240 640 m 0
 240 662 258 680 280 680 c 0
 302 680 320 662 320 640 c 0
 320 618 302 600 280 600 c 0
 258 600 240 618 240 640 c 0
120 640 m 0
 120 662 138 680 160 680 c 0
 182 680 200 662 200 640 c 0
 200 618 182 600 160 600 c 0
 138 600 120 618 120 640 c 0
0 640 m 0
 0 662 18 680 40 680 c 0
 62 680 80 662 80 640 c 0
 80 618 62 600 40 600 c 0
 18 600 0 618 0 640 c 0
EndSplineSet
EndChar

StartChar: C
Encoding: 67 67 36
Width: 1440
GlyphClass: 2
Flags: MW
HStem: 0 80<149 171 269 291 389 411 509 531 629 651 749 771 869 891 989 1011> 100 80<29 51 149 171 989 1011 1109 1131> 200 80<29 51 149 171> 300 80<29 51 149 171> 400 80<29 51 149 171> 500 80<29 51 149 171 989 1011 1109 1131> 600 80<149 171 269 291 389 411 509 531 629 651 749 771 869 891 989 1011>
LayerCount: 2
Fore
SplineSet
960 40 m 0
 960 62 978 80 1000 80 c 0
 1022 80 1040 62 1040 40 c 0
 1040 18 1022 0 1000 0 c 0
 978 0 960 18 960 40 c 0
840 40 m 0
 840 62 858 80 880 80 c 0
 902 80 920 62 920 40 c 0
 920 18 902 0 880 0 c 0
 858 0 840 18 840 40 c 0
720 40 m 0
 720 62 738 80 760 80 c 0
 782 80 800 62 800 40 c 0
 800 18 782 0 760 0 c 0
 738 0 720 18 720 40 c 0
600 40 m 0
 600 62 618 80 640 80 c 0
 662 80 680 62 680 40 c 0
 680 18 662 0 640 0 c 0
 618 0 600 18 600 40 c 0
480 40 m 0
 480 62 498 80 520 80 c 0
 542 80 560 62 560 40 c 0
 560 18 542 0 520 0 c 0
 498 0 480 18 480 40 c 0
360 40 m 0
 360 62 378 80 400 80 c 0
 422 80 440 62 440 40 c 0
 440 18 422 0 400 0 c 0
 378 0 360 18 360 40 c 0
240 40 m 0
 240 62 258 80 280 80 c 0
 302 80 320 62 320 40 c 0
 320 18 302 0 280 0 c 0
 258 0 240 18 240 40 c 0
120 40 m 0
 120 62 138 80 160 80 c 0
 182 80 200 62 200 40 c 0
 200 18 182 0 160 0 c 0
 138 0 120 18 120 40 c 0
1080 140 m 0
 1080 162 1098 180 1120 180 c 0
 1142 180 1160 162 1160 140 c 0
 1160 118 1142 100 1120 100 c 0
 1098 100 1080 118 1080 140 c 0
960 140 m 0
 960 162 978 180 1000 180 c 0
 1022 180 1040 162 1040 140 c 0
 1040 118 1022 100 1000 100 c 0
 978 100 960 118 960 140 c 0
120 140 m 0
 120 162 138 180 160 180 c 0
 182 180 200 162 200 140 c 0
 200 118 182 100 160 100 c 0
 138 100 120 118 120 140 c 0
0 140 m 0
 0 162 18 180 40 180 c 0
 62 180 80 162 80 140 c 0
 80 118 62 100 40 100 c 0
 18 100 0 118 0 140 c 0
120 240 m 0
 120 262 138 280 160 280 c 0
 182 280 200 262 200 240 c 0
 200 218 182 200 160 200 c 0
 138 200 120 218 120 240 c 0
0 240 m 0
 0 262 18 280 40 280 c 0
 62 280 80 262 80 240 c 0
 80 218 62 200 40 200 c 0
 18 200 0 218 0 240 c 0
120 340 m 0
 120 362 138 380 160 380 c 0
 182 380 200 362 200 340 c 0
 200 318 182 300 160 300 c 0
 138 300 120 318 120 340 c 0
0 340 m 0
 0 362 18 380 40 380 c 0
 62 380 80 362 80 340 c 0
 80 318 62 300 40 300 c 0
 18 300 0 318 0 340 c 0
120 440 m 0
 120 462 138 480 160 480 c 0
 182 480 200 462 200 440 c 0
 200 418 182 400 160 400 c 0
 138 400 120 418 120 440 c 0
0 440 m 0
 0 462 18 480 40 480 c 0
 62 480 80 462 80 440 c 0
 80 418 62 400 40 400 c 0
 18 400 0 418 0 440 c 0
1080 540 m 0
 1080 562 1098 580 1120 580 c 0
 1142 580 1160 562 1160 540 c 0
 1160 518 1142 500 1120 500 c 0
 1098 500 1080 518 1080 540 c 0
960 540 m 0
 960 562 978 580 1000 580 c 0
 1022 580 1040 562 1040 540 c 0
 1040 518 1022 500 1000 500 c 0
 978 500 960 518 960 540 c 0
120 540 m 0
 120 562 138 580 160 580 c 0
 182 580 200 562 200 540 c 0
 200 518 182 500 160 500 c 0
 138 500 120 518 120 540 c 0
0 540 m 0
 0 562 18 580 40 580 c 0
 62 580 80 562 80 540 c 0
 80 518 62 500 40 500 c 0
 18 500 0 518 0 540 c 0
960 640 m 0
 960 662 978 680 1000 680 c 0
 1022 680 1040 662 1040 640 c 0
 1040 618 1022 600 1000 600 c 0
 978 600 960 618 960 640 c 0
840 640 m 0
 840 662 858 680 880 680 c 0
 902 680 920 662 920 640 c 0
 920 618 902 600 880 600 c 0
 858 600 840 618 840 640 c 0
720 640 m 0
 720 662 738 680 760 680 c 0
 782 680 800 662 800 640 c 0
 800 618 782 600 760 600 c 0
 738 600 720 618 720 640 c 0
600 640 m 0
 600 662 618 680 640 680 c 0
 662 680 680 662 680 640 c 0
 680 618 662 600 640 600 c 0
 618 600 600 618 600 640 c 0
480 640 m 0
 480 662 498 680 520 680 c 0
 542 680 560 662 560 640 c 0
 560 618 542 600 520 600 c 0
 498 600 480 618 480 640 c 0
360 640 m 0
 360 662 378 680 400 680 c 0
 422 680 440 662 440 640 c 0
 440 618 422 600 400 600 c 0
 378 600 360 618 360 640 c 0
240 640 m 0
 240 662 258 680 280 680 c 0
 302 680 320 662 320 640 c 0
 320 618 302 600 280 600 c 0
 258 600 240 618 240 640 c 0
120 640 m 0
 120 662 138 680 160 680 c 0
 182 680 200 662 200 640 c 0
 200 618 182 600 160 600 c 0
 138 600 120 618 120 640 c 0
EndSplineSet
EndChar

StartChar: D
Encoding: 68 68 37
Width: 1440
GlyphClass: 2
Flags: MW
HStem: 0 80<29 51 149 171 269 291 389 411 509 531 629 651 749 771 869 891> 100 80<149 171 269 291 869 891 989 1011> 200 80<149 171 269 291 989 1011 1109 1131> 300 80<149 171 269 291 989 1011 1109 1131> 400 80<149 171 269 291 989 1011 1109 1131> 500 80<149 171 269 291 869 891 989 1011> 600 80<29 51 149 171 269 291 389 411 509 531 629 651 749 771 869 891>
LayerCount: 2
Fore
SplineSet
840 40 m 0
 840 62 858 80 880 80 c 0
 902 80 920 62 920 40 c 0
 920 18 902 0 880 0 c 0
 858 0 840 18 840 40 c 0
720 40 m 0
 720 62 738 80 760 80 c 0
 782 80 800 62 800 40 c 0
 800 18 782 0 760 0 c 0
 738 0 720 18 720 40 c 0
600 40 m 0
 600 62 618 80 640 80 c 0
 662 80 680 62 680 40 c 0
 680 18 662 0 640 0 c 0
 618 0 600 18 600 40 c 0
480 40 m 0
 480 62 498 80 520 80 c 0
 542 80 560 62 560 40 c 0
 560 18 542 0 520 0 c 0
 498 0 480 18 480 40 c 0
360 40 m 0
 360 62 378 80 400 80 c 0
 422 80 440 62 440 40 c 0
 440 18 422 0 400 0 c 0
 378 0 360 18 360 40 c 0
240 40 m 0
 240 62 258 80 280 80 c 0
 302 80 320 62 320 40 c 0
 320 18 302 0 280 0 c 0
 258 0 240 18 240 40 c 0
120 40 m 0
 120 62 138 80 160 80 c 0
 182 80 200 62 200 40 c 0
 200 18 182 0 160 0 c 0
 138 0 120 18 120 40 c 0
0 40 m 0
 0 62 18 80 40 80 c 0
 62 80 80 62 80 40 c 0
 80 18 62 0 40 0 c 0
 18 0 0 18 0 40 c 0
960 140 m 0
 960 162 978 180 1000 180 c 0
 1022 180 1040 162 1040 140 c 0
 1040 118 1022 100 1000 100 c 0
 978 100 960 118 960 140 c 0
840 140 m 0
 840 162 858 180 880 180 c 0
 902 180 920 162 920 140 c 0
 920 118 902 100 880 100 c 0
 858 100 840 118 840 140 c 0
240 140 m 0
 240 162 258 180 280 180 c 0
 302 180 320 162 320 140 c 0
 320 118 302 100 280 100 c 0
 258 100 240 118 240 140 c 0
120 140 m 0
 120 162 138 180 160 180 c 0
 182 180 200 162 200 140 c 0
 200 118 182 100 160 100 c 0
 138 100 120 118 120 140 c 0
1080 240 m 0
 1080 262 1098 280 1120 280 c 0
 1142 280 1160 262 1160 240 c 0
 1160 218 1142 200 1120 200 c 0
 1098 200 1080 218 1080 240 c 0
960 240 m 0
 960 262 978 280 1000 280 c 0
 1022 280 1040 262 1040 240 c 0
 1040 218 1022 200 1000 200 c 0
 978 200 960 218 960 240 c 0
240 240 m 0
 240 262 258 280 280 280 c 0
 302 280 320 262 320 240 c 0
 320 218 302 200 280 200 c 0
 258 200 240 218 240 240 c 0
120 240 m 0
 120 262 138 280 160 280 c 0
 182 280 200 262 200 240 c 0
 200 218 182 200 160 200 c 0
 138 200 120 218 120 240 c 0
1080 340 m 0
 1080 362 1098 380 1120 380 c 0
 1142 380 1160 362 1160 340 c 0
 1160 318 1142 300 1120 300 c 0
 1098 300 1080 318 1080 340 c 0
960 340 m 0
 960 362 978 380 1000 380 c 0
 1022 380 1040 362 1040 340 c 0
 1040 318 1022 300 1000 300 c 0
 978 300 960 318 960 340 c 0
240 340 m 0
 240 362 258 380 280 380 c 0
 302 380 320 362 320 340 c 0
 320 318 302 300 280 300 c 0
 258 300 240 318 240 340 c 0
120 340 m 0
 120 362 138 380 160 380 c 0
 182 380 200 362 200 340 c 0
 200 318 182 300 160 300 c 0
 138 300 120 318 120 340 c 0
1080 440 m 0
 1080 462 1098 480 1120 480 c 0
 1142 480 1160 462 1160 440 c 0
 1160 418 1142 400 1120 400 c 0
 1098 400 1080 418 1080 440 c 0
960 440 m 0
 960 462 978 480 1000 480 c 0
 1022 480 1040 462 1040 440 c 0
 1040 418 1022 400 1000 400 c 0
 978 400 960 418 960 440 c 0
240 440 m 0
 240 462 258 480 280 480 c 0
 302 480 320 462 320 440 c 0
 320 418 302 400 280 400 c 0
 258 400 240 418 240 440 c 0
120 440 m 0
 120 462 138 480 160 480 c 0
 182 480 200 462 200 440 c 0
 200 418 182 400 160 400 c 0
 138 400 120 418 120 440 c 0
960 540 m 0
 960 562 978 580 1000 580 c 0
 1022 580 1040 562 1040 540 c 0
 1040 518 1022 500 1000 500 c 0
 978 500 960 518 960 540 c 0
840 540 m 0
 840 562 858 580 880 580 c 0
 902 580 920 562 920 540 c 0
 920 518 902 500 880 500 c 0
 858 500 840 518 840 540 c 0
240 540 m 0
 240 562 258 580 280 580 c 0
 302 580 320 562 320 540 c 0
 320 518 302 500 280 500 c 0
 258 500 240 518 240 540 c 0
120 540 m 0
 120 562 138 580 160 580 c 0
 182 580 200 562 200 540 c 0
 200 518 182 500 160 500 c 0
 138 500 120 518 120 540 c 0
840 640 m 0
 840 662 858 680 880 680 c 0
 902 680 920 662 920 640 c 0
 920 618 902 600 880 600 c 0
 858 600 840 618 840 640 c 0
720 640 m 0
 720 662 738 680 760 680 c 0
 782 680 800 662 800 640 c 0
 800 618 782 600 760 600 c 0
 738 600 720 618 720 640 c 0
600 640 m 0
 600 662 618 680 640 680 c 0
 662 680 680 662 680 640 c 0
 680 618 662 600 640 600 c 0
 618 600 600 618 600 640 c 0
480 640 m 0
 480 662 498 680 520 680 c 0
 542 680 560 662 560 640 c 0
 560 618 542 600 520 600 c 0
 498 600 480 618 480 640 c 0
360 640 m 0
 360 662 378 680 400 680 c 0
 422 680 440 662 440 640 c 0
 440 618 422 600 400 600 c 0
 378 600 360 618 360 640 c 0
240 640 m 0
 240 662 258 680 280 680 c 0
 302 680 320 662 320 640 c 0
 320 618 302 600 280 600 c 0
 258 600 240 618 240 640 c 0
120 640 m 0
 120 662 138 680 160 680 c 0
 182 680 200 662 200 640 c 0
 200 618 182 600 160 600 c 0
 138 600 120 618 120 640 c 0
0 640 m 0
 0 662 18 680 40 680 c 0
 62 680 80 662 80 640 c 0
 80 618 62 600 40 600 c 0
 18 600 0 618 0 640 c 0
EndSplineSet
EndChar

StartChar: E
Encoding: 69 69 38
Width: 1440
GlyphClass: 2
Flags: MW
HStem: 0 80<29 51 149 171 269 291 389 411 509 531 629 651 749 771 869 891 989 1011 1109 1131> 100 80<29 51 149 171> 200 80<29 51 149 171> 300 80<29 51 149 171 269 291 389 411 509 531 629 651 749 771 869 891> 400 80<29 51 149 171> 500 80<29 51 149 171> 600 80<29 51 149 171 269 291 389 411 509 531 629 651 749 771 869 891 989 1011 1109 1131>
LayerCount: 2
Fore
SplineSet
1080 40 m 0
 1080 62 1098 80 1120 80 c 0
 1142 80 1160 62 1160 40 c 0
 1160 18 1142 0 1120 0 c 0
 1098 0 1080 18 1080 40 c 0
960 40 m 0
 960 62 978 80 1000 80 c 0
 1022 80 1040 62 1040 40 c 0
 1040 18 1022 0 1000 0 c 0
 978 0 960 18 960 40 c 0
840 40 m 0
 840 62 858 80 880 80 c 0
 902 80 920 62 920 40 c 0
 920 18 902 0 880 0 c 0
 858 0 840 18 840 40 c 0
720 40 m 0
 720 62 738 80 760 80 c 0
 782 80 800 62 800 40 c 0
 800 18 782 0 760 0 c 0
 738 0 720 18 720 40 c 0
600 40 m 0
 600 62 618 80 640 80 c 0
 662 80 680 62 680 40 c 0
 680 18 662 0 640 0 c 0
 618 0 600 18 600 40 c 0
480 40 m 0
 480 62 498 80 520 80 c 0
 542 80 560 62 560 40 c 0
 560 18 542 0 520 0 c 0
 498 0 480 18 480 40 c 0
360 40 m 0
 360 62 378 80 400 80 c 0
 422 80 440 62 440 40 c 0
 440 18 422 0 400 0 c 0
 378 0 360 18 360 40 c 0
240 40 m 0
 240 62 258 80 280 80 c 0
 302 80 320 62 320 40 c 0
 320 18 302 0 280 0 c 0
 258 0 240 18 240 40 c 0
120 40 m 0
 120 62 138 80 160 80 c 0
 182 80 200 62 200 40 c 0
 200 18 182 0 160 0 c 0
 138 0 120 18 120 40 c 0
0 40 m 0
 0 62 18 80 40 80 c 0
 62 80 80 62 80 40 c 0
 80 18 62 0 40 0 c 0
 18 0 0 18 0 40 c 0
120 140 m 0
 120 162 138 180 160 180 c 0
 182 180 200 162 200 140 c 0
 200 118 182 100 160 100 c 0
 138 100 120 118 120 140 c 0
0 140 m 0
 0 162 18 180 40 180 c 0
 62 180 80 162 80 140 c 0
 80 118 62 100 40 100 c 0
 18 100 0 118 0 140 c 0
120 240 m 0
 120 262 138 280 160 280 c 0
 182 280 200 262 200 240 c 0
 200 218 182 200 160 200 c 0
 138 200 120 218 120 240 c 0
0 240 m 0
 0 262 18 280 40 280 c 0
 62 280 80 262 80 240 c 0
 80 218 62 200 40 200 c 0
 18 200 0 218 0 240 c 0
840 340 m 0
 840 362 858 380 880 380 c 0
 902 380 920 362 920 340 c 0
 920 318 902 300 880 300 c 0
 858 300 840 318 840 340 c 0
720 340 m 0
 720 362 738 380 760 380 c 0
 782 380 800 362 800 340 c 0
 800 318 782 300 760 300 c 0
 738 300 720 318 720 340 c 0
600 340 m 0
 600 362 618 380 640 380 c 0
 662 380 680 362 680 340 c 0
 680 318 662 300 640 300 c 0
 618 300 600 318 600 340 c 0
480 340 m 0
 480 362 498 380 520 380 c 0
 542 380 560 362 560 340 c 0
 560 318 542 300 520 300 c 0
 498 300 480 318 480 340 c 0
360 340 m 0
 360 362 378 380 400 380 c 0
 422 380 440 362 440 340 c 0
 440 318 422 300 400 300 c 0
 378 300 360 318 360 340 c 0
240 340 m 0
 240 362 258 380 280 380 c 0
 302 380 320 362 320 340 c 0
 320 318 302 300 280 300 c 0
 258 300 240 318 240 340 c 0
120 340 m 0
 120 362 138 380 160 380 c 0
 182 380 200 362 200 340 c 0
 200 318 182 300 160 300 c 0
 138 300 120 318 120 340 c 0
0 340 m 0
 0 362 18 380 40 380 c 0
 62 380 80 362 80 340 c 0
 80 318 62 300 40 300 c 0
 18 300 0 318 0 340 c 0
120 440 m 0
 120 462 138 480 160 480 c 0
 182 480 200 462 200 440 c 0
 200 418 182 400 160 400 c 0
 138 400 120 418 120 440 c 0
0 440 m 0
 0 462 18 480 40 480 c 0
 62 480 80 462 80 440 c 0
 80 418 62 400 40 400 c 0
 18 400 0 418 0 440 c 0
120 540 m 0
 120 562 138 580 160 580 c 0
 182 580 200 562 200 540 c 0
 200 518 182 500 160 500 c 0
 138 500 120 518 120 540 c 0
0 540 m 0
 0 562 18 580 40 580 c 0
 62 580 80 562 80 540 c 0
 80 518 62 500 40 500 c 0
 18 500 0 518 0 540 c 0
1080 640 m 0
 1080 662 1098 680 1120 680 c 0
 1142 680 1160 662 1160 640 c 0
 1160 618 1142 600 1120 600 c 0
 1098 600 1080 618 1080 640 c 0
960 640 m 0
 960 662 978 680 1000 680 c 0
 1022 680 1040 662 1040 640 c 0
 1040 618 1022 600 1000 600 c 0
 978 600 960 618 960 640 c 0
840 640 m 0
 840 662 858 680 880 680 c 0
 902 680 920 662 920 640 c 0
 920 618 902 600 880 600 c 0
 858 600 840 618 840 640 c 0
720 640 m 0
 720 662 738 680 760 680 c 0
 782 680 800 662 800 640 c 0
 800 618 782 600 760 600 c 0
 738 600 720 618 720 640 c 0
600 640 m 0
 600 662 618 680 640 680 c 0
 662 680 680 662 680 640 c 0
 680 618 662 600 640 600 c 0
 618 600 600 618 600 640 c 0
480 640 m 0
 480 662 498 680 520 680 c 0
 542 680 560 662 560 640 c 0
 560 618 542 600 520 600 c 0
 498 600 480 618 480 640 c 0
360 640 m 0
 360 662 378 680 400 680 c 0
 422 680 440 662 440 640 c 0
 440 618 422 600 400 600 c 0
 378 600 360 618 360 640 c 0
240 640 m 0
 240 662 258 680 280 680 c 0
 302 680 320 662 320 640 c 0
 320 618 302 600 280 600 c 0
 258 600 240 618 240 640 c 0
120 640 m 0
 120 662 138 680 160 680 c 0
 182 680 200 662 200 640 c 0
 200 618 182 600 160 600 c 0
 138 600 120 618 120 640 c 0
0 640 m 0
 0 662 18 680 40 680 c 0
 62 680 80 662 80 640 c 0
 80 618 62 600 40 600 c 0
 18 600 0 618 0 640 c 0
EndSplineSet
EndChar

StartChar: F
Encoding: 70 70 39
Width: 1440
GlyphClass: 2
Flags: MW
HStem: 0 80<29 51 149 171> 100 80<29 51 149 171> 200 80<29 51 149 171> 300 80<29 51 149 171 269 291 389 411 509 531 629 651 749 771 869 891> 400 80<29 51 149 171> 500 80<29 51 149 171> 600 80<29 51 149 171 269 291 389 411 509 531 629 651 749 771 869 891 989 1011 1109 1131>
LayerCount: 2
Fore
SplineSet
120 40 m 0
 120 62 138 80 160 80 c 0
 182 80 200 62 200 40 c 0
 200 18 182 0 160 0 c 0
 138 0 120 18 120 40 c 0
0 40 m 0
 0 62 18 80 40 80 c 0
 62 80 80 62 80 40 c 0
 80 18 62 0 40 0 c 0
 18 0 0 18 0 40 c 0
120 140 m 0
 120 162 138 180 160 180 c 0
 182 180 200 162 200 140 c 0
 200 118 182 100 160 100 c 0
 138 100 120 118 120 140 c 0
0 140 m 0
 0 162 18 180 40 180 c 0
 62 180 80 162 80 140 c 0
 80 118 62 100 40 100 c 0
 18 100 0 118 0 140 c 0
120 240 m 0
 120 262 138 280 160 280 c 0
 182 280 200 262 200 240 c 0
 200 218 182 200 160 200 c 0
 138 200 120 218 120 240 c 0
0 240 m 0
 0 262 18 280 40 280 c 0
 62 280 80 262 80 240 c 0
 80 218 62 200 40 200 c 0
 18 200 0 218 0 240 c 0
840 340 m 0
 840 362 858 380 880 380 c 0
 902 380 920 362 920 340 c 0
 920 318 902 300 880 300 c 0
 858 300 840 318 840 340 c 0
720 340 m 0
 720 362 738 380 760 380 c 0
 782 380 800 362 800 340 c 0
 800 318 782 300 760 300 c 0
 738 300 720 318 720 340 c 0
600 340 m 0
 600 362 618 380 640 380 c 0
 662 380 680 362 680 340 c 0
 680 318 662 300 640 300 c 0
 618 300 600 318 600 340 c 0
480 340 m 0
 480 362 498 380 520 380 c 0
 542 380 560 362 560 340 c 0
 560 318 542 300 520 300 c 0
 498 300 480 318 480 340 c 0
360 340 m 0
 360 362 378 380 400 380 c 0
 422 380 440 362 440 340 c 0
 440 318 422 300 400 300 c 0
 378 300 360 318 360 340 c 0
240 340 m 0
 240 362 258 380 280 380 c 0
 302 380 320 362 320 340 c 0
 320 318 302 300 280 300 c 0
 258 300 240 318 240 340 c 0
120 340 m 0
 120 362 138 380 160 380 c 0
 182 380 200 362 200 340 c 0
 200 318 182 300 160 300 c 0
 138 300 120 318 120 340 c 0
0 340 m 0
 0 362 18 380 40 380 c 0
 62 380 80 362 80 340 c 0
 80 318 62 300 40 300 c 0
 18 300 0 318 0 340 c 0
120 440 m 0
 120 462 138 480 160 480 c 0
 182 480 200 462 200 440 c 0
 200 418 182 400 160 400 c 0
 138 400 120 418 120 440 c 0
0 440 m 0
 0 462 18 480 40 480 c 0
 62 480 80 462 80 440 c 0
 80 418 62 400 40 400 c 0
 18 400 0 418 0 440 c 0
120 540 m 0
 120 562 138 580 160 580 c 0
 182 580 200 562 200 540 c 0
 200 518 182 500 160 500 c 0
 138 500 120 518 120 540 c 0
0 540 m 0
 0 562 18 580 40 580 c 0
 62 580 80 562 80 540 c 0
 80 518 62 500 40 500 c 0
 18 500 0 518 0 540 c 0
1080 640 m 0
 1080 662 1098 680 1120 680 c 0
 1142 680 1160 662 1160 640 c 0
 1160 618 1142 600 1120 600 c 0
 1098 600 1080 618 1080 640 c 0
960 640 m 0
 960 662 978 680 1000 680 c 0
 1022 680 1040 662 1040 640 c 0
 1040 618 1022 600 1000 600 c 0
 978 600 960 618 960 640 c 0
840 640 m 0
 840 662 858 680 880 680 c 0
 902 680 920 662 920 640 c 0
 920 618 902 600 880 600 c 0
 858 600 840 618 840 640 c 0
720 640 m 0
 720 662 738 680 760 680 c 0
 782 680 800 662 800 640 c 0
 800 618 782 600 760 600 c 0
 738 600 720 618 720 640 c 0
600 640 m 0
 600 662 618 680 640 680 c 0
 662 680 680 662 680 640 c 0
 680 618 662 600 640 600 c 0
 618 600 600 618 600 640 c 0
480 640 m 0
 480 662 498 680 520 680 c 0
 542 680 560 662 560 640 c 0
 560 618 542 600 520 600 c 0
 498 600 480 618 480 640 c 0
360 640 m 0
 360 662 378 680 400 680 c 0
 422 680 440 662 440 640 c 0
 440 618 422 600 400 600 c 0
 378 600 360 618 360 640 c 0
240 640 m 0
 240 662 258 680 280 680 c 0
 302 680 320 662 320 640 c 0
 320 618 302 600 280 600 c 0
 258 600 240 618 240 640 c 0
120 640 m 0
 120 662 138 680 160 680 c 0
 182 680 200 662 200 640 c 0
 200 618 182 600 160 600 c 0
 138 600 120 618 120 640 c 0
0 640 m 0
 0 662 18 680 40 680 c 0
 62 680 80 662 80 640 c 0
 80 618 62 600 40 600 c 0
 18 600 0 618 0 640 c 0
EndSplineSet
EndChar

StartChar: G
Encoding: 71 71 40
Width: 1440
GlyphClass: 2
Flags: MW
HStem: 0 80<149 171 269 291 389 411 509 531 629 651 749 771 869 891 989 1011> 100 80<29 51 149 171 989 1011 1109 1131> 200 80<29 51 149 171 989 1011 1109 1131> 300 80<29 51 149 171 509 531 629 651 749 771 869 891 989 1011 1109 1131> 400 80<29 51 149 171> 500 80<29 51 149 171 989 1011 1109 1131> 600 80<149 171 269 291 389 411 509 531 629 651 749 771 869 891 989 1011>
LayerCount: 2
Fore
SplineSet
960 40 m 0
 960 62 978 80 1000 80 c 0
 1022 80 1040 62 1040 40 c 0
 1040 18 1022 0 1000 0 c 0
 978 0 960 18 960 40 c 0
840 40 m 0
 840 62 858 80 880 80 c 0
 902 80 920 62 920 40 c 0
 920 18 902 0 880 0 c 0
 858 0 840 18 840 40 c 0
720 40 m 0
 720 62 738 80 760 80 c 0
 782 80 800 62 800 40 c 0
 800 18 782 0 760 0 c 0
 738 0 720 18 720 40 c 0
600 40 m 0
 600 62 618 80 640 80 c 0
 662 80 680 62 680 40 c 0
 680 18 662 0 640 0 c 0
 618 0 600 18 600 40 c 0
480 40 m 0
 480 62 498 80 520 80 c 0
 542 80 560 62 560 40 c 0
 560 18 542 0 520 0 c 0
 498 0 480 18 480 40 c 0
360 40 m 0
 360 62 378 80 400 80 c 0
 422 80 440 62 440 40 c 0
 440 18 422 0 400 0 c 0
 378 0 360 18 360 40 c 0
240 40 m 0
 240 62 258 80 280 80 c 0
 302 80 320 62 320 40 c 0
 320 18 302 0 280 0 c 0
 258 0 240 18 240 40 c 0
120 40 m 0
 120 62 138 80 160 80 c 0
 182 80 200 62 200 40 c 0
 200 18 182 0 160 0 c 0
 138 0 120 18 120 40 c 0
1080 140 m 0
 1080 162 1098 180 1120 180 c 0
 1142 180 1160 162 1160 140 c 0
 1160 118 1142 100 1120 100 c 0
 1098 100 1080 118 1080 140 c 0
960 140 m 0
 960 162 978 180 1000 180 c 0
 1022 180 1040 162 1040 140 c 0
 1040 118 1022 100 1000 100 c 0
 978 100 960 118 960 140 c 0
120 140 m 0
 120 162 138 180 160 180 c 0
 182 180 200 162 200 140 c 0
 200 118 182 100 160 100 c 0
 138 100 120 118 120 140 c 0
0 140 m 0
 0 162 18 180 40 180 c 0
 62 180 80 162 80 140 c 0
 80 118 62 100 40 100 c 0
 18 100 0 118 0 140 c 0
1080 240 m 0
 1080 262 1098 280 1120 280 c 0
 1142 280 1160 262 1160 240 c 0
 1160 218 1142 200 1120 200 c 0
 1098 200 1080 218 1080 240 c 0
960 240 m 0
 960 262 978 280 1000 280 c 0
 1022 280 1040 262 1040 240 c 0
 1040 218 1022 200 1000 200 c 0
 978 200 960 218 960 240 c 0
120 240 m 0
 120 262 138 280 160 280 c 0
 182 280 200 262 200 240 c 0
 200 218 182 200 160 200 c 0
 138 200 120 218 120 240 c 0
0 240 m 0
 0 262 18 280 40 280 c 0
 62 280 80 262 80 240 c 0
 80 218 62 200 40 200 c 0
 18 200 0 218 0 240 c 0
1080 340 m 0
 1080 362 1098 380 1120 380 c 0
 1142 380 1160 362 1160 340 c 0
 1160 318 1142 300 1120 300 c 0
 1098 300 1080 318 1080 340 c 0
960 340 m 0
 960 362 978 380 1000 380 c 0
 1022 380 1040 362 1040 340 c 0
 1040 318 1022 300 1000 300 c 0
 978 300 960 318 960 340 c 0
840 340 m 0
 840 362 858 380 880 380 c 0
 902 380 920 362 920 340 c 0
 920 318 902 300 880 300 c 0
 858 300 840 318 840 340 c 0
720 340 m 0
 720 362 738 380 760 380 c 0
 782 380 800 362 800 340 c 0
 800 318 782 300 760 300 c 0
 738 300 720 318 720 340 c 0
600 340 m 0
 600 362 618 380 640 380 c 0
 662 380 680 362 680 340 c 0
 680 318 662 300 640 300 c 0
 618 300 600 318 600 340 c 0
480 340 m 0
 480 362 498 380 520 380 c 0
 542 380 560 362 560 340 c 0
 560 318 542 300 520 300 c 0
 498 300 480 318 480 340 c 0
120 340 m 0
 120 362 138 380 160 380 c 0
 182 380 200 362 200 340 c 0
 200 318 182 300 160 300 c 0
 138 300 120 318 120 340 c 0
0 340 m 0
 0 362 18 380 40 380 c 0
 62 380 80 362 80 340 c 0
 80 318 62 300 40 300 c 0
 18 300 0 318 0 340 c 0
120 440 m 0
 120 462 138 480 160 480 c 0
 182 480 200 462 200 440 c 0
 200 418 182 400 160 400 c 0
 138 400 120 418 120 440 c 0
0 440 m 0
 0 462 18 480 40 480 c 0
 62 480 80 462 80 440 c 0
 80 418 62 400 40 400 c 0
 18 400 0 418 0 440 c 0
1080 540 m 0
 1080 562 1098 580 1120 580 c 0
 1142 580 1160 562 1160 540 c 0
 1160 518 1142 500 1120 500 c 0
 1098 500 1080 518 1080 540 c 0
960 540 m 0
 960 562 978 580 1000 580 c 0
 1022 580 1040 562 1040 540 c 0
 1040 518 1022 500 1000 500 c 0
 978 500 960 518 960 540 c 0
120 540 m 0
 120 562 138 580 160 580 c 0
 182 580 200 562 200 540 c 0
 200 518 182 500 160 500 c 0
 138 500 120 518 120 540 c 0
0 540 m 0
 0 562 18 580 40 580 c 0
 62 580 80 562 80 540 c 0
 80 518 62 500 40 500 c 0
 18 500 0 518 0 540 c 0
960 640 m 0
 960 662 978 680 1000 680 c 0
 1022 680 1040 662 1040 640 c 0
 1040 618 1022 600 1000 600 c 0
 978 600 960 618 960 640 c 0
840 640 m 0
 840 662 858 680 880 680 c 0
 902 680 920 662 920 640 c 0
 920 618 902 600 880 600 c 0
 858 600 840 618 840 640 c 0
720 640 m 0
 720 662 738 680 760 680 c 0
 782 680 800 662 800 640 c 0
 800 618 782 600 760 600 c 0
 738 600 720 618 720 640 c 0
600 640 m 0
 600 662 618 680 640 680 c 0
 662 680 680 662 680 640 c 0
 680 618 662 600 640 600 c 0
 618 600 600 618 600 640 c 0
480 640 m 0
 480 662 498 680 520 680 c 0
 542 680 560 662 560 640 c 0
 560 618 542 600 520 600 c 0
 498 600 480 618 480 640 c 0
360 640 m 0
 360 662 378 680 400 680 c 0
 422 680 440 662 440 640 c 0
 440 618 422 600 400 600 c 0
 378 600 360 618 360 640 c 0
240 640 m 0
 240 662 258 680 280 680 c 0
 302 680 320 662 320 640 c 0
 320 618 302 600 280 600 c 0
 258 600 240 618 240 640 c 0
120 640 m 0
 120 662 138 680 160 680 c 0
 182 680 200 662 200 640 c 0
 200 618 182 600 160 600 c 0
 138 600 120 618 120 640 c 0
EndSplineSet
EndChar

StartChar: H
Encoding: 72 72 41
Width: 1440
GlyphClass: 2
Flags: MW
HStem: 0 80<29 51 149 171 989 1011 1109 1131> 100 80<29 51 149 171 989 1011 1109 1131> 200 80<29 51 149 171 989 1011 1109 1131> 300 80<29 51 149 171 269 291 389 411 509 531 629 651 749 771 869 891 989 1011 1109 1131> 400 80<29 51 149 171 989 1011 1109 1131> 500 80<29 51 149 171 989 1011 1109 1131> 600 80<29 51 149 171 989 1011 1109 1131>
LayerCount: 2
Fore
SplineSet
1080 40 m 0
 1080 62 1098 80 1120 80 c 0
 1142 80 1160 62 1160 40 c 0
 1160 18 1142 0 1120 0 c 0
 1098 0 1080 18 1080 40 c 0
960 40 m 0
 960 62 978 80 1000 80 c 0
 1022 80 1040 62 1040 40 c 0
 1040 18 1022 0 1000 0 c 0
 978 0 960 18 960 40 c 0
120 40 m 0
 120 62 138 80 160 80 c 0
 182 80 200 62 200 40 c 0
 200 18 182 0 160 0 c 0
 138 0 120 18 120 40 c 0
0 40 m 0
 0 62 18 80 40 80 c 0
 62 80 80 62 80 40 c 0
 80 18 62 0 40 0 c 0
 18 0 0 18 0 40 c 0
1080 140 m 0
 1080 162 1098 180 1120 180 c 0
 1142 180 1160 162 1160 140 c 0
 1160 118 1142 100 1120 100 c 0
 1098 100 1080 118 1080 140 c 0
960 140 m 0
 960 162 978 180 1000 180 c 0
 1022 180 1040 162 1040 140 c 0
 1040 118 1022 100 1000 100 c 0
 978 100 960 118 960 140 c 0
120 140 m 0
 120 162 138 180 160 180 c 0
 182 180 200 162 200 140 c 0
 200 118 182 100 160 100 c 0
 138 100 120 118 120 140 c 0
0 140 m 0
 0 162 18 180 40 180 c 0
 62 180 80 162 80 140 c 0
 80 118 62 100 40 100 c 0
 18 100 0 118 0 140 c 0
1080 240 m 0
 1080 262 1098 280 1120 280 c 0
 1142 280 1160 262 1160 240 c 0
 1160 218 1142 200 1120 200 c 0
 1098 200 1080 218 1080 240 c 0
960 240 m 0
 960 262 978 280 1000 280 c 0
 1022 280 1040 262 1040 240 c 0
 1040 218 1022 200 1000 200 c 0
 978 200 960 218 960 240 c 0
120 240 m 0
 120 262 138 280 160 280 c 0
 182 280 200 262 200 240 c 0
 200 218 182 200 160 200 c 0
 138 200 120 218 120 240 c 0
0 240 m 0
 0 262 18 280 40 280 c 0
 62 280 80 262 80 240 c 0
 80 218 62 200 40 200 c 0
 18 200 0 218 0 240 c 0
1080 340 m 0
 1080 362 1098 380 1120 380 c 0
 1142 380 1160 362 1160 340 c 0
 1160 318 1142 300 1120 300 c 0
 1098 300 1080 318 1080 340 c 0
960 340 m 0
 960 362 978 380 1000 380 c 0
 1022 380 1040 362 1040 340 c 0
 1040 318 1022 300 1000 300 c 0
 978 300 960 318 960 340 c 0
840 340 m 0
 840 362 858 380 880 380 c 0
 902 380 920 362 920 340 c 0
 920 318 902 300 880 300 c 0
 858 300 840 318 840 340 c 0
720 340 m 0
 720 362 738 380 760 380 c 0
 782 380 800 362 800 340 c 0
 800 318 782 300 760 300 c 0
 738 300 720 318 720 340 c 0
600 340 m 0
 600 362 618 380 640 380 c 0
 662 380 680 362 680 340 c 0
 680 318 662 300 640 300 c 0
 618 300 600 318 600 340 c 0
480 340 m 0
 480 362 498 380 520 380 c 0
 542 380 560 362 560 340 c 0
 560 318 542 300 520 300 c 0
 498 300 480 318 480 340 c 0
360 340 m 0
 360 362 378 380 400 380 c 0
 422 380 440 362 440 340 c 0
 440 318 422 300 400 300 c 0
 378 300 360 318 360 340 c 0
240 340 m 0
 240 362 258 380 280 380 c 0
 302 380 320 362 320 340 c 0
 320 318 302 300 280 300 c 0
 258 300 240 318 240 340 c 0
120 340 m 0
 120 362 138 380 160 380 c 0
 182 380 200 362 200 340 c 0
 200 318 182 300 160 300 c 0
 138 300 120 318 120 340 c 0
0 340 m 0
 0 362 18 380 40 380 c 0
 62 380 80 362 80 340 c 0
 80 318 62 300 40 300 c 0
 18 300 0 318 0 340 c 0
1080 440 m 0
 1080 462 1098 480 1120 480 c 0
 1142 480 1160 462 1160 440 c 0
 1160 418 1142 400 1120 400 c 0
 1098 400 1080 418 1080 440 c 0
960 440 m 0
 960 462 978 480 1000 480 c 0
 1022 480 1040 462 1040 440 c 0
 1040 418 1022 400 1000 400 c 0
 978 400 960 418 960 440 c 0
120 440 m 0
 120 462 138 480 160 480 c 0
 182 480 200 462 200 440 c 0
 200 418 182 400 160 400 c 0
 138 400 120 418 120 440 c 0
0 440 m 0
 0 462 18 480 40 480 c 0
 62 480 80 462 80 440 c 0
 80 418 62 400 40 400 c 0
 18 400 0 418 0 440 c 0
1080 540 m 0
 1080 562 1098 580 1120 580 c 0
 1142 580 1160 562 1160 540 c 0
 1160 518 1142 500 1120 500 c 0
 1098 500 1080 518 1080 540 c 0
960 540 m 0
 960 562 978 580 1000 580 c 0
 1022 580 1040 562 1040 540 c 0
 1040 518 1022 500 1000 500 c 0
 978 500 960 518 960 540 c 0
120 540 m 0
 120 562 138 580 160 580 c 0
 182 580 200 562 200 540 c 0
 200 518 182 500 160 500 c 0
 138 500 120 518 120 540 c 0
0 540 m 0
 0 562 18 580 40 580 c 0
 62 580 80 562 80 540 c 0
 80 518 62 500 40 500 c 0
 18 500 0 518 0 540 c 0
1080 640 m 0
 1080 662 1098 680 1120 680 c 0
 1142 680 1160 662 1160 640 c 0
 1160 618 1142 600 1120 600 c 0
 1098 600 1080 618 1080 640 c 0
960 640 m 0
 960 662 978 680 1000 680 c 0
 1022 680 1040 662 1040 640 c 0
 1040 618 1022 600 1000 600 c 0
 978 600 960 618 960 640 c 0
120 640 m 0
 120 662 138 680 160 680 c 0
 182 680 200 662 200 640 c 0
 200 618 182 600 160 600 c 0
 138 600 120 618 120 640 c 0
0 640 m 0
 0 662 18 680 40 680 c 0
 62 680 80 662 80 640 c 0
 80 618 62 600 40 600 c 0
 18 600 0 618 0 640 c 0
EndSplineSet
EndChar

StartChar: I
Encoding: 73 73 42
Width: 1440
GlyphClass: 2
Flags: MW
HStem: 0 80<269 291 389 411 509 531 629 651 749 771 869 891> 100 80<509 531 629 651> 200 80<509 531 629 651> 300 80<509 531 629 651> 400 80<509 531 629 651> 500 80<509 531 629 651> 600 80<269 291 389 411 509 531 629 651 749 771 869 891>
LayerCount: 2
Fore
SplineSet
840 40 m 0
 840 62 858 80 880 80 c 0
 902 80 920 62 920 40 c 0
 920 18 902 0 880 0 c 0
 858 0 840 18 840 40 c 0
720 40 m 0
 720 62 738 80 760 80 c 0
 782 80 800 62 800 40 c 0
 800 18 782 0 760 0 c 0
 738 0 720 18 720 40 c 0
600 40 m 0
 600 62 618 80 640 80 c 0
 662 80 680 62 680 40 c 0
 680 18 662 0 640 0 c 0
 618 0 600 18 600 40 c 0
480 40 m 0
 480 62 498 80 520 80 c 0
 542 80 560 62 560 40 c 0
 560 18 542 0 520 0 c 0
 498 0 480 18 480 40 c 0
360 40 m 0
 360 62 378 80 400 80 c 0
 422 80 440 62 440 40 c 0
 440 18 422 0 400 0 c 0
 378 0 360 18 360 40 c 0
240 40 m 0
 240 62 258 80 280 80 c 0
 302 80 320 62 320 40 c 0
 320 18 302 0 280 0 c 0
 258 0 240 18 240 40 c 0
600 140 m 0
 600 162 618 180 640 180 c 0
 662 180 680 162 680 140 c 0
 680 118 662 100 640 100 c 0
 618 100 600 118 600 140 c 0
480 140 m 0
 480 162 498 180 520 180 c 0
 542 180 560 162 560 140 c 0
 560 118 542 100 520 100 c 0
 498 100 480 118 480 140 c 0
600 240 m 0
 600 262 618 280 640 280 c 0
 662 280 680 262 680 240 c 0
 680 218 662 200 640 200 c 0
 618 200 600 218 600 240 c 0
480 240 m 0
 480 262 498 280 520 280 c 0
 542 280 560 262 560 240 c 0
 560 218 542 200 520 200 c 0
 498 200 480 218 480 240 c 0
600 340 m 0
 600 362 618 380 640 380 c 0
 662 380 680 362 680 340 c 0
 680 318 662 300 640 300 c 0
 618 300 600 318 600 340 c 0
480 340 m 0
 480 362 498 380 520 380 c 0
 542 380 560 362 560 340 c 0
 560 318 542 300 520 300 c 0
 498 300 480 318 480 340 c 0
600 440 m 0
 600 462 618 480 640 480 c 0
 662 480 680 462 680 440 c 0
 680 418 662 400 640 400 c 0
 618 400 600 418 600 440 c 0
480 440 m 0
 480 462 498 480 520 480 c 0
 542 480 560 462 560 440 c 0
 560 418 542 400 520 400 c 0
 498 400 480 418 480 440 c 0
600 540 m 0
 600 562 618 580 640 580 c 0
 662 580 680 562 680 540 c 0
 680 518 662 500 640 500 c 0
 618 500 600 518 600 540 c 0
480 540 m 0
 480 562 498 580 520 580 c 0
 542 580 560 562 560 540 c 0
 560 518 542 500 520 500 c 0
 498 500 480 518 480 540 c 0
840 640 m 0
 840 662 858 680 880 680 c 0
 902 680 920 662 920 640 c 0
 920 618 902 600 880 600 c 0
 858 600 840 618 840 640 c 0
720 640 m 0
 720 662 738 680 760 680 c 0
 782 680 800 662 800 640 c 0
 800 618 782 600 760 600 c 0
 738 600 720 618 720 640 c 0
600 640 m 0
 600 662 618 680 640 680 c 0
 662 680 680 662 680 640 c 0
 680 618 662 600 640 600 c 0
 618 600 600 618 600 640 c 0
480 640 m 0
 480 662 498 680 520 680 c 0
 542 680 560 662 560 640 c 0
 560 618 542 600 520 600 c 0
 498 600 480 618 480 640 c 0
360 640 m 0
 360 662 378 680 400 680 c 0
 422 680 440 662 440 640 c 0
 440 618 422 600 400 600 c 0
 378 600 360 618 360 640 c 0
240 640 m 0
 240 662 258 680 280 680 c 0
 302 680 320 662 320 640 c 0
 320 618 302 600 280 600 c 0
 258 600 240 618 240 640 c 0
EndSplineSet
EndChar

StartChar: J
Encoding: 74 74 43
Width: 1440
GlyphClass: 2
Flags: MW
HStem: 0 80<149 171 269 291 389 411 509 531 629 651 749 771> 100 80<29 51 149 171 749 771 869 891> 200 80<29 51 149 171 749 771 869 891> 300 80<749 771 869 891> 400 80<749 771 869 891> 500 80<749 771 869 891> 600 80<389 411 509 531 629 651 749 771 869 891 989 1011>
LayerCount: 2
Fore
SplineSet
720 40 m 0
 720 62 738 80 760 80 c 0
 782 80 800 62 800 40 c 0
 800 18 782 0 760 0 c 0
 738 0 720 18 720 40 c 0
600 40 m 0
 600 62 618 80 640 80 c 0
 662 80 680 62 680 40 c 0
 680 18 662 0 640 0 c 0
 618 0 600 18 600 40 c 0
480 40 m 0
 480 62 498 80 520 80 c 0
 542 80 560 62 560 40 c 0
 560 18 542 0 520 0 c 0
 498 0 480 18 480 40 c 0
360 40 m 0
 360 62 378 80 400 80 c 0
 422 80 440 62 440 40 c 0
 440 18 422 0 400 0 c 0
 378 0 360 18 360 40 c 0
240 40 m 0
 240 62 258 80 280 80 c 0
 302 80 320 62 320 40 c 0
 320 18 302 0 280 0 c 0
 258 0 240 18 240 40 c 0
120 40 m 0
 120 62 138 80 160 80 c 0
 182 80 200 62 200 40 c 0
 200 18 182 0 160 0 c 0
 138 0 120 18 120 40 c 0
840 140 m 0
 840 162 858 180 880 180 c 0
 902 180 920 162 920 140 c 0
 920 118 902 100 880 100 c 0
 858 100 840 118 840 140 c 0
720 140 m 0
 720 162 738 180 760 180 c 0
 782 180 800 162 800 140 c 0
 800 118 782 100 760 100 c 0
 738 100 720 118 720 140 c 0
120 140 m 0
 120 162 138 180 160 180 c 0
 182 180 200 162 200 140 c 0
 200 118 182 100 160 100 c 0
 138 100 120 118 120 140 c 0
0 140 m 0
 0 162 18 180 40 180 c 0
 62 180 80 162 80 140 c 0
 80 118 62 100 40 100 c 0
 18 100 0 118 0 140 c 0
840 240 m 0
 840 262 858 280 880 280 c 0
 902 280 920 262 920 240 c 0
 920 218 902 200 880 200 c 0
 858 200 840 218 840 240 c 0
720 240 m 0
 720 262 738 280 760 280 c 0
 782 280 800 262 800 240 c 0
 800 218 782 200 760 200 c 0
 738 200 720 218 720 240 c 0
120 240 m 0
 120 262 138 280 160 280 c 0
 182 280 200 262 200 240 c 0
 200 218 182 200 160 200 c 0
 138 200 120 218 120 240 c 0
0 240 m 0
 0 262 18 280 40 280 c 0
 62 280 80 262 80 240 c 0
 80 218 62 200 40 200 c 0
 18 200 0 218 0 240 c 0
840 340 m 0
 840 362 858 380 880 380 c 0
 902 380 920 362 920 340 c 0
 920 318 902 300 880 300 c 0
 858 300 840 318 840 340 c 0
720 340 m 0
 720 362 738 380 760 380 c 0
 782 380 800 362 800 340 c 0
 800 318 782 300 760 300 c 0
 738 300 720 318 720 340 c 0
840 440 m 0
 840 462 858 480 880 480 c 0
 902 480 920 462 920 440 c 0
 920 418 902 400 880 400 c 0
 858 400 840 418 840 440 c 0
720 440 m 0
 720 462 738 480 760 480 c 0
 782 480 800 462 800 440 c 0
 800 418 782 400 760 400 c 0
 738 400 720 418 720 440 c 0
840 540 m 0
 840 562 858 580 880 580 c 0
 902 580 920 562 920 540 c 0
 920 518 902 500 880 500 c 0
 858 500 840 518 840 540 c 0
720 540 m 0
 720 562 738 580 760 580 c 0
 782 580 800 562 800 540 c 0
 800 518 782 500 760 500 c 0
 738 500 720 518 720 540 c 0
960 640 m 0
 960 662 978 680 1000 680 c 0
 1022 680 1040 662 1040 640 c 0
 1040 618 1022 600 1000 600 c 0
 978 600 960 618 960 640 c 0
840 640 m 0
 840 662 858 680 880 680 c 0
 902 680 920 662 920 640 c 0
 920 618 902 600 880 600 c 0
 858 600 840 618 840 640 c 0
720 640 m 0
 720 662 738 680 760 680 c 0
 782 680 800 662 800 640 c 0
 800 618 782 600 760 600 c 0
 738 600 720 618 720 640 c 0
600 640 m 0
 600 662 618 680 640 680 c 0
 662 680 680 662 680 640 c 0
 680 618 662 600 640 600 c 0
 618 600 600 618 600 640 c 0
480 640 m 0
 480 662 498 680 520 680 c 0
 542 680 560 662 560 640 c 0
 560 618 542 600 520 600 c 0
 498 600 480 618 480 640 c 0
360 640 m 0
 360 662 378 680 400 680 c 0
 422 680 440 662 440 640 c 0
 440 618 422 600 400 600 c 0
 378 600 360 618 360 640 c 0
EndSplineSet
EndChar

StartChar: K
Encoding: 75 75 44
Width: 1440
GlyphClass: 2
Flags: MW
HStem: 0 80<29 51 149 171 989 1011 1109 1131> 100 80<29 51 149 171 749 771 869 891> 200 80<29 51 149 171 509 531 629 651> 300 80<29 51 149 171 269 291 389 411> 400 80<29 51 149 171 509 531 629 651> 500 80<29 51 149 171 749 771 869 891> 600 80<29 51 149 171 989 1011 1109 1131>
LayerCount: 2
Fore
SplineSet
1080 40 m 0
 1080 62 1098 80 1120 80 c 0
 1142 80 1160 62 1160 40 c 0
 1160 18 1142 0 1120 0 c 0
 1098 0 1080 18 1080 40 c 0
960 40 m 0
 960 62 978 80 1000 80 c 0
 1022 80 1040 62 1040 40 c 0
 1040 18 1022 0 1000 0 c 0
 978 0 960 18 960 40 c 0
120 40 m 0
 120 62 138 80 160 80 c 0
 182 80 200 62 200 40 c 0
 200 18 182 0 160 0 c 0
 138 0 120 18 120 40 c 0
0 40 m 0
 0 62 18 80 40 80 c 0
 62 80 80 62 80 40 c 0
 80 18 62 0 40 0 c 0
 18 0 0 18 0 40 c 0
840 140 m 0
 840 162 858 180 880 180 c 0
 902 180 920 162 920 140 c 0
 920 118 902 100 880 100 c 0
 858 100 840 118 840 140 c 0
720 140 m 0
 720 162 738 180 760 180 c 0
 782 180 800 162 800 140 c 0
 800 118 782 100 760 100 c 0
 738 100 720 118 720 140 c 0
120 140 m 0
 120 162 138 180 160 180 c 0
 182 180 200 162 200 140 c 0
 200 118 182 100 160 100 c 0
 138 100 120 118 120 140 c 0
0 140 m 0
 0 162 18 180 40 180 c 0
 62 180 80 162 80 140 c 0
 80 118 62 100 40 100 c 0
 18 100 0 118 0 140 c 0
600 240 m 0
 600 262 618 280 640 280 c 0
 662 280 680 262 680 240 c 0
 680 218 662 200 640 200 c 0
 618 200 600 218 600 240 c 0
480 240 m 0
 480 262 498 280 520 280 c 0
 542 280 560 262 560 240 c 0
 560 218 542 200 520 200 c 0
 498 200 480 218 480 240 c 0
120 240 m 0
 120 262 138 280 160 280 c 0
 182 280 200 262 200 240 c 0
 200 218 182 200 160 200 c 0
 138 200 120 218 120 240 c 0
0 240 m 0
 0 262 18 280 40 280 c 0
 62 280 80 262 80 240 c 0
 80 218 62 200 40 200 c 0
 18 200 0 218 0 240 c 0
360 340 m 0
 360 362 378 380 400 380 c 0
 422 380 440 362 440 340 c 0
 440 318 422 300 400 300 c 0
 378 300 360 318 360 340 c 0
240 340 m 0
 240 362 258 380 280 380 c 0
 302 380 320 362 320 340 c 0
 320 318 302 300 280 300 c 0
 258 300 240 318 240 340 c 0
120 340 m 0
 120 362 138 380 160 380 c 0
 182 380 200 362 200 340 c 0
 200 318 182 300 160 300 c 0
 138 300 120 318 120 340 c 0
0 340 m 0
 0 362 18 380 40 380 c 0
 62 380 80 362 80 340 c 0
 80 318 62 300 40 300 c 0
 18 300 0 318 0 340 c 0
600 440 m 0
 600 462 618 480 640 480 c 0
 662 480 680 462 680 440 c 0
 680 418 662 400 640 400 c 0
 618 400 600 418 600 440 c 0
480 440 m 0
 480 462 498 480 520 480 c 0
 542 480 560 462 560 440 c 0
 560 418 542 400 520 400 c 0
 498 400 480 418 480 440 c 0
120 440 m 0
 120 462 138 480 160 480 c 0
 182 480 200 462 200 440 c 0
 200 418 182 400 160 400 c 0
 138 400 120 418 120 440 c 0
0 440 m 0
 0 462 18 480 40 480 c 0
 62 480 80 462 80 440 c 0
 80 418 62 400 40 400 c 0
 18 400 0 418 0 440 c 0
840 540 m 0
 840 562 858 580 880 580 c 0
 902 580 920 562 920 540 c 0
 920 518 902 500 880 500 c 0
 858 500 840 518 840 540 c 0
720 540 m 0
 720 562 738 580 760 580 c 0
 782 580 800 562 800 540 c 0
 800 518 782 500 760 500 c 0
 738 500 720 518 720 540 c 0
120 540 m 0
 120 562 138 580 160 580 c 0
 182 580 200 562 200 540 c 0
 200 518 182 500 160 500 c 0
 138 500 120 518 120 540 c 0
0 540 m 0
 0 562 18 580 40 580 c 0
 62 580 80 562 80 540 c 0
 80 518 62 500 40 500 c 0
 18 500 0 518 0 540 c 0
1080 640 m 0
 1080 662 1098 680 1120 680 c 0
 1142 680 1160 662 1160 640 c 0
 1160 618 1142 600 1120 600 c 0
 1098 600 1080 618 1080 640 c 0
960 640 m 0
 960 662 978 680 1000 680 c 0
 1022 680 1040 662 1040 640 c 0
 1040 618 1022 600 1000 600 c 0
 978 600 960 618 960 640 c 0
120 640 m 0
 120 662 138 680 160 680 c 0
 182 680 200 662 200 640 c 0
 200 618 182 600 160 600 c 0
 138 600 120 618 120 640 c 0
0 640 m 0
 0 662 18 680 40 680 c 0
 62 680 80 662 80 640 c 0
 80 618 62 600 40 600 c 0
 18 600 0 618 0 640 c 0
EndSplineSet
EndChar

StartChar: L
Encoding: 76 76 45
Width: 1440
GlyphClass: 2
Flags: MW
HStem: 0 80<29 51 149 171 269 291 389 411 509 531 629 651 749 771 869 891 989 1011 1109 1131> 100 80<29 51 149 171> 200 80<29 51 149 171> 300 80<29 51 149 171> 400 80<29 51 149 171> 500 80<29 51 149 171> 600 80<29 51 149 171>
LayerCount: 2
Fore
SplineSet
1080 40 m 0
 1080 62 1098 80 1120 80 c 0
 1142 80 1160 62 1160 40 c 0
 1160 18 1142 0 1120 0 c 0
 1098 0 1080 18 1080 40 c 0
960 40 m 0
 960 62 978 80 1000 80 c 0
 1022 80 1040 62 1040 40 c 0
 1040 18 1022 0 1000 0 c 0
 978 0 960 18 960 40 c 0
840 40 m 0
 840 62 858 80 880 80 c 0
 902 80 920 62 920 40 c 0
 920 18 902 0 880 0 c 0
 858 0 840 18 840 40 c 0
720 40 m 0
 720 62 738 80 760 80 c 0
 782 80 800 62 800 40 c 0
 800 18 782 0 760 0 c 0
 738 0 720 18 720 40 c 0
600 40 m 0
 600 62 618 80 640 80 c 0
 662 80 680 62 680 40 c 0
 680 18 662 0 640 0 c 0
 618 0 600 18 600 40 c 0
480 40 m 0
 480 62 498 80 520 80 c 0
 542 80 560 62 560 40 c 0
 560 18 542 0 520 0 c 0
 498 0 480 18 480 40 c 0
360 40 m 0
 360 62 378 80 400 80 c 0
 422 80 440 62 440 40 c 0
 440 18 422 0 400 0 c 0
 378 0 360 18 360 40 c 0
240 40 m 0
 240 62 258 80 280 80 c 0
 302 80 320 62 320 40 c 0
 320 18 302 0 280 0 c 0
 258 0 240 18 240 40 c 0
120 40 m 0
 120 62 138 80 160 80 c 0
 182 80 200 62 200 40 c 0
 200 18 182 0 160 0 c 0
 138 0 120 18 120 40 c 0
0 40 m 0
 0 62 18 80 40 80 c 0
 62 80 80 62 80 40 c 0
 80 18 62 0 40 0 c 0
 18 0 0 18 0 40 c 0
120 140 m 0
 120 162 138 180 160 180 c 0
 182 180 200 162 200 140 c 0
 200 118 182 100 160 100 c 0
 138 100 120 118 120 140 c 0
0 140 m 0
 0 162 18 180 40 180 c 0
 62 180 80 162 80 140 c 0
 80 118 62 100 40 100 c 0
 18 100 0 118 0 140 c 0
120 240 m 0
 120 262 138 280 160 280 c 0
 182 280 200 262 200 240 c 0
 200 218 182 200 160 200 c 0
 138 200 120 218 120 240 c 0
0 240 m 0
 0 262 18 280 40 280 c 0
 62 280 80 262 80 240 c 0
 80 218 62 200 40 200 c 0
 18 200 0 218 0 240 c 0
120 340 m 0
 120 362 138 380 160 380 c 0
 182 380 200 362 200 340 c 0
 200 318 182 300 160 300 c 0
 138 300 120 318 120 340 c 0
0 340 m 0
 0 362 18 380 40 380 c 0
 62 380 80 362 80 340 c 0
 80 318 62 300 40 300 c 0
 18 300 0 318 0 340 c 0
120 440 m 0
 120 462 138 480 160 480 c 0
 182 480 200 462 200 440 c 0
 200 418 182 400 160 400 c 0
 138 400 120 418 120 440 c 0
0 440 m 0
 0 462 18 480 40 480 c 0
 62 480 80 462 80 440 c 0
 80 418 62 400 40 400 c 0
 18 400 0 418 0 440 c 0
120 540 m 0
 120 562 138 580 160 580 c 0
 182 580 200 562 200 540 c 0
 200 518 182 500 160 500 c 0
 138 500 120 518 120 540 c 0
0 540 m 0
 0 562 18 580 40 580 c 0
 62 580 80 562 80 540 c 0
 80 518 62 500 40 500 c 0
 18 500 0 518 0 540 c 0
120 640 m 0
 120 662 138 680 160 680 c 0
 182 680 200 662 200 640 c 0
 200 618 182 600 160 600 c 0
 138 600 120 618 120 640 c 0
0 640 m 0
 0 662 18 680 40 680 c 0
 62 680 80 662 80 640 c 0
 80 618 62 600 40 600 c 0
 18 600 0 618 0 640 c 0
EndSplineSet
EndChar

StartChar: M
Encoding: 77 77 46
Width: 1440
GlyphClass: 2
Flags: MW
HStem: 0 80<29 51 149 171 989 1011 1109 1131> 100 80<29 51 149 171 989 1011 1109 1131> 200 80<29 51 149 171 989 1011 1109 1131> 300 80<29 51 149 171 509 531 629 651 989 1011 1109 1131> 400 80<29 51 149 171 389 411 509 531 629 651 749 771 989 1011 1109 1131> 500 80<29 51 149 171 269 291 389 411 749 771 869 891 989 1011 1109 1131> 600 80<29 51 149 171 989 1011 1109 1131>
LayerCount: 2
Fore
SplineSet
1080 40 m 0
 1080 62 1098 80 1120 80 c 0
 1142 80 1160 62 1160 40 c 0
 1160 18 1142 0 1120 0 c 0
 1098 0 1080 18 1080 40 c 0
960 40 m 0
 960 62 978 80 1000 80 c 0
 1022 80 1040 62 1040 40 c 0
 1040 18 1022 0 1000 0 c 0
 978 0 960 18 960 40 c 0
120 40 m 0
 120 62 138 80 160 80 c 0
 182 80 200 62 200 40 c 0
 200 18 182 0 160 0 c 0
 138 0 120 18 120 40 c 0
0 40 m 0
 0 62 18 80 40 80 c 0
 62 80 80 62 80 40 c 0
 80 18 62 0 40 0 c 0
 18 0 0 18 0 40 c 0
1080 140 m 0
 1080 162 1098 180 1120 180 c 0
 1142 180 1160 162 1160 140 c 0
 1160 118 1142 100 1120 100 c 0
 1098 100 1080 118 1080 140 c 0
960 140 m 0
 960 162 978 180 1000 180 c 0
 1022 180 1040 162 1040 140 c 0
 1040 118 1022 100 1000 100 c 0
 978 100 960 118 960 140 c 0
120 140 m 0
 120 162 138 180 160 180 c 0
 182 180 200 162 200 140 c 0
 200 118 182 100 160 100 c 0
 138 100 120 118 120 140 c 0
0 140 m 0
 0 162 18 180 40 180 c 0
 62 180 80 162 80 140 c 0
 80 118 62 100 40 100 c 0
 18 100 0 118 0 140 c 0
1080 240 m 0
 1080 262 1098 280 1120 280 c 0
 1142 280 1160 262 1160 240 c 0
 1160 218 1142 200 1120 200 c 0
 1098 200 1080 218 1080 240 c 0
960 240 m 0
 960 262 978 280 1000 280 c 0
 1022 280 1040 262 1040 240 c 0
 1040 218 1022 200 1000 200 c 0
 978 200 960 218 960 240 c 0
120 240 m 0
 120 262 138 280 160 280 c 0
 182 280 200 262 200 240 c 0
 200 218 182 200 160 200 c 0
 138 200 120 218 120 240 c 0
0 240 m 0
 0 262 18 280 40 280 c 0
 62 280 80 262 80 240 c 0
 80 218 62 200 40 200 c 0
 18 200 0 218 0 240 c 0
1080 340 m 0
 1080 362 1098 380 1120 380 c 0
 1142 380 1160 362 1160 340 c 0
 1160 318 1142 300 1120 300 c 0
 1098 300 1080 318 1080 340 c 0
960 340 m 0
 960 362 978 380 1000 380 c 0
 1022 380 1040 362 1040 340 c 0
 1040 318 1022 300 1000 300 c 0
 978 300 960 318 960 340 c 0
600 340 m 0
 600 362 618 380 640 380 c 0
 662 380 680 362 680 340 c 0
 680 318 662 300 640 300 c 0
 618 300 600 318 600 340 c 0
480 340 m 0
 480 362 498 380 520 380 c 0
 542 380 560 362 560 340 c 0
 560 318 542 300 520 300 c 0
 498 300 480 318 480 340 c 0
120 340 m 0
 120 362 138 380 160 380 c 0
 182 380 200 362 200 340 c 0
 200 318 182 300 160 300 c 0
 138 300 120 318 120 340 c 0
0 340 m 0
 0 362 18 380 40 380 c 0
 62 380 80 362 80 340 c 0
 80 318 62 300 40 300 c 0
 18 300 0 318 0 340 c 0
1080 440 m 0
 1080 462 1098 480 1120 480 c 0
 1142 480 1160 462 1160 440 c 0
 1160 418 1142 400 1120 400 c 0
 1098 400 1080 418 1080 440 c 0
960 440 m 0
 960 462 978 480 1000 480 c 0
 1022 480 1040 462 1040 440 c 0
 1040 418 1022 400 1000 400 c 0
 978 400 960 418 960 440 c 0
720 440 m 0
 720 462 738 480 760 480 c 0
 782 480 800 462 800 440 c 0
 800 418 782 400 760 400 c 0
 738 400 720 418 720 440 c 0
600 440 m 0
 600 462 618 480 640 480 c 0
 662 480 680 462 680 440 c 0
 680 418 662 400 640 400 c 0
 618 400 600 418 600 440 c 0
480 440 m 0
 480 462 498 480 520 480 c 0
 542 480 560 462 560 440 c 0
 560 418 542 400 520 400 c 0
 498 400 480 418 480 440 c 0
360 440 m 0
 360 462 378 480 400 480 c 0
 422 480 440 462 440 440 c 0
 440 418 422 400 400 400 c 0
 378 400 360 418 360 440 c 0
120 440 m 0
 120 462 138 480 160 480 c 0
 182 480 200 462 200 440 c 0
 200 418 182 400 160 400 c 0
 138 400 120 418 120 440 c 0
0 440 m 0
 0 462 18 480 40 480 c 0
 62 480 80 462 80 440 c 0
 80 418 62 400 40 400 c 0
 18 400 0 418 0 440 c 0
1080 540 m 0
 1080 562 1098 580 1120 580 c 0
 1142 580 1160 562 1160 540 c 0
 1160 518 1142 500 1120 500 c 0
 1098 500 1080 518 1080 540 c 0
960 540 m 0
 960 562 978 580 1000 580 c 0
 1022 580 1040 562 1040 540 c 0
 1040 518 1022 500 1000 500 c 0
 978 500 960 518 960 540 c 0
840 540 m 0
 840 562 858 580 880 580 c 0
 902 580 920 562 920 540 c 0
 920 518 902 500 880 500 c 0
 858 500 840 518 840 540 c 0
720 540 m 0
 720 562 738 580 760 580 c 0
 782 580 800 562 800 540 c 0
 800 518 782 500 760 500 c 0
 738 500 720 518 720 540 c 0
360 540 m 0
 360 562 378 580 400 580 c 0
 422 580 440 562 440 540 c 0
 440 518 422 500 400 500 c 0
 378 500 360 518 360 540 c 0
240 540 m 0
 240 562 258 580 280 580 c 0
 302 580 320 562 320 540 c 0
 320 518 302 500 280 500 c 0
 258 500 240 518 240 540 c 0
120 540 m 0
 120 562 138 580 160 580 c 0
 182 580 200 562 200 540 c 0
 200 518 182 500 160 500 c 0
 138 500 120 518 120 540 c 0
0 540 m 0
 0 562 18 580 40 580 c 0
 62 580 80 562 80 540 c 0
 80 518 62 500 40 500 c 0
 18 500 0 518 0 540 c 0
1080 640 m 0
 1080 662 1098 680 1120 680 c 0
 1142 680 1160 662 1160 640 c 0
 1160 618 1142 600 1120 600 c 0
 1098 600 1080 618 1080 640 c 0
960 640 m 0
 960 662 978 680 1000 680 c 0
 1022 680 1040 662 1040 640 c 0
 1040 618 1022 600 1000 600 c 0
 978 600 960 618 960 640 c 0
120 640 m 0
 120 662 138 680 160 680 c 0
 182 680 200 662 200 640 c 0
 200 618 182 600 160 600 c 0
 138 600 120 618 120 640 c 0
0 640 m 0
 0 662 18 680 40 680 c 0
 62 680 80 662 80 640 c 0
 80 618 62 600 40 600 c 0
 18 600 0 618 0 640 c 0
EndSplineSet
EndChar

StartChar: N
Encoding: 78 78 47
Width: 1440
GlyphClass: 2
Flags: MW
HStem: 0 80<29 51 149 171 989 1011 1109 1131> 100 80<29 51 149 171 749 771 869 891 989 1011 1109 1131> 200 80<29 51 149 171 629 651 749 771 989 1011 1109 1131> 300 80<29 51 149 171 509 531 629 651 989 1011 1109 1131> 400 80<29 51 149 171 389 411 509 531 989 1011 1109 1131> 500 80<29 51 149 171 269 291 389 411 989 1011 1109 1131> 600 80<29 51 149 171 989 1011 1109 1131>
LayerCount: 2
Fore
SplineSet
1080 40 m 0
 1080 62 1098 80 1120 80 c 0
 1142 80 1160 62 1160 40 c 0
 1160 18 1142 0 1120 0 c 0
 1098 0 1080 18 1080 40 c 0
960 40 m 0
 960 62 978 80 1000 80 c 0
 1022 80 1040 62 1040 40 c 0
 1040 18 1022 0 1000 0 c 0
 978 0 960 18 960 40 c 0
120 40 m 0
 120 62 138 80 160 80 c 0
 182 80 200 62 200 40 c 0
 200 18 182 0 160 0 c 0
 138 0 120 18 120 40 c 0
0 40 m 0
 0 62 18 80 40 80 c 0
 62 80 80 62 80 40 c 0
 80 18 62 0 40 0 c 0
 18 0 0 18 0 40 c 0
1080 140 m 0
 1080 162 1098 180 1120 180 c 0
 1142 180 1160 162 1160 140 c 0
 1160 118 1142 100 1120 100 c 0
 1098 100 1080 118 1080 140 c 0
960 140 m 0
 960 162 978 180 1000 180 c 0
 1022 180 1040 162 1040 140 c 0
 1040 118 1022 100 1000 100 c 0
 978 100 960 118 960 140 c 0
840 140 m 0
 840 162 858 180 880 180 c 0
 902 180 920 162 920 140 c 0
 920 118 902 100 880 100 c 0
 858 100 840 118 840 140 c 0
720 140 m 0
 720 162 738 180 760 180 c 0
 782 180 800 162 800 140 c 0
 800 118 782 100 760 100 c 0
 738 100 720 118 720 140 c 0
120 140 m 0
 120 162 138 180 160 180 c 0
 182 180 200 162 200 140 c 0
 200 118 182 100 160 100 c 0
 138 100 120 118 120 140 c 0
0 140 m 0
 0 162 18 180 40 180 c 0
 62 180 80 162 80 140 c 0
 80 118 62 100 40 100 c 0
 18 100 0 118 0 140 c 0
1080 240 m 0
 1080 262 1098 280 1120 280 c 0
 1142 280 1160 262 1160 240 c 0
 1160 218 1142 200 1120 200 c 0
 1098 200 1080 218 1080 240 c 0
960 240 m 0
 960 262 978 280 1000 280 c 0
 1022 280 1040 262 1040 240 c 0
 1040 218 1022 200 1000 200 c 0
 978 200 960 218 960 240 c 0
720 240 m 0
 720 262 738 280 760 280 c 0
 782 280 800 262 800 240 c 0
 800 218 782 200 760 200 c 0
 738 200 720 218 720 240 c 0
600 240 m 0
 600 262 618 280 640 280 c 0
 662 280 680 262 680 240 c 0
 680 218 662 200 640 200 c 0
 618 200 600 218 600 240 c 0
120 240 m 0
 120 262 138 280 160 280 c 0
 182 280 200 262 200 240 c 0
 200 218 182 200 160 200 c 0
 138 200 120 218 120 240 c 0
0 240 m 0
 0 262 18 280 40 280 c 0
 62 280 80 262 80 240 c 0
 80 218 62 200 40 200 c 0
 18 200 0 218 0 240 c 0
1080 340 m 0
 1080 362 1098 380 1120 380 c 0
 1142 380 1160 362 1160 340 c 0
 1160 318 1142 300 1120 300 c 0
 1098 300 1080 318 1080 340 c 0
960 340 m 0
 960 362 978 380 1000 380 c 0
 1022 380 1040 362 1040 340 c 0
 1040 318 1022 300 1000 300 c 0
 978 300 960 318 960 340 c 0
600 340 m 0
 600 362 618 380 640 380 c 0
 662 380 680 362 680 340 c 0
 680 318 662 300 640 300 c 0
 618 300 600 318 600 340 c 0
480 340 m 0
 480 362 498 380 520 380 c 0
 542 380 560 362 560 340 c 0
 560 318 542 300 520 300 c 0
 498 300 480 318 480 340 c 0
120 340 m 0
 120 362 138 380 160 380 c 0
 182 380 200 362 200 340 c 0
 200 318 182 300 160 300 c 0
 138 300 120 318 120 340 c 0
0 340 m 0
 0 362 18 380 40 380 c 0
 62 380 80 362 80 340 c 0
 80 318 62 300 40 300 c 0
 18 300 0 318 0 340 c 0
1080 440 m 0
 1080 462 1098 480 1120 480 c 0
 1142 480 1160 462 1160 440 c 0
 1160 418 1142 400 1120 400 c 0
 1098 400 1080 418 1080 440 c 0
960 440 m 0
 960 462 978 480 1000 480 c 0
 1022 480 1040 462 1040 440 c 0
 1040 418 1022 400 1000 400 c 0
 978 400 960 418 960 440 c 0
480 440 m 0
 480 462 498 480 520 480 c 0
 542 480 560 462 560 440 c 0
 560 418 542 400 520 400 c 0
 498 400 480 418 480 440 c 0
360 440 m 0
 360 462 378 480 400 480 c 0
 422 480 440 462 440 440 c 0
 440 418 422 400 400 400 c 0
 378 400 360 418 360 440 c 0
120 440 m 0
 120 462 138 480 160 480 c 0
 182 480 200 462 200 440 c 0
 200 418 182 400 160 400 c 0
 138 400 120 418 120 440 c 0
0 440 m 0
 0 462 18 480 40 480 c 0
 62 480 80 462 80 440 c 0
 80 418 62 400 40 400 c 0
 18 400 0 418 0 440 c 0
1080 540 m 0
 1080 562 1098 580 1120 580 c 0
 1142 580 1160 562 1160 540 c 0
 1160 518 1142 500 1120 500 c 0
 1098 500 1080 518 1080 540 c 0
960 540 m 0
 960 562 978 580 1000 580 c 0
 1022 580 1040 562 1040 540 c 0
 1040 518 1022 500 1000 500 c 0
 978 500 960 518 960 540 c 0
360 540 m 0
 360 562 378 580 400 580 c 0
 422 580 440 562 440 540 c 0
 440 518 422 500 400 500 c 0
 378 500 360 518 360 540 c 0
240 540 m 0
 240 562 258 580 280 580 c 0
 302 580 320 562 320 540 c 0
 320 518 302 500 280 500 c 0
 258 500 240 518 240 540 c 0
120 540 m 0
 120 562 138 580 160 580 c 0
 182 580 200 562 200 540 c 0
 200 518 182 500 160 500 c 0
 138 500 120 518 120 540 c 0
0 540 m 0
 0 562 18 580 40 580 c 0
 62 580 80 562 80 540 c 0
 80 518 62 500 40 500 c 0
 18 500 0 518 0 540 c 0
1080 640 m 0
 1080 662 1098 680 1120 680 c 0
 1142 680 1160 662 1160 640 c 0
 1160 618 1142 600 1120 600 c 0
 1098 600 1080 618 1080 640 c 0
960 640 m 0
 960 662 978 680 1000 680 c 0
 1022 680 1040 662 1040 640 c 0
 1040 618 1022 600 1000 600 c 0
 978 600 960 618 960 640 c 0
120 640 m 0
 120 662 138 680 160 680 c 0
 182 680 200 662 200 640 c 0
 200 618 182 600 160 600 c 0
 138 600 120 618 120 640 c 0
0 640 m 0
 0 662 18 680 40 680 c 0
 62 680 80 662 80 640 c 0
 80 618 62 600 40 600 c 0
 18 600 0 618 0 640 c 0
EndSplineSet
EndChar

StartChar: O
Encoding: 79 79 48
Width: 1440
GlyphClass: 2
Flags: MW
HStem: 0 80<149 171 269 291 389 411 509 531 629 651 749 771 869 891 989 1011> 100 80<29 51 149 171 989 1011 1109 1131> 200 80<29 51 149 171 989 1011 1109 1131> 300 80<29 51 149 171 989 1011 1109 1131> 400 80<29 51 149 171 989 1011 1109 1131> 500 80<29 51 149 171 989 1011 1109 1131> 600 80<149 171 269 291 389 411 509 531 629 651 749 771 869 891 989 1011>
LayerCount: 2
Fore
SplineSet
960 40 m 0
 960 62 978 80 1000 80 c 0
 1022 80 1040 62 1040 40 c 0
 1040 18 1022 0 1000 0 c 0
 978 0 960 18 960 40 c 0
840 40 m 0
 840 62 858 80 880 80 c 0
 902 80 920 62 920 40 c 0
 920 18 902 0 880 0 c 0
 858 0 840 18 840 40 c 0
720 40 m 0
 720 62 738 80 760 80 c 0
 782 80 800 62 800 40 c 0
 800 18 782 0 760 0 c 0
 738 0 720 18 720 40 c 0
600 40 m 0
 600 62 618 80 640 80 c 0
 662 80 680 62 680 40 c 0
 680 18 662 0 640 0 c 0
 618 0 600 18 600 40 c 0
480 40 m 0
 480 62 498 80 520 80 c 0
 542 80 560 62 560 40 c 0
 560 18 542 0 520 0 c 0
 498 0 480 18 480 40 c 0
360 40 m 0
 360 62 378 80 400 80 c 0
 422 80 440 62 440 40 c 0
 440 18 422 0 400 0 c 0
 378 0 360 18 360 40 c 0
240 40 m 0
 240 62 258 80 280 80 c 0
 302 80 320 62 320 40 c 0
 320 18 302 0 280 0 c 0
 258 0 240 18 240 40 c 0
120 40 m 0
 120 62 138 80 160 80 c 0
 182 80 200 62 200 40 c 0
 200 18 182 0 160 0 c 0
 138 0 120 18 120 40 c 0
1080 140 m 0
 1080 162 1098 180 1120 180 c 0
 1142 180 1160 162 1160 140 c 0
 1160 118 1142 100 1120 100 c 0
 1098 100 1080 118 1080 140 c 0
960 140 m 0
 960 162 978 180 1000 180 c 0
 1022 180 1040 162 1040 140 c 0
 1040 118 1022 100 1000 100 c 0
 978 100 960 118 960 140 c 0
120 140 m 0
 120 162 138 180 160 180 c 0
 182 180 200 162 200 140 c 0
 200 118 182 100 160 100 c 0
 138 100 120 118 120 140 c 0
0 140 m 0
 0 162 18 180 40 180 c 0
 62 180 80 162 80 140 c 0
 80 118 62 100 40 100 c 0
 18 100 0 118 0 140 c 0
1080 240 m 0
 1080 262 1098 280 1120 280 c 0
 1142 280 1160 262 1160 240 c 0
 1160 218 1142 200 1120 200 c 0
 1098 200 1080 218 1080 240 c 0
960 240 m 0
 960 262 978 280 1000 280 c 0
 1022 280 1040 262 1040 240 c 0
 1040 218 1022 200 1000 200 c 0
 978 200 960 218 960 240 c 0
120 240 m 0
 120 262 138 280 160 280 c 0
 182 280 200 262 200 240 c 0
 200 218 182 200 160 200 c 0
 138 200 120 218 120 240 c 0
0 240 m 0
 0 262 18 280 40 280 c 0
 62 280 80 262 80 240 c 0
 80 218 62 200 40 200 c 0
 18 200 0 218 0 240 c 0
1080 340 m 0
 1080 362 1098 380 1120 380 c 0
 1142 380 1160 362 1160 340 c 0
 1160 318 1142 300 1120 300 c 0
 1098 300 1080 318 1080 340 c 0
960 340 m 0
 960 362 978 380 1000 380 c 0
 1022 380 1040 362 1040 340 c 0
 1040 318 1022 300 1000 300 c 0
 978 300 960 318 960 340 c 0
120 340 m 0
 120 362 138 380 160 380 c 0
 182 380 200 362 200 340 c 0
 200 318 182 300 160 300 c 0
 138 300 120 318 120 340 c 0
0 340 m 0
 0 362 18 380 40 380 c 0
 62 380 80 362 80 340 c 0
 80 318 62 300 40 300 c 0
 18 300 0 318 0 340 c 0
1080 440 m 0
 1080 462 1098 480 1120 480 c 0
 1142 480 1160 462 1160 440 c 0
 1160 418 1142 400 1120 400 c 0
 1098 400 1080 418 1080 440 c 0
960 440 m 0
 960 462 978 480 1000 480 c 0
 1022 480 1040 462 1040 440 c 0
 1040 418 1022 400 1000 400 c 0
 978 400 960 418 960 440 c 0
120 440 m 0
 120 462 138 480 160 480 c 0
 182 480 200 462 200 440 c 0
 200 418 182 400 160 400 c 0
 138 400 120 418 120 440 c 0
0 440 m 0
 0 462 18 480 40 480 c 0
 62 480 80 462 80 440 c 0
 80 418 62 400 40 400 c 0
 18 400 0 418 0 440 c 0
1080 540 m 0
 1080 562 1098 580 1120 580 c 0
 1142 580 1160 562 1160 540 c 0
 1160 518 1142 500 1120 500 c 0
 1098 500 1080 518 1080 540 c 0
960 540 m 0
 960 562 978 580 1000 580 c 0
 1022 580 1040 562 1040 540 c 0
 1040 518 1022 500 1000 500 c 0
 978 500 960 518 960 540 c 0
120 540 m 0
 120 562 138 580 160 580 c 0
 182 580 200 562 200 540 c 0
 200 518 182 500 160 500 c 0
 138 500 120 518 120 540 c 0
0 540 m 0
 0 562 18 580 40 580 c 0
 62 580 80 562 80 540 c 0
 80 518 62 500 40 500 c 0
 18 500 0 518 0 540 c 0
960 640 m 0
 960 662 978 680 1000 680 c 0
 1022 680 1040 662 1040 640 c 0
 1040 618 1022 600 1000 600 c 0
 978 600 960 618 960 640 c 0
840 640 m 0
 840 662 858 680 880 680 c 0
 902 680 920 662 920 640 c 0
 920 618 902 600 880 600 c 0
 858 600 840 618 840 640 c 0
720 640 m 0
 720 662 738 680 760 680 c 0
 782 680 800 662 800 640 c 0
 800 618 782 600 760 600 c 0
 738 600 720 618 720 640 c 0
600 640 m 0
 600 662 618 680 640 680 c 0
 662 680 680 662 680 640 c 0
 680 618 662 600 640 600 c 0
 618 600 600 618 600 640 c 0
480 640 m 0
 480 662 498 680 520 680 c 0
 542 680 560 662 560 640 c 0
 560 618 542 600 520 600 c 0
 498 600 480 618 480 640 c 0
360 640 m 0
 360 662 378 680 400 680 c 0
 422 680 440 662 440 640 c 0
 440 618 422 600 400 600 c 0
 378 600 360 618 360 640 c 0
240 640 m 0
 240 662 258 680 280 680 c 0
 302 680 320 662 320 640 c 0
 320 618 302 600 280 600 c 0
 258 600 240 618 240 640 c 0
120 640 m 0
 120 662 138 680 160 680 c 0
 182 680 200 662 200 640 c 0
 200 618 182 600 160 600 c 0
 138 600 120 618 120 640 c 0
EndSplineSet
EndChar

StartChar: P
Encoding: 80 80 49
Width: 1440
GlyphClass: 2
Flags: MW
HStem: 0 80<29 51 149 171> 100 80<29 51 149 171> 200 80<29 51 149 171> 300 80<29 51 149 171 269 291 389 411 509 531 629 651 749 771 869 891> 400 80<29 51 149 171 989 1011 1109 1131> 500 80<29 51 149 171 989 1011 1109 1131> 600 80<29 51 149 171 269 291 389 411 509 531 629 651 749 771 869 891>
LayerCount: 2
Fore
SplineSet
120 40 m 0
 120 62 138 80 160 80 c 0
 182 80 200 62 200 40 c 0
 200 18 182 0 160 0 c 0
 138 0 120 18 120 40 c 0
0 40 m 0
 0 62 18 80 40 80 c 0
 62 80 80 62 80 40 c 0
 80 18 62 0 40 0 c 0
 18 0 0 18 0 40 c 0
120 140 m 0
 120 162 138 180 160 180 c 0
 182 180 200 162 200 140 c 0
 200 118 182 100 160 100 c 0
 138 100 120 118 120 140 c 0
0 140 m 0
 0 162 18 180 40 180 c 0
 62 180 80 162 80 140 c 0
 80 118 62 100 40 100 c 0
 18 100 0 118 0 140 c 0
120 240 m 0
 120 262 138 280 160 280 c 0
 182 280 200 262 200 240 c 0
 200 218 182 200 160 200 c 0
 138 200 120 218 120 240 c 0
0 240 m 0
 0 262 18 280 40 280 c 0
 62 280 80 262 80 240 c 0
 80 218 62 200 40 200 c 0
 18 200 0 218 0 240 c 0
840 340 m 0
 840 362 858 380 880 380 c 0
 902 380 920 362 920 340 c 0
 920 318 902 300 880 300 c 0
 858 300 840 318 840 340 c 0
720 340 m 0
 720 362 738 380 760 380 c 0
 782 380 800 362 800 340 c 0
 800 318 782 300 760 300 c 0
 738 300 720 318 720 340 c 0
600 340 m 0
 600 362 618 380 640 380 c 0
 662 380 680 362 680 340 c 0
 680 318 662 300 640 300 c 0
 618 300 600 318 600 340 c 0
480 340 m 0
 480 362 498 380 520 380 c 0
 542 380 560 362 560 340 c 0
 560 318 542 300 520 300 c 0
 498 300 480 318 480 340 c 0
360 340 m 0
 360 362 378 380 400 380 c 0
 422 380 440 362 440 340 c 0
 440 318 422 300 400 300 c 0
 378 300 360 318 360 340 c 0
240 340 m 0
 240 362 258 380 280 380 c 0
 302 380 320 362 320 340 c 0
 320 318 302 300 280 300 c 0
 258 300 240 318 240 340 c 0
120 340 m 0
 120 362 138 380 160 380 c 0
 182 380 200 362 200 340 c 0
 200 318 182 300 160 300 c 0
 138 300 120 318 120 340 c 0
0 340 m 0
 0 362 18 380 40 380 c 0
 62 380 80 362 80 340 c 0
 80 318 62 300 40 300 c 0
 18 300 0 318 0 340 c 0
1080 440 m 0
 1080 462 1098 480 1120 480 c 0
 1142 480 1160 462 1160 440 c 0
 1160 418 1142 400 1120 400 c 0
 1098 400 1080 418 1080 440 c 0
960 440 m 0
 960 462 978 480 1000 480 c 0
 1022 480 1040 462 1040 440 c 0
 1040 418 1022 400 1000 400 c 0
 978 400 960 418 960 440 c 0
120 440 m 0
 120 462 138 480 160 480 c 0
 182 480 200 462 200 440 c 0
 200 418 182 400 160 400 c 0
 138 400 120 418 120 440 c 0
0 440 m 0
 0 462 18 480 40 480 c 0
 62 480 80 462 80 440 c 0
 80 418 62 400 40 400 c 0
 18 400 0 418 0 440 c 0
1080 540 m 0
 1080 562 1098 580 1120 580 c 0
 1142 580 1160 562 1160 540 c 0
 1160 518 1142 500 1120 500 c 0
 1098 500 1080 518 1080 540 c 0
960 540 m 0
 960 562 978 580 1000 580 c 0
 1022 580 1040 562 1040 540 c 0
 1040 518 1022 500 1000 500 c 0
 978 500 960 518 960 540 c 0
120 540 m 0
 120 562 138 580 160 580 c 0
 182 580 200 562 200 540 c 0
 200 518 182 500 160 500 c 0
 138 500 120 518 120 540 c 0
0 540 m 0
 0 562 18 580 40 580 c 0
 62 580 80 562 80 540 c 0
 80 518 62 500 40 500 c 0
 18 500 0 518 0 540 c 0
840 640 m 0
 840 662 858 680 880 680 c 0
 902 680 920 662 920 640 c 0
 920 618 902 600 880 600 c 0
 858 600 840 618 840 640 c 0
720 640 m 0
 720 662 738 680 760 680 c 0
 782 680 800 662 800 640 c 0
 800 618 782 600 760 600 c 0
 738 600 720 618 720 640 c 0
600 640 m 0
 600 662 618 680 640 680 c 0
 662 680 680 662 680 640 c 0
 680 618 662 600 640 600 c 0
 618 600 600 618 600 640 c 0
480 640 m 0
 480 662 498 680 520 680 c 0
 542 680 560 662 560 640 c 0
 560 618 542 600 520 600 c 0
 498 600 480 618 480 640 c 0
360 640 m 0
 360 662 378 680 400 680 c 0
 422 680 440 662 440 640 c 0
 440 618 422 600 400 600 c 0
 378 600 360 618 360 640 c 0
240 640 m 0
 240 662 258 680 280 680 c 0
 302 680 320 662 320 640 c 0
 320 618 302 600 280 600 c 0
 258 600 240 618 240 640 c 0
120 640 m 0
 120 662 138 680 160 680 c 0
 182 680 200 662 200 640 c 0
 200 618 182 600 160 600 c 0
 138 600 120 618 120 640 c 0
0 640 m 0
 0 662 18 680 40 680 c 0
 62 680 80 662 80 640 c 0
 80 618 62 600 40 600 c 0
 18 600 0 618 0 640 c 0
EndSplineSet
EndChar

StartChar: Q
Encoding: 81 81 50
Width: 1440
GlyphClass: 2
Flags: MW
HStem: 0 80<149 171 269 291 389 411 509 531 629 651 749 771 989 1011 1109 1131> 100 80<29 51 149 171 749 771 869 891> 200 80<29 51 149 171 509 531 629 651 989 1011 1109 1131> 300 80<29 51 149 171 989 1011 1109 1131> 400 80<29 51 149 171 989 1011 1109 1131> 500 80<29 51 149 171 989 1011 1109 1131> 600 80<149 171 269 291 389 411 509 531 629 651 749 771 869 891 989 1011>
LayerCount: 2
Fore
SplineSet
1080 40 m 0
 1080 62 1098 80 1120 80 c 0
 1142 80 1160 62 1160 40 c 0
 1160 18 1142 0 1120 0 c 0
 1098 0 1080 18 1080 40 c 0
960 40 m 0
 960 62 978 80 1000 80 c 0
 1022 80 1040 62 1040 40 c 0
 1040 18 1022 0 1000 0 c 0
 978 0 960 18 960 40 c 0
720 40 m 0
 720 62 738 80 760 80 c 0
 782 80 800 62 800 40 c 0
 800 18 782 0 760 0 c 0
 738 0 720 18 720 40 c 0
600 40 m 0
 600 62 618 80 640 80 c 0
 662 80 680 62 680 40 c 0
 680 18 662 0 640 0 c 0
 618 0 600 18 600 40 c 0
480 40 m 0
 480 62 498 80 520 80 c 0
 542 80 560 62 560 40 c 0
 560 18 542 0 520 0 c 0
 498 0 480 18 480 40 c 0
360 40 m 0
 360 62 378 80 400 80 c 0
 422 80 440 62 440 40 c 0
 440 18 422 0 400 0 c 0
 378 0 360 18 360 40 c 0
240 40 m 0
 240 62 258 80 280 80 c 0
 302 80 320 62 320 40 c 0
 320 18 302 0 280 0 c 0
 258 0 240 18 240 40 c 0
120 40 m 0
 120 62 138 80 160 80 c 0
 182 80 200 62 200 40 c 0
 200 18 182 0 160 0 c 0
 138 0 120 18 120 40 c 0
840 140 m 0
 840 162 858 180 880 180 c 0
 902 180 920 162 920 140 c 0
 920 118 902 100 880 100 c 0
 858 100 840 118 840 140 c 0
720 140 m 0
 720 162 738 180 760 180 c 0
 782 180 800 162 800 140 c 0
 800 118 782 100 760 100 c 0
 738 100 720 118 720 140 c 0
120 140 m 0
 120 162 138 180 160 180 c 0
 182 180 200 162 200 140 c 0
 200 118 182 100 160 100 c 0
 138 100 120 118 120 140 c 0
0 140 m 0
 0 162 18 180 40 180 c 0
 62 180 80 162 80 140 c 0
 80 118 62 100 40 100 c 0
 18 100 0 118 0 140 c 0
1080 240 m 0
 1080 262 1098 280 1120 280 c 0
 1142 280 1160 262 1160 240 c 0
 1160 218 1142 200 1120 200 c 0
 1098 200 1080 218 1080 240 c 0
960 240 m 0
 960 262 978 280 1000 280 c 0
 1022 280 1040 262 1040 240 c 0
 1040 218 1022 200 1000 200 c 0
 978 200 960 218 960 240 c 0
600 240 m 0
 600 262 618 280 640 280 c 0
 662 280 680 262 680 240 c 0
 680 218 662 200 640 200 c 0
 618 200 600 218 600 240 c 0
480 240 m 0
 480 262 498 280 520 280 c 0
 542 280 560 262 560 240 c 0
 560 218 542 200 520 200 c 0
 498 200 480 218 480 240 c 0
120 240 m 0
 120 262 138 280 160 280 c 0
 182 280 200 262 200 240 c 0
 200 218 182 200 160 200 c 0
 138 200 120 218 120 240 c 0
0 240 m 0
 0 262 18 280 40 280 c 0
 62 280 80 262 80 240 c 0
 80 218 62 200 40 200 c 0
 18 200 0 218 0 240 c 0
1080 340 m 0
 1080 362 1098 380 1120 380 c 0
 1142 380 1160 362 1160 340 c 0
 1160 318 1142 300 1120 300 c 0
 1098 300 1080 318 1080 340 c 0
960 340 m 0
 960 362 978 380 1000 380 c 0
 1022 380 1040 362 1040 340 c 0
 1040 318 1022 300 1000 300 c 0
 978 300 960 318 960 340 c 0
120 340 m 0
 120 362 138 380 160 380 c 0
 182 380 200 362 200 340 c 0
 200 318 182 300 160 300 c 0
 138 300 120 318 120 340 c 0
0 340 m 0
 0 362 18 380 40 380 c 0
 62 380 80 362 80 340 c 0
 80 318 62 300 40 300 c 0
 18 300 0 318 0 340 c 0
1080 440 m 0
 1080 462 1098 480 1120 480 c 0
 1142 480 1160 462 1160 440 c 0
 1160 418 1142 400 1120 400 c 0
 1098 400 1080 418 1080 440 c 0
960 440 m 0
 960 462 978 480 1000 480 c 0
 1022 480 1040 462 1040 440 c 0
 1040 418 1022 400 1000 400 c 0
 978 400 960 418 960 440 c 0
120 440 m 0
 120 462 138 480 160 480 c 0
 182 480 200 462 200 440 c 0
 200 418 182 400 160 400 c 0
 138 400 120 418 120 440 c 0
0 440 m 0
 0 462 18 480 40 480 c 0
 62 480 80 462 80 440 c 0
 80 418 62 400 40 400 c 0
 18 400 0 418 0 440 c 0
1080 540 m 0
 1080 562 1098 580 1120 580 c 0
 1142 580 1160 562 1160 540 c 0
 1160 518 1142 500 1120 500 c 0
 1098 500 1080 518 1080 540 c 0
960 540 m 0
 960 562 978 580 1000 580 c 0
 1022 580 1040 562 1040 540 c 0
 1040 518 1022 500 1000 500 c 0
 978 500 960 518 960 540 c 0
120 540 m 0
 120 562 138 580 160 580 c 0
 182 580 200 562 200 540 c 0
 200 518 182 500 160 500 c 0
 138 500 120 518 120 540 c 0
0 540 m 0
 0 562 18 580 40 580 c 0
 62 580 80 562 80 540 c 0
 80 518 62 500 40 500 c 0
 18 500 0 518 0 540 c 0
960 640 m 0
 960 662 978 680 1000 680 c 0
 1022 680 1040 662 1040 640 c 0
 1040 618 1022 600 1000 600 c 0
 978 600 960 618 960 640 c 0
840 640 m 0
 840 662 858 680 880 680 c 0
 902 680 920 662 920 640 c 0
 920 618 902 600 880 600 c 0
 858 600 840 618 840 640 c 0
720 640 m 0
 720 662 738 680 760 680 c 0
 782 680 800 662 800 640 c 0
 800 618 782 600 760 600 c 0
 738 600 720 618 720 640 c 0
600 640 m 0
 600 662 618 680 640 680 c 0
 662 680 680 662 680 640 c 0
 680 618 662 600 640 600 c 0
 618 600 600 618 600 640 c 0
480 640 m 0
 480 662 498 680 520 680 c 0
 542 680 560 662 560 640 c 0
 560 618 542 600 520 600 c 0
 498 600 480 618 480 640 c 0
360 640 m 0
 360 662 378 680 400 680 c 0
 422 680 440 662 440 640 c 0
 440 618 422 600 400 600 c 0
 378 600 360 618 360 640 c 0
240 640 m 0
 240 662 258 680 280 680 c 0
 302 680 320 662 320 640 c 0
 320 618 302 600 280 600 c 0
 258 600 240 618 240 640 c 0
120 640 m 0
 120 662 138 680 160 680 c 0
 182 680 200 662 200 640 c 0
 200 618 182 600 160 600 c 0
 138 600 120 618 120 640 c 0
EndSplineSet
EndChar

StartChar: R
Encoding: 82 82 51
Width: 1440
GlyphClass: 2
Flags: MW
HStem: 0 80<29 51 149 171 989 1011 1109 1131> 100 80<29 51 149 171 869 891 989 1011> 200 80<29 51 149 171 749 771 869 891> 300 80<29 51 149 171 269 291 389 411 509 531 629 651 749 771 869 891> 400 80<29 51 149 171 989 1011 1109 1131> 500 80<29 51 149 171 989 1011 1109 1131> 600 80<29 51 149 171 269 291 389 411 509 531 629 651 749 771 869 891>
LayerCount: 2
Fore
SplineSet
1080 40 m 0
 1080 62 1098 80 1120 80 c 0
 1142 80 1160 62 1160 40 c 0
 1160 18 1142 0 1120 0 c 0
 1098 0 1080 18 1080 40 c 0
960 40 m 0
 960 62 978 80 1000 80 c 0
 1022 80 1040 62 1040 40 c 0
 1040 18 1022 0 1000 0 c 0
 978 0 960 18 960 40 c 0
120 40 m 0
 120 62 138 80 160 80 c 0
 182 80 200 62 200 40 c 0
 200 18 182 0 160 0 c 0
 138 0 120 18 120 40 c 0
0 40 m 0
 0 62 18 80 40 80 c 0
 62 80 80 62 80 40 c 0
 80 18 62 0 40 0 c 0
 18 0 0 18 0 40 c 0
960 140 m 0
 960 162 978 180 1000 180 c 0
 1022 180 1040 162 1040 140 c 0
 1040 118 1022 100 1000 100 c 0
 978 100 960 118 960 140 c 0
840 140 m 0
 840 162 858 180 880 180 c 0
 902 180 920 162 920 140 c 0
 920 118 902 100 880 100 c 0
 858 100 840 118 840 140 c 0
120 140 m 0
 120 162 138 180 160 180 c 0
 182 180 200 162 200 140 c 0
 200 118 182 100 160 100 c 0
 138 100 120 118 120 140 c 0
0 140 m 0
 0 162 18 180 40 180 c 0
 62 180 80 162 80 140 c 0
 80 118 62 100 40 100 c 0
 18 100 0 118 0 140 c 0
840 240 m 0
 840 262 858 280 880 280 c 0
 902 280 920 262 920 240 c 0
 920 218 902 200 880 200 c 0
 858 200 840 218 840 240 c 0
720 240 m 0
 720 262 738 280 760 280 c 0
 782 280 800 262 800 240 c 0
 800 218 782 200 760 200 c 0
 738 200 720 218 720 240 c 0
120 240 m 0
 120 262 138 280 160 280 c 0
 182 280 200 262 200 240 c 0
 200 218 182 200 160 200 c 0
 138 200 120 218 120 240 c 0
0 240 m 0
 0 262 18 280 40 280 c 0
 62 280 80 262 80 240 c 0
 80 218 62 200 40 200 c 0
 18 200 0 218 0 240 c 0
840 340 m 0
 840 362 858 380 880 380 c 0
 902 380 920 362 920 340 c 0
 920 318 902 300 880 300 c 0
 858 300 840 318 840 340 c 0
720 340 m 0
 720 362 738 380 760 380 c 0
 782 380 800 362 800 340 c 0
 800 318 782 300 760 300 c 0
 738 300 720 318 720 340 c 0
600 340 m 0
 600 362 618 380 640 380 c 0
 662 380 680 362 680 340 c 0
 680 318 662 300 640 300 c 0
 618 300 600 318 600 340 c 0
480 340 m 0
 480 362 498 380 520 380 c 0
 542 380 560 362 560 340 c 0
 560 318 542 300 520 300 c 0
 498 300 480 318 480 340 c 0
360 340 m 0
 360 362 378 380 400 380 c 0
 422 380 440 362 440 340 c 0
 440 318 422 300 400 300 c 0
 378 300 360 318 360 340 c 0
240 340 m 0
 240 362 258 380 280 380 c 0
 302 380 320 362 320 340 c 0
 320 318 302 300 280 300 c 0
 258 300 240 318 240 340 c 0
120 340 m 0
 120 362 138 380 160 380 c 0
 182 380 200 362 200 340 c 0
 200 318 182 300 160 300 c 0
 138 300 120 318 120 340 c 0
0 340 m 0
 0 362 18 380 40 380 c 0
 62 380 80 362 80 340 c 0
 80 318 62 300 40 300 c 0
 18 300 0 318 0 340 c 0
1080 440 m 0
 1080 462 1098 480 1120 480 c 0
 1142 480 1160 462 1160 440 c 0
 1160 418 1142 400 1120 400 c 0
 1098 400 1080 418 1080 440 c 0
960 440 m 0
 960 462 978 480 1000 480 c 0
 1022 480 1040 462 1040 440 c 0
 1040 418 1022 400 1000 400 c 0
 978 400 960 418 960 440 c 0
120 440 m 0
 120 462 138 480 160 480 c 0
 182 480 200 462 200 440 c 0
 200 418 182 400 160 400 c 0
 138 400 120 418 120 440 c 0
0 440 m 0
 0 462 18 480 40 480 c 0
 62 480 80 462 80 440 c 0
 80 418 62 400 40 400 c 0
 18 400 0 418 0 440 c 0
1080 540 m 0
 1080 562 1098 580 1120 580 c 0
 1142 580 1160 562 1160 540 c 0
 1160 518 1142 500 1120 500 c 0
 1098 500 1080 518 1080 540 c 0
960 540 m 0
 960 562 978 580 1000 580 c 0
 1022 580 1040 562 1040 540 c 0
 1040 518 1022 500 1000 500 c 0
 978 500 960 518 960 540 c 0
120 540 m 0
 120 562 138 580 160 580 c 0
 182 580 200 562 200 540 c 0
 200 518 182 500 160 500 c 0
 138 500 120 518 120 540 c 0
0 540 m 0
 0 562 18 580 40 580 c 0
 62 580 80 562 80 540 c 0
 80 518 62 500 40 500 c 0
 18 500 0 518 0 540 c 0
840 640 m 0
 840 662 858 680 880 680 c 0
 902 680 920 662 920 640 c 0
 920 618 902 600 880 600 c 0
 858 600 840 618 840 640 c 0
720 640 m 0
 720 662 738 680 760 680 c 0
 782 680 800 662 800 640 c 0
 800 618 782 600 760 600 c 0
 738 600 720 618 720 640 c 0
600 640 m 0
 600 662 618 680 640 680 c 0
 662 680 680 662 680 640 c 0
 680 618 662 600 640 600 c 0
 618 600 600 618 600 640 c 0
480 640 m 0
 480 662 498 680 520 680 c 0
 542 680 560 662 560 640 c 0
 560 618 542 600 520 600 c 0
 498 600 480 618 480 640 c 0
360 640 m 0
 360 662 378 680 400 680 c 0
 422 680 440 662 440 640 c 0
 440 618 422 600 400 600 c 0
 378 600 360 618 360 640 c 0
240 640 m 0
 240 662 258 680 280 680 c 0
 302 680 320 662 320 640 c 0
 320 618 302 600 280 600 c 0
 258 600 240 618 240 640 c 0
120 640 m 0
 120 662 138 680 160 680 c 0
 182 680 200 662 200 640 c 0
 200 618 182 600 160 600 c 0
 138 600 120 618 120 640 c 0
0 640 m 0
 0 662 18 680 40 680 c 0
 62 680 80 662 80 640 c 0
 80 618 62 600 40 600 c 0
 18 600 0 618 0 640 c 0
EndSplineSet
EndChar

StartChar: S
Encoding: 83 83 52
Width: 1440
GlyphClass: 2
Flags: MW
HStem: 0 80<149 171 269 291 389 411 509 531 629 651 749 771 869 891 989 1011> 100 80<29 51 149 171 989 1011 1109 1131> 200 80<989 1011 1109 1131> 300 80<149 171 269 291 389 411 509 531 629 651 749 771 869 891 989 1011> 400 80<29 51 149 171> 500 80<29 51 149 171 989 1011 1109 1131> 600 80<149 171 269 291 389 411 509 531 629 651 749 771 869 891 989 1011>
LayerCount: 2
Fore
SplineSet
960 40 m 0
 960 62 978 80 1000 80 c 0
 1022 80 1040 62 1040 40 c 0
 1040 18 1022 0 1000 0 c 0
 978 0 960 18 960 40 c 0
840 40 m 0
 840 62 858 80 880 80 c 0
 902 80 920 62 920 40 c 0
 920 18 902 0 880 0 c 0
 858 0 840 18 840 40 c 0
720 40 m 0
 720 62 738 80 760 80 c 0
 782 80 800 62 800 40 c 0
 800 18 782 0 760 0 c 0
 738 0 720 18 720 40 c 0
600 40 m 0
 600 62 618 80 640 80 c 0
 662 80 680 62 680 40 c 0
 680 18 662 0 640 0 c 0
 618 0 600 18 600 40 c 0
480 40 m 0
 480 62 498 80 520 80 c 0
 542 80 560 62 560 40 c 0
 560 18 542 0 520 0 c 0
 498 0 480 18 480 40 c 0
360 40 m 0
 360 62 378 80 400 80 c 0
 422 80 440 62 440 40 c 0
 440 18 422 0 400 0 c 0
 378 0 360 18 360 40 c 0
240 40 m 0
 240 62 258 80 280 80 c 0
 302 80 320 62 320 40 c 0
 320 18 302 0 280 0 c 0
 258 0 240 18 240 40 c 0
120 40 m 0
 120 62 138 80 160 80 c 0
 182 80 200 62 200 40 c 0
 200 18 182 0 160 0 c 0
 138 0 120 18 120 40 c 0
1080 140 m 0
 1080 162 1098 180 1120 180 c 0
 1142 180 1160 162 1160 140 c 0
 1160 118 1142 100 1120 100 c 0
 1098 100 1080 118 1080 140 c 0
960 140 m 0
 960 162 978 180 1000 180 c 0
 1022 180 1040 162 1040 140 c 0
 1040 118 1022 100 1000 100 c 0
 978 100 960 118 960 140 c 0
120 140 m 0
 120 162 138 180 160 180 c 0
 182 180 200 162 200 140 c 0
 200 118 182 100 160 100 c 0
 138 100 120 118 120 140 c 0
0 140 m 0
 0 162 18 180 40 180 c 0
 62 180 80 162 80 140 c 0
 80 118 62 100 40 100 c 0
 18 100 0 118 0 140 c 0
1080 240 m 0
 1080 262 1098 280 1120 280 c 0
 1142 280 1160 262 1160 240 c 0
 1160 218 1142 200 1120 200 c 0
 1098 200 1080 218 1080 240 c 0
960 240 m 0
 960 262 978 280 1000 280 c 0
 1022 280 1040 262 1040 240 c 0
 1040 218 1022 200 1000 200 c 0
 978 200 960 218 960 240 c 0
960 340 m 0
 960 362 978 380 1000 380 c 0
 1022 380 1040 362 1040 340 c 0
 1040 318 1022 300 1000 300 c 0
 978 300 960 318 960 340 c 0
840 340 m 0
 840 362 858 380 880 380 c 0
 902 380 920 362 920 340 c 0
 920 318 902 300 880 300 c 0
 858 300 840 318 840 340 c 0
720 340 m 0
 720 362 738 380 760 380 c 0
 782 380 800 362 800 340 c 0
 800 318 782 300 760 300 c 0
 738 300 720 318 720 340 c 0
600 340 m 0
 600 362 618 380 640 380 c 0
 662 380 680 362 680 340 c 0
 680 318 662 300 640 300 c 0
 618 300 600 318 600 340 c 0
480 340 m 0
 480 362 498 380 520 380 c 0
 542 380 560 362 560 340 c 0
 560 318 542 300 520 300 c 0
 498 300 480 318 480 340 c 0
360 340 m 0
 360 362 378 380 400 380 c 0
 422 380 440 362 440 340 c 0
 440 318 422 300 400 300 c 0
 378 300 360 318 360 340 c 0
240 340 m 0
 240 362 258 380 280 380 c 0
 302 380 320 362 320 340 c 0
 320 318 302 300 280 300 c 0
 258 300 240 318 240 340 c 0
120 340 m 0
 120 362 138 380 160 380 c 0
 182 380 200 362 200 340 c 0
 200 318 182 300 160 300 c 0
 138 300 120 318 120 340 c 0
120 440 m 0
 120 462 138 480 160 480 c 0
 182 480 200 462 200 440 c 0
 200 418 182 400 160 400 c 0
 138 400 120 418 120 440 c 0
0 440 m 0
 0 462 18 480 40 480 c 0
 62 480 80 462 80 440 c 0
 80 418 62 400 40 400 c 0
 18 400 0 418 0 440 c 0
1080 540 m 0
 1080 562 1098 580 1120 580 c 0
 1142 580 1160 562 1160 540 c 0
 1160 518 1142 500 1120 500 c 0
 1098 500 1080 518 1080 540 c 0
960 540 m 0
 960 562 978 580 1000 580 c 0
 1022 580 1040 562 1040 540 c 0
 1040 518 1022 500 1000 500 c 0
 978 500 960 518 960 540 c 0
120 540 m 0
 120 562 138 580 160 580 c 0
 182 580 200 562 200 540 c 0
 200 518 182 500 160 500 c 0
 138 500 120 518 120 540 c 0
0 540 m 0
 0 562 18 580 40 580 c 0
 62 580 80 562 80 540 c 0
 80 518 62 500 40 500 c 0
 18 500 0 518 0 540 c 0
960 640 m 0
 960 662 978 680 1000 680 c 0
 1022 680 1040 662 1040 640 c 0
 1040 618 1022 600 1000 600 c 0
 978 600 960 618 960 640 c 0
840 640 m 0
 840 662 858 680 880 680 c 0
 902 680 920 662 920 640 c 0
 920 618 902 600 880 600 c 0
 858 600 840 618 840 640 c 0
720 640 m 0
 720 662 738 680 760 680 c 0
 782 680 800 662 800 640 c 0
 800 618 782 600 760 600 c 0
 738 600 720 618 720 640 c 0
600 640 m 0
 600 662 618 680 640 680 c 0
 662 680 680 662 680 640 c 0
 680 618 662 600 640 600 c 0
 618 600 600 618 600 640 c 0
480 640 m 0
 480 662 498 680 520 680 c 0
 542 680 560 662 560 640 c 0
 560 618 542 600 520 600 c 0
 498 600 480 618 480 640 c 0
360 640 m 0
 360 662 378 680 400 680 c 0
 422 680 440 662 440 640 c 0
 440 618 422 600 400 600 c 0
 378 600 360 618 360 640 c 0
240 640 m 0
 240 662 258 680 280 680 c 0
 302 680 320 662 320 640 c 0
 320 618 302 600 280 600 c 0
 258 600 240 618 240 640 c 0
120 640 m 0
 120 662 138 680 160 680 c 0
 182 680 200 662 200 640 c 0
 200 618 182 600 160 600 c 0
 138 600 120 618 120 640 c 0
EndSplineSet
EndChar

